<svg version="1.1" id="Layer_1" xmlns="http://www.w3.org/2000/svg" xmlns:xlink="http://www.w3.org/1999/xlink" x="0px" y="0px"
	 width="100%" viewBox="0 0 545 558" enable-background="new 0 0 545 558" xml:space="preserve">
<path fill="#FDFFFE" opacity="1.000000" stroke="none" 
	d="
M546.000000,151.000000 
	C546.000000,287.333313 546.000000,423.166626 546.000000,559.000000 
	C364.333374,559.000000 182.666748,559.000000 1.000085,559.000000 
	C1.000057,373.000061 1.000057,187.000122 1.000028,1.000135 
	C182.666580,1.000090 364.333160,1.000090 545.999878,1.000045 
	C546.000000,50.833332 546.000000,100.666664 546.000000,151.000000 
M53.878777,435.673462 
	C54.151764,435.888611 54.424747,436.103760 54.658054,436.208588 
	C54.658054,436.208588 54.595097,436.307465 54.684254,436.949554 
	C55.438969,437.989441 56.193684,439.029327 57.000786,440.009186 
	C57.000786,440.009186 56.929455,440.044556 57.024525,440.659698 
	C57.681862,441.440094 58.339203,442.220520 59.094872,443.475037 
	C59.249031,443.784027 59.492825,443.983368 59.960625,444.695770 
	C60.626789,445.497253 61.292953,446.298737 62.057175,447.548248 
	C62.198978,447.848267 62.432526,448.031067 62.959953,448.717773 
	C63.937187,449.855469 64.914421,450.993195 65.958649,452.010681 
	C65.958649,452.010681 65.856750,452.103180 66.017937,452.724518 
	C67.000313,453.844269 67.982689,454.963989 69.079201,456.540863 
	C69.251656,456.829163 69.502907,457.004700 70.038834,457.704498 
	C71.673958,459.512573 73.309082,461.320679 75.135788,463.647125 
	C75.674431,464.133118 76.213074,464.619141 76.985703,465.745361 
	C80.318878,469.171906 83.652054,472.598450 87.000488,475.999756 
	C87.000488,475.999756 86.975052,476.014801 87.238739,476.615265 
	C88.661125,477.876129 90.083504,479.136993 91.567467,480.382263 
	C91.567467,480.382263 91.631012,480.381409 91.771873,480.888489 
	C92.072586,481.045807 92.373306,481.203125 92.904793,481.027374 
	C92.904793,481.027374 92.646439,481.339569 92.785233,481.853760 
	C93.084259,482.019989 93.383278,482.186218 93.643059,482.386230 
	C93.643059,482.386230 93.635742,482.437500 93.863304,483.036438 
	C96.207619,485.073639 98.551926,487.110840 100.979347,489.044556 
	C100.979347,489.044556 100.863297,489.108978 101.157951,489.707001 
	C103.419983,491.515472 105.682014,493.323944 108.191032,495.640350 
	C108.960716,496.150024 109.730408,496.659729 110.831490,497.726166 
	C111.541557,498.180878 112.251625,498.635559 113.164856,499.534515 
	C113.587852,499.740845 114.010849,499.947205 114.772865,500.691162 
	C115.152748,500.861389 115.532631,501.031586 115.911652,501.084534 
	C115.911652,501.084534 115.800545,501.122070 115.997200,501.632385 
	C116.314529,501.793274 116.631859,501.954193 116.967644,502.025269 
	C116.967644,502.025269 116.893738,502.079590 117.173576,502.610382 
	C117.696823,502.867096 118.220078,503.123779 118.698723,503.231537 
	C118.698723,503.231537 118.660156,503.382141 118.892227,503.931885 
	C119.569420,504.328308 120.246620,504.724731 120.982567,505.028534 
	C120.982567,505.028534 120.887917,505.083954 121.203094,505.678741 
	C124.464226,507.804688 127.725349,509.930634 131.137619,512.251343 
	C131.137619,512.251343 131.381882,512.217651 131.734680,512.774536 
	C132.485123,513.193054 133.235565,513.611511 134.292618,514.482910 
	C134.783203,514.688660 135.273788,514.894409 136.122437,515.639771 
	C137.063095,516.124695 138.003754,516.609558 138.987991,517.011414 
	C138.987991,517.011414 138.910843,517.064636 139.238388,517.601501 
	C140.157166,518.063416 141.075943,518.525330 142.186111,519.190918 
	C142.186111,519.190918 142.461792,519.145020 142.815842,519.662354 
	C143.199951,519.805115 143.584061,519.947815 143.978271,520.011169 
	C143.978271,520.011169 143.915817,520.061218 144.250763,520.570190 
	C144.810883,520.772461 145.371017,520.974731 145.941681,521.081726 
	C145.941681,521.081726 145.857269,521.127136 146.189011,521.644043 
	C146.758224,521.843628 147.327454,522.043274 147.906326,522.139954 
	C147.906326,522.139954 147.811737,522.181641 148.129059,522.713989 
	C148.707123,522.906067 149.285172,523.098145 149.900604,523.157837 
	C149.900604,523.157837 149.764130,523.175537 149.986786,523.683167 
	C150.326599,523.806030 150.666412,523.928894 151.177353,524.233948 
	C151.177353,524.233948 151.414230,524.154236 151.773987,524.687988 
	C152.169388,524.831604 152.564789,524.975159 152.961533,525.032776 
	C152.961533,525.032776 152.891937,525.083313 153.248306,525.579041 
	C153.817841,525.763000 154.387390,525.946899 154.962158,526.043518 
	C154.962158,526.043518 154.887527,526.089111 155.285538,526.641174 
	C157.174515,527.474060 159.063492,528.307007 161.380768,529.675476 
	C196.503113,546.759033 233.639725,555.612488 272.646515,555.844055 
	C319.618164,556.122864 363.521332,544.051636 404.133789,520.609558 
	C425.534210,508.256989 445.237640,493.484711 462.666412,474.908417 
	C463.815216,473.621033 464.963989,472.333618 466.673798,470.798370 
	C467.450348,469.866943 468.226898,468.935516 469.596436,467.700317 
	C472.794800,463.827148 475.993164,459.953979 479.623932,455.889282 
	C479.883942,455.674927 480.020874,455.399414 480.563965,454.771210 
	C480.815826,454.238770 481.067657,453.706360 481.188019,453.201538 
	C481.188019,453.201538 481.281067,453.298462 481.853302,453.092438 
	C482.284454,452.426392 482.715576,451.760345 483.054321,451.024078 
	C483.054321,451.024078 483.099304,451.131104 483.638641,450.851471 
	C483.887390,450.317749 484.136139,449.784027 484.263336,449.306000 
	C484.263336,449.306000 484.392365,449.341125 484.980408,449.086639 
	C486.355164,447.079681 487.729919,445.072693 489.018311,443.012085 
	C489.018311,443.012085 489.071777,443.098511 489.645172,442.748474 
	C492.153076,438.871674 494.660950,434.994843 497.073639,431.016937 
	C497.073639,431.016937 497.123627,431.146515 497.689697,430.797363 
	C498.812500,428.877502 499.935333,426.957642 500.997925,425.005707 
	C500.997925,425.005707 501.042725,425.057373 501.582397,424.672791 
	C502.129242,423.481201 502.676086,422.289612 503.126923,421.082336 
	C503.126923,421.082336 503.157410,421.174744 503.686768,420.854004 
	C503.890289,420.281921 504.093811,419.709839 504.186127,419.107727 
	C504.186127,419.107727 504.220764,419.217590 504.775513,418.881042 
	C505.046936,418.291718 505.318390,417.702393 505.906097,416.900146 
	C506.067596,416.683044 506.124573,416.441315 506.627502,415.761658 
	C509.091217,410.844727 511.554932,405.927765 514.465393,400.628693 
	C514.642151,400.083557 514.818909,399.538452 515.482544,398.508484 
	C518.606323,390.673828 521.730042,382.839172 525.113647,374.560730 
	C525.124878,374.224701 525.136169,373.888641 525.719238,373.033997 
	C526.903442,369.086029 528.087646,365.138062 529.237732,361.114105 
	C529.237732,361.114105 529.178406,361.172638 529.737793,360.700348 
	C533.072083,344.467743 536.406372,328.235107 539.937866,311.338623 
	C539.918884,310.880035 539.899841,310.421417 540.122620,309.170105 
	C540.408020,306.862274 540.784546,304.561523 540.965088,302.245514 
	C543.576416,268.753387 540.542603,235.714981 530.793945,203.623611 
	C525.804077,187.197617 518.446167,171.490967 512.215027,155.185623 
	C512.215027,155.185623 512.014587,154.991119 511.922272,154.277832 
	C509.674408,150.323975 507.426544,146.370117 505.234497,142.166321 
	C505.234497,142.166321 505.043243,141.995987 504.959656,141.325943 
	C503.992859,139.859192 503.026062,138.392441 502.007568,136.999115 
	C502.007568,136.999115 502.080017,136.946014 501.994141,136.317291 
	C501.376526,135.490143 500.758881,134.663010 500.102936,133.923523 
	C500.102936,133.923523 500.198578,133.923080 500.137054,133.318863 
	C499.774841,132.854584 499.412628,132.390289 499.004150,131.991882 
	C499.004150,131.991882 499.076050,131.955734 498.999756,131.324600 
	C498.362762,130.510651 497.725739,129.696701 497.038849,128.953751 
	C497.038849,128.953751 497.125610,128.955185 496.990204,128.333389 
	C496.701721,128.034180 496.413239,127.734970 496.121490,126.954521 
	C495.817810,126.608063 495.514130,126.261612 495.081696,125.279533 
	C494.418549,124.445869 493.755402,123.612198 493.065155,122.399986 
	C492.992401,122.130432 492.822266,121.955643 492.339142,121.272018 
	C491.923218,120.806763 491.507294,120.341507 491.050293,119.980408 
	C491.050293,119.980408 491.138336,119.911247 491.027130,119.292854 
	C490.368195,118.504318 489.709229,117.715782 489.003723,116.993431 
	C489.003723,116.993431 489.074402,116.954041 488.922028,116.284119 
	C485.640564,112.153061 482.359131,108.022003 479.029755,103.982643 
	C479.029755,103.982643 479.117828,103.928360 478.966370,103.339653 
	C478.387451,102.805351 477.808563,102.271042 477.158081,101.842163 
	C477.158081,101.842163 477.285095,101.852173 477.191010,101.264702 
	C476.793213,100.846794 476.395447,100.428886 475.825623,99.467865 
	C475.283264,98.950974 474.740906,98.434082 473.987885,97.282219 
	C472.327393,95.517258 470.666901,93.752296 468.754425,91.369591 
	C464.913757,87.549332 461.073120,83.729073 456.946045,79.335960 
	C455.978699,78.520409 455.011353,77.704857 453.797821,76.349205 
	C452.726868,75.518532 451.655945,74.687859 450.267273,73.292755 
	C449.888611,73.109467 449.509918,72.926178 449.143097,72.880661 
	C449.143097,72.880661 449.265930,72.817223 449.097992,72.283951 
	C448.783844,72.105011 448.469727,71.926071 448.181274,71.852821 
	C448.181274,71.852821 448.258026,71.775726 448.039886,71.206093 
	C447.376709,70.758087 446.713562,70.310081 445.867737,69.419319 
	C445.655853,69.151764 445.379578,69.007614 444.743958,68.400391 
	C443.191925,67.222092 441.639893,66.043793 440.043030,64.941612 
	C440.043030,64.941612 440.131317,64.938614 439.931000,64.445267 
	C439.627350,64.279129 439.323700,64.112991 439.003662,64.001411 
	C439.003662,64.001411 439.050232,63.968575 438.768768,63.438766 
	C438.246674,63.178864 437.724548,62.918961 437.155975,62.798759 
	C437.155975,62.798759 437.299927,62.767902 437.136719,62.232594 
	C436.813843,62.065891 436.490967,61.899189 436.196045,61.838947 
	C436.196045,61.838947 436.269867,61.757324 436.049805,61.194557 
	C435.378815,60.775642 434.707825,60.356728 434.004150,59.999149 
	C434.004150,59.999149 434.061005,59.959160 433.764435,59.434307 
	C433.231079,59.186218 432.697723,58.938129 432.181335,58.815735 
	C432.181335,58.815735 432.276764,58.732201 432.002228,58.143719 
	C430.363434,57.025944 428.724640,55.908165 426.877258,54.362350 
	C426.653137,54.105770 426.370758,53.979641 425.705505,53.480988 
	C425.174286,53.236797 424.643036,52.992607 424.107483,52.855728 
	C424.107483,52.855728 424.202606,52.805904 423.874969,52.225731 
	C421.618927,50.764156 419.362854,49.302578 417.024384,47.937576 
	C417.024384,47.937576 417.141174,47.887772 416.800354,47.299576 
	C414.606628,46.085274 412.412872,44.870975 410.144287,43.765133 
	C410.144287,43.765133 410.275909,43.771645 410.065704,43.258663 
	C409.725525,43.134785 409.385345,43.010906 409.032166,42.974751 
	C409.032166,42.974751 409.103577,42.922161 408.739380,42.364182 
	C407.549988,41.805389 406.360626,41.246597 405.105194,40.807823 
	C405.105194,40.807823 405.230011,40.751369 404.931671,40.220493 
	C404.373016,40.013294 403.814362,39.806091 403.289795,39.813171 
	C403.289795,39.813171 403.322479,39.598679 403.015076,39.038433 
	C402.046997,38.567017 401.078949,38.095596 399.851227,37.216702 
	C399.396667,37.094082 398.942139,36.971462 398.026825,36.288166 
	C393.705444,34.122261 389.384033,31.956358 384.702148,29.318974 
	C384.139954,29.158590 383.577789,28.998207 382.717285,28.591053 
	C382.717285,28.591053 382.330170,28.585485 382.253265,28.601572 
	C382.253265,28.601572 382.242645,28.679413 381.865479,28.112165 
	C375.121582,25.302128 368.500031,22.133045 361.599731,19.782154 
	C354.574768,17.388805 347.275391,15.800905 340.013611,13.947516 
	C340.013611,13.947516 340.125641,13.904247 339.772156,13.262540 
	C334.191650,12.128268 328.611176,10.993997 323.038605,9.941633 
	C323.038605,9.941633 323.115540,9.912473 322.685608,9.285874 
	C316.457733,8.518786 310.229828,7.751698 303.574524,6.922361 
	C303.574524,6.922361 303.142914,6.939589 302.681519,6.341787 
	C298.122162,5.942644 293.562805,5.543501 288.216248,4.954697 
	C287.140472,4.974084 286.064697,4.993472 284.204529,4.776276 
	C278.746155,4.670284 273.243011,4.068522 267.838226,4.556337 
	C254.532959,5.757222 241.272888,7.458923 227.231293,8.883393 
	C226.486160,9.031320 225.741028,9.179245 224.221329,9.308998 
	C217.623932,10.867592 210.918457,12.076249 204.456146,14.072202 
	C196.132675,16.642992 188.004028,19.844584 179.897888,22.805971 
	C179.897888,22.805971 179.864731,22.700056 179.117355,22.737499 
	C176.892120,23.772511 174.666885,24.807524 172.203781,25.737398 
	C172.203781,25.737398 172.011490,25.912481 171.443268,25.958260 
	C171.202377,26.223083 170.961502,26.487907 170.866898,26.745302 
	C170.866898,26.745302 170.789688,26.620832 170.084274,26.643261 
	C168.660233,27.368238 167.236206,28.093218 165.915710,28.850222 
	C165.915710,28.850222 165.895828,28.743687 165.268768,28.766258 
	C164.773468,29.099651 164.278152,29.433043 163.872787,29.717413 
	C163.872787,29.717413 163.777084,29.680914 163.346130,29.713058 
	C163.346130,29.713058 163.001999,29.974438 162.412796,29.999424 
	C161.933395,30.312662 161.453995,30.625898 160.292389,30.999702 
	C159.332443,31.610008 158.372513,32.220314 157.194824,32.734177 
	C157.194824,32.734177 157.019821,32.895683 156.404388,32.930809 
	C155.912735,33.268726 155.421097,33.606644 154.998627,33.994553 
	C154.998627,33.994553 154.949249,33.924873 154.238235,34.014507 
	C148.120911,37.647675 142.003601,41.280842 135.956207,44.964573 
	C135.956207,44.964573 135.957230,44.878288 135.328201,44.989544 
	C135.031754,45.283981 134.735321,45.578423 133.958954,45.876545 
	C133.612411,46.178665 133.265884,46.480785 132.293518,46.915878 
	C131.476746,47.566460 130.659958,48.217041 129.919342,48.914726 
	C129.919342,48.914726 129.934280,48.826431 129.291962,48.947659 
	C128.993622,49.252842 128.695267,49.558029 128.153763,49.790981 
	C128.153763,49.790981 127.993401,49.987514 127.324074,50.137264 
	C124.387970,52.372143 121.451859,54.607025 117.965462,56.956921 
	C117.287018,57.577305 116.608566,58.197685 115.319023,58.964825 
	C114.548759,59.642578 113.778503,60.320328 112.536217,61.118626 
	C112.225952,61.276924 112.029816,61.525333 111.321159,62.028736 
	C110.197685,63.012295 109.074211,63.995853 107.413155,65.144173 
	C106.917160,65.690231 106.421165,66.236290 105.388565,66.965294 
	C105.182549,67.265732 104.976524,67.566170 104.896255,67.897385 
	C104.896255,67.897385 104.882057,67.768700 104.282036,67.935356 
	C104.016853,68.248604 103.751671,68.561852 102.915298,69.083214 
	C101.588333,70.333900 100.261368,71.584587 98.306168,73.040131 
	C97.104088,74.266228 95.902008,75.492325 94.759590,76.819618 
	C94.759590,76.819618 94.793686,76.707199 94.254967,76.837769 
	C94.061737,77.133476 93.868507,77.429176 93.870155,77.797028 
	C93.870155,77.797028 93.711281,77.663071 93.181084,77.801170 
	C93.008705,78.108147 92.836334,78.415123 92.688690,78.644653 
	C92.688690,78.644653 92.607635,78.638245 91.994492,78.829216 
	C90.315109,80.546921 88.635719,82.264633 86.498512,84.156624 
	C86.209747,84.351181 86.038757,84.620514 85.380806,85.247215 
	C82.537743,88.464027 79.694679,91.680847 76.951675,94.977020 
	C76.951675,94.977020 76.893654,94.863251 76.295303,95.157463 
	C74.471107,97.396011 72.646904,99.634560 70.926872,101.972679 
	C70.926872,101.972679 70.868660,101.840858 70.280418,102.140694 
	C69.115845,103.731277 67.951279,105.321861 66.362305,107.093361 
	C66.100586,107.295242 65.963036,107.561310 65.424385,108.201363 
	C65.174683,108.741562 64.924980,109.281769 64.803734,109.796341 
	C64.803734,109.796341 64.710831,109.704002 64.153732,109.932999 
	C63.732708,110.599960 63.311684,111.266930 62.977661,111.985313 
	C62.977661,111.985313 62.926689,111.898048 62.358109,112.207924 
	C61.538574,113.451439 60.719040,114.694946 59.983688,115.987610 
	C59.983688,115.987610 59.932419,115.904694 59.364677,116.219002 
	C58.558643,117.477982 57.752605,118.736969 56.757030,120.147179 
	C56.757030,120.147179 56.801140,120.385612 56.219288,120.710564 
	C55.785709,121.457413 55.352131,122.204262 54.994648,122.991348 
	C54.994648,122.991348 54.943821,122.921867 54.414623,123.258324 
	C53.916855,124.157204 53.419083,125.056091 52.995171,125.990791 
	C52.995171,125.990791 52.947815,125.923737 52.388428,126.300697 
	C51.156719,128.475662 49.925014,130.650635 48.814835,132.885361 
	C48.814835,132.885361 48.815891,132.749939 48.304428,132.957870 
	C48.165092,133.289658 48.025761,133.621460 47.974819,133.967865 
	C47.974819,133.967865 47.921566,133.895813 47.388828,134.231461 
	C46.922928,135.152863 46.457031,136.074265 45.785484,137.176407 
	C45.785484,137.176407 45.836899,137.445297 45.296360,137.880875 
	C45.073486,138.520401 44.850613,139.159912 44.735897,139.733810 
	C44.735897,139.733810 44.620064,139.682907 44.056454,139.980591 
	C43.616680,140.943466 43.176903,141.906342 42.835304,142.902451 
	C42.835304,142.902451 42.812019,142.801453 42.263248,143.139008 
	C41.988293,143.720688 41.713333,144.302353 41.107292,145.116821 
	C40.937473,145.350464 40.884441,145.608139 40.446629,146.320251 
	C40.167419,147.137939 39.888210,147.955643 39.944469,148.943512 
	C39.944469,148.943512 39.626431,148.742615 39.110359,149.049255 
	C38.936729,149.614182 38.763100,150.179123 38.834663,150.751648 
	C38.834663,150.751648 38.600124,150.679764 38.027771,150.996185 
	C34.913296,157.948334 31.798824,164.900497 28.792055,171.885452 
	C28.792055,171.885452 28.752659,171.779984 28.178707,172.173477 
	C23.278143,187.329987 17.783382,202.328003 13.683374,217.698074 
	C10.893587,228.156387 10.056691,239.135620 8.103928,250.383224 
	C8.109554,250.933563 8.115180,251.483887 7.921209,252.852127 
	C7.693199,255.914291 7.465189,258.976440 7.082296,262.497131 
	C7.082296,262.497131 7.184506,262.970184 7.013358,263.635193 
	C7.047712,264.089569 7.082067,264.543976 6.931170,265.843903 
	C6.738359,269.836334 6.413434,273.827454 6.373447,277.821411 
	C6.024665,312.658325 12.324510,346.330933 24.427071,378.934753 
	C26.493574,384.501801 29.268967,389.805695 31.803326,395.098755 
	C31.803326,395.098755 31.662634,395.170959 31.702362,395.832184 
	C32.107582,396.589203 32.512802,397.346252 32.964191,398.030060 
	C32.964191,398.030060 32.878059,398.038788 32.891914,398.663971 
	C33.288422,399.364532 33.684925,400.065125 34.022430,400.904388 
	C34.022430,400.904388 34.166485,400.948792 34.262989,401.655151 
	C36.486530,405.799774 38.710072,409.944366 40.988380,414.008881 
	C40.988380,414.008881 40.905483,414.059235 40.991520,414.748901 
	C42.266823,416.856720 43.542126,418.964508 44.902641,421.655823 
	C45.246796,422.112518 45.590950,422.569244 46.040432,423.682861 
	C46.910740,424.889587 47.781044,426.096313 48.938835,427.171997 
	C48.938835,427.171997 48.635223,427.259399 48.741695,427.938416 
	C50.141628,429.985779 51.541565,432.033173 52.993862,434.018036 
	C52.993862,434.018036 52.914757,434.037659 53.021324,434.575439 
	C53.301865,434.788574 53.582405,435.001709 53.876385,435.100922 
	C53.876385,435.100922 53.767067,435.135712 53.878777,435.673462 
z"/>
<path fill="#51A87F" opacity="1.000000" stroke="none" 
	d="
M114.433853,500.153564 
	C114.010849,499.947205 113.587852,499.740845 113.017746,498.946320 
	C112.080452,497.961884 111.290283,497.565643 110.500107,497.169373 
	C109.730408,496.659729 108.960716,496.150024 108.055618,495.027466 
	C105.567902,492.646027 103.215591,490.877502 100.863297,489.108978 
	C100.863297,489.108978 100.979347,489.044556 100.941879,488.738373 
	C98.481522,486.433960 96.058632,484.435730 93.635742,482.437500 
	C93.635742,482.437500 93.643059,482.386230 93.653702,482.070190 
	C93.325035,481.615936 92.985741,481.477753 92.646439,481.339569 
	C92.646439,481.339569 92.904793,481.027374 92.781715,480.893372 
	C92.316093,480.633392 91.973549,480.507416 91.631012,480.381409 
	C91.631012,480.381409 91.567467,480.382263 91.672501,480.016724 
	C90.176704,478.439056 88.575867,477.226929 86.975044,476.014832 
	C86.975052,476.014801 87.000488,475.999756 86.996429,475.645203 
	C83.578827,471.895477 80.165268,468.500305 76.751717,465.105133 
	C76.213074,464.619141 75.674431,464.133118 75.055328,463.010986 
	C73.260902,460.605713 71.546936,458.836548 69.832962,457.067413 
	C69.502907,457.004700 69.251656,456.829163 69.031158,455.936432 
	C67.940994,454.255737 66.898872,453.179443 65.856750,452.103180 
	C65.856750,452.103180 65.958649,452.010681 65.955719,451.685791 
	C64.887794,450.272858 63.822803,449.184784 62.757816,448.096680 
	C62.432526,448.031067 62.198978,447.848267 62.016922,446.951477 
	C61.259865,445.594177 60.543056,444.833649 59.826248,444.073120 
	C59.492825,443.983368 59.249031,443.784027 59.044899,442.879944 
	C58.306431,441.538086 57.617943,440.791321 56.929455,440.044556 
	C56.929455,440.044556 57.000786,440.009186 56.990673,439.671417 
	C56.185406,438.324921 55.390251,437.316193 54.595097,436.307465 
	C54.595097,436.307465 54.658054,436.208588 54.671623,435.973572 
	C54.379150,435.537598 54.073116,435.336639 53.767075,435.135681 
	C53.767067,435.135712 53.876385,435.100922 53.813393,434.891205 
	C53.471855,434.466858 53.193310,434.252258 52.914761,434.037659 
	C52.914757,434.037659 52.993862,434.018036 52.984612,433.675232 
	C51.528641,431.308105 50.081928,429.283752 48.635220,427.259399 
	C48.635223,427.259399 48.938835,427.171997 48.902138,426.853851 
	C47.888657,425.365784 46.911877,424.195862 45.935101,423.025940 
	C45.590950,422.569244 45.246796,422.112518 45.134682,421.179993 
	C43.879650,418.489197 42.392570,416.274200 40.905487,414.059235 
	C40.905483,414.059235 40.988380,414.008881 40.979626,413.664368 
	C38.702740,409.196167 36.434612,405.072479 34.166481,400.948792 
	C34.166485,400.948792 34.022430,400.904388 34.026958,400.515472 
	C33.647011,399.430634 33.262535,398.734711 32.878059,398.038788 
	C32.878059,398.038788 32.964191,398.030060 32.967743,397.704834 
	C32.535076,396.643402 32.098854,395.907196 31.662634,395.170959 
	C31.662634,395.170959 31.803326,395.098755 31.849319,394.770264 
	C27.538490,381.291931 23.513184,368.020325 18.740269,355.023254 
	C12.878546,339.061279 11.061598,322.331177 9.234140,305.711121 
	C7.754978,292.258698 8.336198,278.579712 8.167524,264.622650 
	C8.261300,260.174133 8.191053,256.104187 8.120807,252.034225 
	C8.115180,251.483887 8.109554,250.933563 8.621034,250.008636 
	C9.784426,245.617065 10.162449,241.534592 11.124384,237.594650 
	C14.876952,222.224731 18.714876,206.873825 22.729334,191.570496 
	C24.477705,184.905594 26.729500,178.372787 28.752659,171.779984 
	C28.752659,171.779984 28.792055,171.885452 29.078335,171.758575 
	C32.514622,165.463120 35.697964,159.311020 38.763527,153.100784 
	C39.073166,152.473511 38.671627,151.495178 38.600121,150.679764 
	C38.600124,150.679764 38.834663,150.751648 39.056534,150.685089 
	C39.394413,149.993210 39.510426,149.367920 39.626434,148.742615 
	C39.626431,148.742615 39.944469,148.943512 40.130085,148.766571 
	C40.526535,147.689697 40.737366,146.789764 40.948196,145.889847 
	C40.884441,145.608139 40.937473,145.350464 41.622837,144.909149 
	C42.362926,144.068146 42.587471,143.434799 42.812019,142.801453 
	C42.812019,142.801453 42.835304,142.902451 43.137123,142.800293 
	C43.832645,141.693054 44.226353,140.687988 44.620064,139.682907 
	C44.620064,139.682907 44.735897,139.733810 45.040230,139.645844 
	C45.508675,138.853699 45.672787,138.149490 45.836899,137.445297 
	C45.836899,137.445297 45.785484,137.176407 46.240067,137.032394 
	C47.103622,135.890854 47.512592,134.893341 47.921566,133.895813 
	C47.921566,133.895813 47.974819,133.967865 48.182663,133.848419 
	C48.532299,133.402634 48.674091,133.076294 48.815887,132.749939 
	C48.815891,132.749939 48.814835,132.885361 49.113991,132.791138 
	C50.591373,130.439194 51.769596,128.181473 52.947815,125.923737 
	C52.947815,125.923737 52.995171,125.990791 53.315556,125.936768 
	C54.071899,124.895790 54.507862,123.908829 54.943825,122.921867 
	C54.943821,122.921867 54.994648,122.991348 55.330879,122.923080 
	C56.045116,122.031746 56.423126,121.208679 56.801140,120.385612 
	C56.801140,120.385612 56.757030,120.147179 57.216774,120.035355 
	C58.428486,118.583916 59.180454,117.244308 59.932419,115.904694 
	C59.932419,115.904694 59.983688,115.987610 60.311096,115.946602 
	C61.401230,114.569748 62.163960,113.233894 62.926689,111.898048 
	C62.926689,111.898048 62.977661,111.985313 63.286621,111.934952 
	C63.967335,111.157722 64.339081,110.430862 64.710831,109.704002 
	C64.710831,109.704002 64.803734,109.796341 65.057892,109.722961 
	C65.524574,109.063576 65.737106,108.477570 65.949638,107.891563 
	C65.963036,107.561310 66.100586,107.295242 66.948120,107.000610 
	C68.645508,105.218857 69.757080,103.529854 70.868660,101.840858 
	C70.868660,101.840858 70.926872,101.972679 71.238937,101.935699 
	C73.331894,99.553566 75.112778,97.208412 76.893654,94.863251 
	C76.893654,94.863251 76.951675,94.977020 77.259277,94.942451 
	C80.373093,91.593460 83.179314,88.279037 85.985535,84.964615 
	C86.038757,84.620514 86.209747,84.351181 87.099823,84.072708 
	C89.336624,82.205276 90.972130,80.421761 92.607635,78.638245 
	C92.607635,78.638245 92.688690,78.644653 92.974091,78.660454 
	C93.410088,78.338524 93.560684,78.000801 93.711281,77.663071 
	C93.711281,77.663071 93.870155,77.797028 94.067337,77.740204 
	C94.440910,77.357986 94.617302,77.032593 94.793686,76.707199 
	C94.793686,76.707199 94.759590,76.819618 95.101128,76.833740 
	C96.606575,75.510330 97.770493,74.172798 98.934402,72.835266 
	C100.261368,71.584587 101.588333,70.333900 103.520584,68.919998 
	C104.377937,68.427422 104.629997,68.098061 104.882065,67.768700 
	C104.882057,67.768700 104.896255,67.897385 105.111328,67.807365 
	C105.525986,67.405685 105.725578,67.094017 105.925171,66.782349 
	C106.421165,66.236290 106.917160,65.690231 108.056038,65.065460 
	C109.781883,63.945782 110.864845,62.904816 111.947807,61.863853 
	C112.029816,61.525333 112.225952,61.276924 113.136887,61.053673 
	C114.468422,60.265167 115.199272,59.541622 115.930122,58.818069 
	C116.608566,58.197685 117.287018,57.577305 118.632812,56.923111 
	C122.197906,54.588707 125.095657,52.288113 127.993401,49.987514 
	C127.993401,49.987514 128.153763,49.790981 128.606247,49.778316 
	C129.350586,49.452576 129.642426,49.139503 129.934280,48.826431 
	C129.934280,48.826431 129.919342,48.914726 130.262360,48.928535 
	C131.376694,48.222534 132.148026,47.502724 132.919342,46.782906 
	C133.265884,46.480785 133.612411,46.178665 134.520874,45.825874 
	C135.374268,45.476231 135.665756,45.177261 135.957230,44.878288 
	C135.957230,44.878288 135.956207,44.964573 136.304810,44.963951 
	C140.810959,42.812840 145.044754,40.794533 149.094803,38.457733 
	C151.212936,37.235611 153.008179,35.453869 154.949249,33.924873 
	C154.949249,33.924873 154.998627,33.994553 155.280640,33.965584 
	C156.048370,33.589638 156.534103,33.242661 157.019821,32.895683 
	C157.019821,32.895683 157.194824,32.734177 157.712952,32.823097 
	C159.145584,32.254395 160.060104,31.596769 160.974609,30.939140 
	C161.453995,30.625898 161.933395,30.312662 162.811081,30.158661 
	C163.398605,30.105570 163.587845,29.893242 163.777084,29.680912 
	C163.777084,29.680914 163.872787,29.717413 164.162933,29.795860 
	C164.933990,29.497433 165.414917,29.120560 165.895828,28.743687 
	C165.895828,28.743687 165.915710,28.850222 166.243088,28.890375 
	C167.976868,28.160629 169.383286,27.390732 170.789688,26.620832 
	C170.789688,26.620832 170.866898,26.745302 171.075577,26.733379 
	C171.526672,26.451796 171.769073,26.182138 172.011490,25.912481 
	C172.011490,25.912481 172.203781,25.737398 172.738342,25.827660 
	C175.470169,24.845297 177.667450,23.772675 179.864731,22.700054 
	C179.864731,22.700056 179.897888,22.805971 180.270584,22.864483 
	C181.800339,22.878654 183.030182,23.076048 184.103348,22.753016 
	C196.405563,19.049959 208.692780,15.296020 220.956833,11.468636 
	C222.386688,11.022407 223.653488,10.053668 224.995895,9.327169 
	C225.741028,9.179245 226.486160,9.031320 227.870209,9.214830 
	C229.313232,9.686664 230.130600,10.001676 230.919479,9.941760 
	C247.883469,8.653345 264.845337,7.336419 281.803162,5.969251 
	C282.883759,5.882131 283.927856,5.342162 284.988922,5.012859 
	C286.064697,4.993472 287.140472,4.974084 288.712585,5.432071 
	C293.853577,6.252826 298.498260,6.596207 303.142914,6.939589 
	C303.142914,6.939589 303.574524,6.922361 304.048279,7.241469 
	C310.719879,8.344543 316.917725,9.128509 323.115540,9.912474 
	C323.115540,9.912473 323.038605,9.941633 323.249878,10.209806 
	C329.015991,11.620069 334.570801,12.762157 340.125641,13.904247 
	C340.125641,13.904247 340.013611,13.947516 340.024414,14.189219 
	C340.025421,14.621733 340.015594,14.812546 339.966187,15.351476 
	C336.036743,18.124538 332.095398,20.472221 328.282745,23.012989 
	C326.786713,24.009968 324.912048,25.242031 324.468903,26.739592 
	C324.162140,27.776367 325.957031,29.489460 326.915955,30.826370 
	C327.512604,31.658163 328.301605,32.351959 328.588928,33.115341 
	C299.134369,26.555479 269.773315,24.716896 240.373718,29.348341 
	C174.251541,39.764862 120.507919,72.007721 80.704926,125.492775 
	C34.025047,188.218613 18.373587,258.992584 35.350819,335.393860 
	C53.375561,416.509216 100.827324,475.595856 176.016113,511.415192 
	C216.662415,530.778809 259.783447,537.213196 304.494324,531.074341 
	C368.708801,522.257568 421.375549,492.019989 461.726410,441.877991 
	C512.565552,378.702698 529.557251,306.087708 513.376282,226.906219 
	C499.885773,160.890533 464.710754,108.015480 409.036133,69.312965 
	C387.519958,54.355915 363.963745,43.685902 339.322144,35.604889 
	C348.214569,37.380932 355.677917,34.154171 363.179413,30.516218 
	C366.215881,29.043648 367.559235,27.249075 367.383240,24.002266 
	C369.137543,24.479578 370.501251,24.975224 371.882416,25.416107 
	C375.331604,26.517128 378.788727,27.593285 382.242645,28.679413 
	C382.242645,28.679413 382.253265,28.601572 382.245239,28.811460 
	C382.496674,28.960171 382.756134,28.898993 383.015594,28.837818 
	C383.577789,28.998207 384.139954,29.158590 384.992828,29.888329 
	C389.425385,33.124184 392.857147,37.257732 398.487579,36.848839 
	C398.942139,36.971462 399.396667,37.094082 400.063019,37.778801 
	C401.290710,38.760162 402.306580,39.179424 403.322479,39.598679 
	C403.322479,39.598679 403.289795,39.813171 403.333191,40.046318 
	C403.994385,40.436768 404.612213,40.594067 405.230011,40.751366 
	C405.230011,40.751369 405.105194,40.807823 405.210663,41.111755 
	C406.578613,41.917847 407.841095,42.420006 409.103577,42.922165 
	C409.103577,42.922161 409.032166,42.974751 409.155090,43.182304 
	C409.610657,43.517120 409.943298,43.644379 410.275909,43.771645 
	C410.275909,43.771645 410.144287,43.765133 410.227722,44.077106 
	C412.587799,45.555309 414.864502,46.721535 417.141174,47.887768 
	C417.141174,47.887772 417.024384,47.937576 417.063446,48.255188 
	C419.469208,49.983837 421.835907,51.394871 424.202606,52.805901 
	C424.202606,52.805904 424.107483,52.855728 424.217041,53.101006 
	C424.894409,53.558846 425.462250,53.771400 426.030090,53.983955 
	C426.370758,53.979641 426.653137,54.105770 426.985657,54.944782 
	C428.821625,56.595547 430.549194,57.663876 432.276764,58.732201 
	C432.276764,58.732201 432.181335,58.815735 432.259338,59.065239 
	C432.911926,59.529545 433.486450,59.744350 434.061005,59.959160 
	C434.061005,59.959160 434.004150,59.999149 434.056000,60.314003 
	C434.828522,61.005009 435.549194,61.381165 436.269867,61.757324 
	C436.269867,61.757324 436.196045,61.838947 436.246216,62.070686 
	C436.630890,62.457581 436.965424,62.612740 437.299927,62.767899 
	C437.299927,62.767902 437.155975,62.798759 437.247894,63.046814 
	C437.909943,63.519436 438.480103,63.744003 439.050232,63.968575 
	C439.050232,63.968575 439.003662,64.001411 439.122986,64.211761 
	C439.538635,64.594276 439.834991,64.766441 440.131317,64.938614 
	C440.131317,64.938614 440.043030,64.941612 440.068787,65.270721 
	C441.742645,66.728844 443.390808,67.857849 445.038940,68.986862 
	C445.379578,69.007614 445.655853,69.151764 445.986633,69.992317 
	C446.823059,70.968788 447.540527,71.372261 448.258026,71.775726 
	C448.258026,71.775726 448.181274,71.852821 448.235016,72.080841 
	C448.614471,72.478310 448.940216,72.647766 449.265930,72.817230 
	C449.265930,72.817223 449.143097,72.880661 449.263000,73.121857 
	C449.783630,73.527771 450.184296,73.692482 450.584991,73.857185 
	C451.655945,74.687859 452.726868,75.518532 453.914795,77.011543 
	C455.098663,78.418861 456.165588,79.163834 457.232483,79.908813 
	C461.073120,83.729073 464.913757,87.549332 468.880615,92.048050 
	C470.737396,94.456749 472.467987,96.186981 474.198547,97.917198 
	C474.740906,98.434082 475.283264,98.950974 475.939697,100.051849 
	C476.464203,101.041275 476.874664,101.446716 477.285095,101.852173 
	C477.285095,101.852173 477.158081,101.842163 477.154846,102.143463 
	C477.807037,102.939293 478.462433,103.433830 479.117828,103.928360 
	C479.117828,103.928360 479.029755,103.982643 479.031311,104.312775 
	C482.380035,108.746628 485.727203,112.850342 489.074402,116.954041 
	C489.074402,116.954041 489.003723,116.993431 489.015381,117.328148 
	C489.730804,118.412323 490.434570,119.161781 491.138336,119.911240 
	C491.138336,119.911247 491.050293,119.980408 491.080811,120.282333 
	C491.592468,121.014709 492.073639,121.445152 492.554810,121.875595 
	C492.822266,121.955643 492.992401,122.130432 493.055542,122.974075 
	C493.767426,124.337173 494.488922,125.126175 495.210449,125.915169 
	C495.514130,126.261612 495.817810,126.608063 496.172363,127.518005 
	C496.524048,128.372726 496.824829,128.663956 497.125610,128.955185 
	C497.125610,128.955185 497.038849,128.953751 497.040100,129.286499 
	C497.719574,130.398071 498.397797,131.176910 499.076050,131.955734 
	C499.076050,131.955734 499.004150,131.991882 499.033966,132.277390 
	C499.442047,133.016296 499.820312,133.469696 500.198578,133.923096 
	C500.198578,133.923080 500.102936,133.923523 500.081146,134.251923 
	C500.732910,135.368881 501.406464,136.157455 502.080017,136.946014 
	C502.080017,136.946014 502.007568,136.999115 502.017822,137.336502 
	C503.033173,139.114578 504.038208,140.555283 505.043243,141.995987 
	C505.043243,141.995987 505.234497,142.166321 505.162384,142.717178 
	C506.431885,147.746597 506.745697,152.832230 512.014587,154.991119 
	C512.014587,154.991119 512.215027,155.185623 512.148315,155.747131 
	C512.475708,157.726105 512.761414,159.184677 513.280701,160.554657 
	C518.174683,173.465820 524.164429,186.075272 527.763000,199.334946 
	C532.244751,215.848892 535.212402,232.821671 537.999939,249.733749 
	C540.671936,265.944946 540.911743,282.341858 539.156372,298.752563 
	C538.763916,302.421509 539.606750,306.222595 539.880859,309.962830 
	C539.899841,310.421417 539.918884,310.880035 539.484497,311.771149 
	C538.688843,312.899902 538.167969,313.562927 538.031433,314.297394 
	C536.353333,323.327484 534.772034,332.375549 533.081421,341.403168 
	C531.845093,348.005096 530.483948,354.583679 529.178406,361.172638 
	C529.178406,361.172638 529.237732,361.114105 528.860474,361.139404 
	C524.611023,364.550751 525.743408,369.284363 525.147461,373.552612 
	C525.136169,373.888641 525.124878,374.224701 524.643311,374.849915 
	C520.811890,382.209259 517.407043,389.259552 514.166748,396.384735 
	C513.886414,397.001129 514.693665,398.112091 514.995667,398.993317 
	C514.818909,399.538452 514.642151,400.083557 513.881287,400.855621 
	C510.890442,406.113342 508.483704,411.144135 506.076965,416.174927 
	C506.124573,416.441315 506.067596,416.683044 505.392975,417.097565 
	C504.660156,417.935852 504.440460,418.576721 504.220764,419.217590 
	C504.220764,419.217590 504.186127,419.107727 503.924957,419.229919 
	C503.494995,419.959625 503.326202,420.567200 503.157410,421.174744 
	C503.157410,421.174744 503.126923,421.082336 502.828278,421.194519 
	C502.033997,422.556915 501.538361,423.807129 501.042725,425.057373 
	C501.042725,425.057373 500.997925,425.005707 500.659607,425.046936 
	C497.239716,426.043732 496.720825,428.351868 497.123627,431.146515 
	C497.123627,431.146515 497.073639,431.016937 496.756134,431.060181 
	C493.983002,435.101807 491.527374,439.100159 489.071777,443.098511 
	C489.071777,443.098511 489.018311,443.012085 488.700806,443.049500 
	C487.052979,445.171631 485.722687,447.256378 484.392395,449.341125 
	C484.392365,449.341125 484.263336,449.306000 483.993256,449.332886 
	C483.515228,449.950226 483.307251,450.540680 483.099304,451.131104 
	C483.099304,451.131104 483.054321,451.024078 482.744141,451.073639 
	C482.049652,451.848297 481.665344,452.573364 481.281067,453.298462 
	C481.281067,453.298462 481.188019,453.201538 480.939636,453.271027 
	C480.472382,453.914581 480.253540,454.488647 480.034729,455.062714 
	C480.020874,455.399414 479.883942,455.674927 479.048035,455.987000 
	C475.315948,460.057831 472.159698,464.030975 469.003479,468.004120 
	C468.226898,468.935516 467.450348,469.866943 466.002045,470.912231 
	C464.245392,472.412872 463.160522,473.799683 462.075623,475.186493 
	C445.237640,493.484711 425.534210,508.256989 404.133789,520.609558 
	C363.521332,544.051636 319.618164,556.122864 272.646515,555.844055 
	C233.639725,555.612488 196.503113,546.759033 161.036560,529.076233 
	C158.757401,527.681030 156.822464,526.885071 154.887527,526.089111 
	C154.887527,526.089111 154.962158,526.043518 154.809540,525.808228 
	C154.068604,525.409729 153.480270,525.246521 152.891937,525.083313 
	C152.891937,525.083313 152.961533,525.032776 152.791809,524.798218 
	C152.219482,524.427124 151.816849,524.290710 151.414230,524.154236 
	C151.414230,524.154236 151.177353,524.233948 150.960693,523.904419 
	C150.417404,523.441772 150.090759,523.308655 149.764130,523.175537 
	C149.764130,523.175537 149.900604,523.157837 149.771683,522.908020 
	C149.032425,522.499329 148.422073,522.340515 147.811737,522.181641 
	C147.811737,522.181641 147.906326,522.139954 147.779434,521.887695 
	C147.054108,521.466064 146.455688,521.296631 145.857269,521.127136 
	C145.857269,521.127136 145.941681,521.081726 145.801437,520.842285 
	C145.079407,520.422363 144.497604,520.241821 143.915802,520.061218 
	C143.915817,520.061218 143.978271,520.011169 143.807617,519.781067 
	C143.245224,519.415649 142.853516,519.280334 142.461792,519.145020 
	C142.461792,519.145020 142.186111,519.190918 142.036240,518.740234 
	C140.894531,517.881226 139.902695,517.472900 138.910843,517.064636 
	C138.910843,517.064636 138.987991,517.011414 138.928009,516.683716 
	C137.833466,515.937439 136.798904,515.518860 135.764359,515.100220 
	C135.273788,514.894409 134.783203,514.688660 134.076965,513.888062 
	C133.034836,512.934753 132.208359,512.576172 131.381882,512.217651 
	C131.381882,512.217651 131.137619,512.251343 131.033752,511.798309 
	C127.582550,509.258148 124.235237,507.171051 120.887924,505.083954 
	C120.887917,505.083954 120.982567,505.028534 120.929497,504.718384 
	C120.137665,504.066193 119.398911,503.724182 118.660156,503.382141 
	C118.660156,503.382141 118.698723,503.231537 118.668304,502.978546 
	C118.056503,502.510223 117.475121,502.294922 116.893738,502.079590 
	C116.893738,502.079590 116.967644,502.025269 116.853271,501.818909 
	C116.426109,501.449066 116.113327,501.285583 115.800545,501.122070 
	C115.800545,501.122070 115.911652,501.084534 115.769302,500.847839 
	C115.229256,500.458649 114.831551,500.306122 114.433853,500.153564 
z"/>
<path fill="#599D82" opacity="1.000000" stroke="none" 
	d="
M540.001709,309.566467 
	C539.606750,306.222595 538.763916,302.421509 539.156372,298.752563 
	C540.911743,282.341858 540.671936,265.944946 537.999939,249.733749 
	C535.212402,232.821671 532.244751,215.848892 527.763000,199.334946 
	C524.164429,186.075272 518.174683,173.465820 513.280701,160.554657 
	C512.761414,159.184677 512.475708,157.726105 512.120117,155.883911 
	C518.446167,171.490967 525.804077,187.197617 530.793945,203.623611 
	C540.542603,235.714981 543.576416,268.753387 540.965088,302.245514 
	C540.784546,304.561523 540.408020,306.862274 540.001709,309.566467 
z"/>
<path fill="#5C9F84" opacity="1.000000" stroke="none" 
	d="
M8.003501,265.001221 
	C8.336198,278.579712 7.754978,292.258698 9.234140,305.711121 
	C11.061598,322.331177 12.878546,339.061279 18.740269,355.023254 
	C23.513184,368.020325 27.538490,381.291931 31.806095,394.836487 
	C29.268967,389.805695 26.493574,384.501801 24.427071,378.934753 
	C12.324510,346.330933 6.024665,312.658325 6.373447,277.821411 
	C6.413434,273.827454 6.738359,269.836334 7.245544,265.421631 
	C7.559919,264.999390 8.003501,265.001221 8.003501,265.001221 
z"/>
<path fill="#5A9E82" opacity="1.000000" stroke="none" 
	d="
M28.465683,171.976730 
	C26.729500,178.372787 24.477705,184.905594 22.729334,191.570496 
	C18.714876,206.873825 14.876952,222.224731 11.124384,237.594650 
	C10.162449,241.534592 9.784426,245.617065 8.742335,249.757996 
	C10.056691,239.135620 10.893587,228.156387 13.683374,217.698074 
	C17.783382,202.328003 23.278143,187.329987 28.465683,171.976730 
z"/>
<path fill="#599D82" opacity="1.000000" stroke="none" 
	d="
M284.596741,4.894568 
	C283.927856,5.342162 282.883759,5.882131 281.803162,5.969251 
	C264.845337,7.336419 247.883469,8.653345 230.919479,9.941760 
	C230.130600,10.001676 229.313232,9.686664 228.251892,9.252751 
	C241.272888,7.458923 254.532959,5.757222 267.838226,4.556337 
	C273.243011,4.068522 278.746155,4.670284 284.596741,4.894568 
z"/>
<path fill="#599D82" opacity="1.000000" stroke="none" 
	d="
M224.608612,9.318083 
	C223.653488,10.053668 222.386688,11.022407 220.956833,11.468636 
	C208.692780,15.296020 196.405563,19.049959 184.103348,22.753016 
	C183.030182,23.076048 181.800339,22.878654 180.217377,22.848740 
	C188.004028,19.844584 196.132675,16.642992 204.456146,14.072202 
	C210.918457,12.076249 217.623932,10.867592 224.608612,9.318083 
z"/>
<path fill="#599D82" opacity="1.000000" stroke="none" 
	d="
M529.458130,360.936493 
	C530.483948,354.583679 531.845093,348.005096 533.081421,341.403168 
	C534.772034,332.375549 536.353333,323.327484 538.031433,314.297394 
	C538.167969,313.562927 538.688843,312.899902 539.385864,312.103088 
	C536.406372,328.235107 533.072083,344.467743 529.458130,360.936493 
z"/>
<path fill="#599D82" opacity="1.000000" stroke="none" 
	d="
M382.054077,28.395790 
	C378.788727,27.593285 375.331604,26.517128 371.882416,25.416107 
	C370.501251,24.975224 369.137543,24.479578 367.158508,23.730726 
	C357.702698,20.636185 348.854218,17.819771 340.005768,15.003357 
	C340.015594,14.812546 340.025421,14.621733 340.065735,14.145624 
	C347.275391,15.800905 354.574768,17.388805 361.599731,19.782154 
	C368.500031,22.133045 375.121582,25.302128 382.054077,28.395790 
z"/>
<path fill="#599D82" opacity="1.000000" stroke="none" 
	d="
M515.239136,398.750916 
	C514.693665,398.112091 513.886414,397.001129 514.166748,396.384735 
	C517.407043,389.259552 520.811890,382.209259 524.513428,375.071777 
	C521.730042,382.839172 518.606323,390.673828 515.239136,398.750916 
z"/>
<path fill="#5A9E82" opacity="1.000000" stroke="none" 
	d="
M38.313946,150.837982 
	C38.671627,151.495178 39.073166,152.473511 38.763527,153.100784 
	C35.697964,159.311020 32.514622,165.463120 29.024483,171.742157 
	C31.798824,164.900497 34.913296,157.948334 38.313946,150.837982 
z"/>
<path fill="#599D82" opacity="1.000000" stroke="none" 
	d="
M154.593750,33.969688 
	C153.008179,35.453869 151.212936,37.235611 149.094803,38.457733 
	C145.044754,40.794533 140.810959,42.812840 136.269836,44.938671 
	C142.003601,41.280842 148.120911,37.647675 154.593750,33.969688 
z"/>
<path fill="#599D82" opacity="1.000000" stroke="none" 
	d="
M322.900574,9.599174 
	C316.917725,9.128509 310.719879,8.344543 304.262024,7.272594 
	C310.229828,7.751698 316.457733,8.518786 322.900574,9.599174 
z"/>
<path fill="#599D82" opacity="1.000000" stroke="none" 
	d="
M488.998230,116.619080 
	C485.727203,112.850342 482.380035,108.746628 479.055267,104.266937 
	C482.359131,108.022003 485.640564,112.153061 488.998230,116.619080 
z"/>
<path fill="#599D82" opacity="1.000000" stroke="none" 
	d="
M339.948914,13.583393 
	C334.570801,12.762157 329.015991,11.620069 323.245911,10.168852 
	C328.611176,10.993997 334.191650,12.128268 339.948914,13.583393 
z"/>
<path fill="#599D82" opacity="1.000000" stroke="none" 
	d="
M506.352234,415.968292 
	C508.483704,411.144135 510.890442,406.113342 513.657959,401.046692 
	C511.554932,405.927765 509.091217,410.844727 506.352234,415.968292 
z"/>
<path fill="#599D82" opacity="1.000000" stroke="none" 
	d="
M511.968445,154.634476 
	C506.745697,152.832230 506.431885,147.746597 505.134460,142.842133 
	C507.426544,146.370117 509.674408,150.323975 511.968445,154.634476 
z"/>
<path fill="#599D82" opacity="1.000000" stroke="none" 
	d="
M469.299957,467.852234 
	C472.159698,464.030975 475.315948,460.057831 478.831848,456.082733 
	C475.993164,459.953979 472.794800,463.827148 469.299957,467.852234 
z"/>
<path fill="#5C9F84" opacity="1.000000" stroke="none" 
	d="
M76.868713,465.425232 
	C80.165268,468.500305 83.578827,471.895477 86.988800,475.657837 
	C83.652054,472.598450 80.318878,469.171906 76.868713,465.425232 
z"/>
<path fill="#599D82" opacity="1.000000" stroke="none" 
	d="
M489.358459,442.923492 
	C491.527374,439.100159 493.983002,435.101807 496.803741,431.110748 
	C494.660950,434.994843 492.153076,438.871674 489.358459,442.923492 
z"/>
<path fill="#599D82" opacity="1.000000" stroke="none" 
	d="
M398.257202,36.568504 
	C392.857147,37.257732 389.425385,33.124184 385.173096,30.124069 
	C389.384033,31.956358 393.705444,34.122261 398.257202,36.568504 
z"/>
<path fill="#5A9E82" opacity="1.000000" stroke="none" 
	d="
M85.683174,85.105911 
	C83.179314,88.279037 80.373093,91.593460 77.209244,94.902771 
	C79.694679,91.680847 82.537743,88.464027 85.683174,85.105911 
z"/>
<path fill="#5C9F84" opacity="1.000000" stroke="none" 
	d="
M34.214737,401.301971 
	C36.434612,405.072479 38.702740,409.196167 40.952240,413.704407 
	C38.710072,409.944366 36.486530,405.799774 34.214737,401.301971 
z"/>
<path fill="#599D82" opacity="1.000000" stroke="none" 
	d="
M525.433350,373.293304 
	C525.743408,369.284363 524.611023,364.550751 528.877563,361.177429 
	C528.087646,365.138062 526.903442,369.086029 525.433350,373.293304 
z"/>
<path fill="#5C9F84" opacity="1.000000" stroke="none" 
	d="
M121.045509,505.381348 
	C124.235237,507.171051 127.582550,509.258148 130.958176,511.700928 
	C127.725349,509.930634 124.464226,507.804688 121.045509,505.381348 
z"/>
<path fill="#599D82" opacity="1.000000" stroke="none" 
	d="
M127.658737,50.062389 
	C125.095657,52.288113 122.197906,54.588707 118.907959,56.865608 
	C121.451859,54.607025 124.387970,52.372143 127.658737,50.062389 
z"/>
<path fill="#599D82" opacity="1.000000" stroke="none" 
	d="
M302.912231,6.640688 
	C298.498260,6.596207 293.853577,6.252826 289.106201,5.526902 
	C293.562805,5.543501 298.122162,5.942644 302.912231,6.640688 
z"/>
<path fill="#5A9E82" opacity="1.000000" stroke="none" 
	d="
M8.167524,264.622650 
	C8.003501,265.001221 7.559919,264.999390 7.338170,264.998871 
	C7.082067,264.543976 7.047712,264.089569 7.236076,263.218689 
	C7.661533,262.488708 7.587661,262.234192 7.237179,262.038605 
	C7.465189,258.976440 7.693199,255.914291 8.021008,252.443176 
	C8.191053,256.104187 8.261300,260.174133 8.167524,264.622650 
z"/>
<path fill="#5C9F84" opacity="1.000000" stroke="none" 
	d="
M93.749527,482.736969 
	C96.058632,484.435730 98.481522,486.433960 100.900330,488.790100 
	C98.551926,487.110840 96.207619,485.073639 93.749527,482.736969 
z"/>
<path fill="#5A9E82" opacity="1.000000" stroke="none" 
	d="
M76.594482,95.010361 
	C75.112778,97.208412 73.331894,99.553566 71.186859,101.885910 
	C72.646904,99.634560 74.471107,97.396011 76.594482,95.010361 
z"/>
<path fill="#5C9F84" opacity="1.000000" stroke="none" 
	d="
M101.010620,489.407990 
	C103.215591,490.877502 105.567902,492.646027 107.932121,494.773468 
	C105.682014,493.323944 103.419983,491.515472 101.010620,489.407990 
z"/>
<path fill="#599D82" opacity="1.000000" stroke="none" 
	d="
M424.038788,52.515816 
	C421.835907,51.394871 419.469208,49.983837 417.104675,48.206902 
	C419.362854,49.302578 421.618927,50.764156 424.038788,52.515816 
z"/>
<path fill="#5C9F84" opacity="1.000000" stroke="none" 
	d="
M40.948505,414.404053 
	C42.392570,416.274200 43.879650,418.489197 45.092079,420.888245 
	C43.542126,418.964508 42.266823,416.856720 40.948505,414.404053 
z"/>
<path fill="#599D82" opacity="1.000000" stroke="none" 
	d="
M484.686401,449.213898 
	C485.722687,447.256378 487.052979,445.171631 488.743958,443.076294 
	C487.729919,445.072693 486.355164,447.079681 484.686401,449.213898 
z"/>
<path fill="#5A9E82" opacity="1.000000" stroke="none" 
	d="
M92.301064,78.733734 
	C90.972130,80.421761 89.336624,82.205276 87.328735,83.985565 
	C88.635719,82.264633 90.315109,80.546921 92.301064,78.733734 
z"/>
<path fill="#599D82" opacity="1.000000" stroke="none" 
	d="
M474.093201,97.599716 
	C472.467987,96.186981 470.737396,94.456749 469.006653,92.356934 
	C470.666901,93.752296 472.327393,95.517258 474.093201,97.599716 
z"/>
<path fill="#5C9F84" opacity="1.000000" stroke="none" 
	d="
M69.935898,457.385956 
	C71.546936,458.836548 73.260902,460.605713 74.959541,462.751831 
	C73.309082,461.320679 71.673958,459.512573 69.935898,457.385956 
z"/>
<path fill="#599D82" opacity="1.000000" stroke="none" 
	d="
M497.406677,430.971924 
	C496.720825,428.351868 497.239716,426.043732 500.689697,425.062988 
	C499.935333,426.957642 498.812500,428.877502 497.406677,430.971924 
z"/>
<path fill="#5A9E82" opacity="1.000000" stroke="none" 
	d="
M52.668121,126.112213 
	C51.769596,128.181473 50.591373,130.439194 49.053230,132.761261 
	C49.925014,130.650635 51.156719,128.475662 52.668121,126.112213 
z"/>
<path fill="#5C9F84" opacity="1.000000" stroke="none" 
	d="
M48.688454,427.598907 
	C50.081928,429.283752 51.528641,431.308105 52.958427,433.706482 
	C51.541565,432.033173 50.141628,429.985779 48.688454,427.598907 
z"/>
<path fill="#599D82" opacity="1.000000" stroke="none" 
	d="
M416.970764,47.593670 
	C414.864502,46.721535 412.587799,45.555309 410.265137,44.022877 
	C412.412872,44.870975 414.606628,46.085274 416.970764,47.593670 
z"/>
<path fill="#599D82" opacity="1.000000" stroke="none" 
	d="
M179.491043,22.718777 
	C177.667450,23.772675 175.470169,24.845297 172.857269,25.880228 
	C174.666885,24.807524 176.892120,23.772511 179.491043,22.718777 
z"/>
<path fill="#5C9F84" opacity="1.000000" stroke="none" 
	d="
M87.106888,476.315063 
	C88.575867,477.226929 90.176704,478.439056 91.641716,480.024536 
	C90.083504,479.136993 88.661125,477.876129 87.106888,476.315063 
z"/>
<path fill="#599D82" opacity="1.000000" stroke="none" 
	d="
M432.139496,58.437962 
	C430.549194,57.663876 428.821625,56.595547 427.089966,55.158802 
	C428.724640,55.908165 430.363434,57.025944 432.139496,58.437962 
z"/>
<path fill="#599D82" opacity="1.000000" stroke="none" 
	d="
M444.891449,68.693626 
	C443.390808,67.857849 441.742645,66.728844 440.091187,65.232666 
	C441.639893,66.043793 443.191925,67.222092 444.891449,68.693626 
z"/>
<path fill="#5A9E82" opacity="1.000000" stroke="none" 
	d="
M70.574539,101.990776 
	C69.757080,103.529854 68.645508,105.218857 67.160316,106.910149 
	C67.951279,105.321861 69.115845,103.731277 70.574539,101.990776 
z"/>
<path fill="#5C9F84" opacity="1.000000" stroke="none" 
	d="
M155.086533,526.365112 
	C156.822464,526.885071 158.757401,527.681030 160.822403,528.808472 
	C159.063492,528.307007 157.174515,527.474060 155.086533,526.365112 
z"/>
<path fill="#5A9E82" opacity="1.000000" stroke="none" 
	d="
M98.620285,72.937698 
	C97.770493,74.172798 96.606575,75.510330 95.071289,76.783142 
	C95.902008,75.492325 97.104088,74.266228 98.620285,72.937698 
z"/>
<path fill="#599D82" opacity="1.000000" stroke="none" 
	d="
M462.371033,475.047455 
	C463.160522,473.799683 464.245392,472.412872 465.721558,471.036133 
	C464.963989,472.333618 463.815216,473.621033 462.371033,475.047455 
z"/>
<path fill="#5C9F84" opacity="1.000000" stroke="none" 
	d="
M45.987762,423.354401 
	C46.911877,424.195862 47.888657,425.365784 48.758392,426.919373 
	C47.781044,426.096313 46.910740,424.889587 45.987762,423.354401 
z"/>
<path fill="#599D82" opacity="1.000000" stroke="none" 
	d="
M505.001465,141.660965 
	C504.038208,140.555283 503.033173,139.114578 502.043701,137.299774 
	C503.026062,138.392441 503.992859,139.859192 505.001465,141.660965 
z"/>
<path fill="#5C9F84" opacity="1.000000" stroke="none" 
	d="
M65.937347,452.413849 
	C66.898872,453.179443 67.940994,454.255737 68.974091,455.707855 
	C67.982689,454.963989 67.000313,453.844269 65.937347,452.413849 
z"/>
<path fill="#5C9F84" opacity="1.000000" stroke="none" 
	d="
M62.858883,448.407227 
	C63.822803,449.184784 64.887794,450.272858 65.922226,451.745911 
	C64.914421,450.993195 63.937187,449.855469 62.858883,448.407227 
z"/>
<path fill="#5A9E82" opacity="1.000000" stroke="none" 
	d="
M62.642399,112.052986 
	C62.163960,113.233894 61.401230,114.569748 60.269005,115.922028 
	C60.719040,114.694946 61.538574,113.451439 62.642399,112.052986 
z"/>
<path fill="#5A9E82" opacity="1.000000" stroke="none" 
	d="
M59.648552,116.061844 
	C59.180454,117.244308 58.428486,118.583916 57.311546,119.959732 
	C57.752605,118.736969 58.558643,117.477982 59.648552,116.061844 
z"/>
<path fill="#599D82" opacity="1.000000" stroke="none" 
	d="
M111.634483,61.946297 
	C110.864845,62.904816 109.781883,63.945782 108.324829,64.983078 
	C109.074211,63.995853 110.197685,63.012295 111.634483,61.946297 
z"/>
<path fill="#599D82" opacity="1.000000" stroke="none" 
	d="
M170.436981,26.632046 
	C169.383286,27.390732 167.976868,28.160629 166.191315,28.874363 
	C167.236206,28.093218 168.660233,27.368238 170.436981,26.632046 
z"/>
<path fill="#599D82" opacity="1.000000" stroke="none" 
	d="
M501.312561,424.865082 
	C501.538361,423.807129 502.033997,422.556915 502.876282,421.202332 
	C502.676086,422.289612 502.129242,423.481201 501.312561,424.865082 
z"/>
<path fill="#599D82" opacity="1.000000" stroke="none" 
	d="
M408.921478,42.643173 
	C407.841095,42.420006 406.578613,41.917847 405.243683,41.051746 
	C406.360626,41.246597 407.549988,41.805389 408.921478,42.643173 
z"/>
<path fill="#599D82" opacity="1.000000" stroke="none" 
	d="
M457.089264,79.622383 
	C456.165588,79.163834 455.098663,78.418861 454.037903,77.281593 
	C455.011353,77.704857 455.978699,78.520409 457.089264,79.622383 
z"/>
<path fill="#5C9F84" opacity="1.000000" stroke="none" 
	d="
M54.639675,436.628510 
	C55.390251,437.316193 56.185406,438.324921 56.964478,439.701416 
	C56.193684,439.029327 55.438969,437.989441 54.639675,436.628510 
z"/>
<path fill="#5A9E82" opacity="1.000000" stroke="none" 
	d="
M47.655197,134.063629 
	C47.512592,134.893341 47.103622,135.890854 46.342888,136.942017 
	C46.457031,136.074265 46.922928,135.152863 47.655197,134.063629 
z"/>
<path fill="#599D82" opacity="1.000000" stroke="none" 
	d="
M491.082733,119.602051 
	C490.434570,119.161781 489.730804,118.412323 489.038635,117.295059 
	C489.709229,117.715782 490.368195,118.504318 491.082733,119.602051 
z"/>
<path fill="#599D82" opacity="1.000000" stroke="none" 
	d="
M403.168762,39.318558 
	C402.306580,39.179424 401.290710,38.760162 400.192841,37.982544 
	C401.078949,38.095596 402.046997,38.567017 403.168762,39.318558 
z"/>
<path fill="#599D82" opacity="1.000000" stroke="none" 
	d="
M115.624573,58.891449 
	C115.199272,59.541622 114.468422,60.265167 113.372910,60.993397 
	C113.778503,60.320328 114.548759,59.642578 115.624573,58.891449 
z"/>
<path fill="#5A9E82" opacity="1.000000" stroke="none" 
	d="
M44.338257,139.831757 
	C44.226353,140.687988 43.832645,141.693054 43.088032,142.783676 
	C43.176903,141.906342 43.616680,140.943466 44.338257,139.831757 
z"/>
<path fill="#5C9F84" opacity="1.000000" stroke="none" 
	d="
M56.976990,440.352112 
	C57.617943,440.791321 58.306431,441.538086 58.995731,442.642883 
	C58.339203,442.220520 57.681862,441.440094 56.976990,440.352112 
z"/>
<path fill="#599D82" opacity="1.000000" stroke="none" 
	d="
M502.037079,136.631653 
	C501.406464,136.157455 500.732910,135.368881 500.100311,134.208099 
	C500.758881,134.663010 501.376526,135.490143 502.037079,136.631653 
z"/>
<path fill="#5C9F84" opacity="1.000000" stroke="none" 
	d="
M59.893436,444.384460 
	C60.543056,444.833649 61.259865,445.594177 61.967896,446.727478 
	C61.292953,446.298737 60.626789,445.497253 59.893436,444.384460 
z"/>
<path fill="#599D82" opacity="1.000000" stroke="none" 
	d="
M499.037903,131.640167 
	C498.397797,131.176910 497.719574,130.398071 497.065063,129.250992 
	C497.725739,129.696701 498.362762,130.510651 499.037903,131.640167 
z"/>
<path fill="#599D82" opacity="1.000000" stroke="none" 
	d="
M160.633499,30.969423 
	C160.060104,31.596769 159.145584,32.254395 157.821823,32.871323 
	C158.372513,32.220314 159.332443,31.610008 160.633499,30.969423 
z"/>
<path fill="#5C9F84" opacity="1.000000" stroke="none" 
	d="
M139.074615,517.333069 
	C139.902695,517.472900 140.894531,517.881226 141.940552,518.638428 
	C141.075943,518.525330 140.157166,518.063416 139.074615,517.333069 
z"/>
<path fill="#599D82" opacity="1.000000" stroke="none" 
	d="
M132.606430,46.849396 
	C132.148026,47.502724 131.376694,48.222534 130.224274,48.904984 
	C130.659958,48.217041 131.476746,47.566460 132.606430,46.849396 
z"/>
<path fill="#5C9F84" opacity="1.000000" stroke="none" 
	d="
M135.943390,515.369995 
	C136.798904,515.518860 137.833466,515.937439 138.906219,516.725220 
	C138.003754,516.609558 137.063095,516.124695 135.943390,515.369995 
z"/>
<path fill="#599D82" opacity="1.000000" stroke="none" 
	d="
M495.146057,125.597351 
	C494.488922,125.126175 493.767426,124.337173 493.069092,123.163345 
	C493.755402,123.612198 494.418549,124.445869 495.146057,125.597351 
z"/>
<path fill="#5A9E82" opacity="1.000000" stroke="none" 
	d="
M54.679222,123.090096 
	C54.507862,123.908829 54.071899,124.895790 53.278625,125.918861 
	C53.419083,125.056091 53.916855,124.157204 54.679222,123.090096 
z"/>
<path fill="#5A9E82" opacity="1.000000" stroke="none" 
	d="
M56.510212,120.548088 
	C56.423126,121.208679 56.045116,122.031746 55.292828,122.902969 
	C55.352131,122.204262 55.785709,121.457413 56.510212,120.548088 
z"/>
<path fill="#5C9F84" opacity="1.000000" stroke="none" 
	d="
M131.558289,512.496094 
	C132.208359,512.576172 133.034836,512.934753 133.923645,513.661621 
	C133.235565,513.611511 132.485123,513.193054 131.558289,512.496094 
z"/>
<path fill="#599D82" opacity="1.000000" stroke="none" 
	d="
M436.159851,61.475937 
	C435.549194,61.381165 434.828522,61.005009 434.072327,60.283333 
	C434.707825,60.356728 435.378815,60.775642 436.159851,61.475937 
z"/>
<path fill="#5A9E82" opacity="1.000000" stroke="none" 
	d="
M64.432281,109.818497 
	C64.339081,110.430862 63.967335,111.157722 63.243122,111.909241 
	C63.311684,111.266930 63.732708,110.599960 64.432281,109.818497 
z"/>
<path fill="#5C9F84" opacity="1.000000" stroke="none" 
	d="
M118.776192,503.657013 
	C119.398911,503.724182 120.137665,504.066193 120.900124,504.764679 
	C120.246620,504.724731 119.569420,504.328308 118.776192,503.657013 
z"/>
<path fill="#599D82" opacity="1.000000" stroke="none" 
	d="
M448.148956,71.490913 
	C447.540527,71.372261 446.823059,70.968788 446.077972,70.213699 
	C446.713562,70.310081 447.376709,70.758087 448.148956,71.490913 
z"/>
<path fill="#599D82" opacity="1.000000" stroke="none" 
	d="
M481.567200,453.195435 
	C481.665344,452.573364 482.049652,451.848297 482.790344,451.108734 
	C482.715576,451.760345 482.284454,452.426392 481.567200,453.195435 
z"/>
<path fill="#5C9F84" opacity="1.000000" stroke="none" 
	d="
M110.665802,497.447754 
	C111.290283,497.565643 112.080452,497.961884 112.916161,498.724182 
	C112.251625,498.635559 111.541557,498.180878 110.665802,497.447754 
z"/>
<path fill="#599D82" opacity="1.000000" stroke="none" 
	d="
M479.042114,103.634003 
	C478.462433,103.433830 477.807037,102.939293 477.190643,102.090744 
	C477.808563,102.271042 478.387451,102.805351 479.042114,103.634003 
z"/>
<path fill="#5C9F84" opacity="1.000000" stroke="none" 
	d="
M32.884987,398.351379 
	C33.262535,398.734711 33.647011,399.430634 34.056458,400.446106 
	C33.684925,400.065125 33.288422,399.364532 32.884987,398.351379 
z"/>
<path fill="#5C9F84" opacity="1.000000" stroke="none" 
	d="
M31.682499,395.501587 
	C32.098854,395.907196 32.535076,396.643402 32.944656,397.741455 
	C32.512802,397.346252 32.107582,396.589203 31.682499,395.501587 
z"/>
<path fill="#5A9E82" opacity="1.000000" stroke="none" 
	d="
M40.697411,146.105042 
	C40.737366,146.789764 40.526535,147.689697 39.962349,148.681473 
	C39.888210,147.955643 40.167419,147.137939 40.697411,146.105042 
z"/>
<path fill="#5C9F84" opacity="1.000000" stroke="none" 
	d="
M153.070129,525.331177 
	C153.480270,525.246521 154.068604,525.409729 154.806946,525.851868 
	C154.387390,525.946899 153.817841,525.763000 153.070129,525.331177 
z"/>
<path fill="#599D82" opacity="1.000000" stroke="none" 
	d="
M165.582306,28.754971 
	C165.414917,29.120560 164.933990,29.497433 164.117966,29.820370 
	C164.278152,29.433043 164.773468,29.099651 165.582306,28.754971 
z"/>
<path fill="#599D82" opacity="1.000000" stroke="none" 
	d="
M480.299347,454.916962 
	C480.253540,454.488647 480.472382,453.914581 481.005371,453.257233 
	C481.067657,453.706360 480.815826,454.238770 480.299347,454.916962 
z"/>
<path fill="#5A9E82" opacity="1.000000" stroke="none" 
	d="
M65.687012,108.046463 
	C65.737106,108.477570 65.524574,109.063576 64.993660,109.735779 
	C64.924980,109.281769 65.174683,108.741562 65.687012,108.046463 
z"/>
<path fill="#599D82" opacity="1.000000" stroke="none" 
	d="
M477.238037,101.558434 
	C476.874664,101.446716 476.464203,101.041275 476.025696,100.323410 
	C476.395447,100.428886 476.793213,100.846794 477.238037,101.558434 
z"/>
<path fill="#599D82" opacity="1.000000" stroke="none" 
	d="
M483.368958,450.991272 
	C483.307251,450.540680 483.515228,449.950226 484.054016,449.305054 
	C484.136139,449.784027 483.887390,450.317749 483.368958,450.991272 
z"/>
<path fill="#5C9F84" opacity="1.000000" stroke="none" 
	d="
M147.970398,522.447815 
	C148.422073,522.340515 149.032425,522.499329 149.752991,522.974243 
	C149.285172,523.098145 148.707123,522.906067 147.970398,522.447815 
z"/>
<path fill="#599D82" opacity="1.000000" stroke="none" 
	d="
M500.167816,133.620972 
	C499.820312,133.469696 499.442047,133.016296 499.057129,132.244446 
	C499.412628,132.390289 499.774841,132.854584 500.167816,133.620972 
z"/>
<path fill="#5C9F84" opacity="1.000000" stroke="none" 
	d="
M146.023132,521.385620 
	C146.455688,521.296631 147.054108,521.466064 147.774597,521.939209 
	C147.327454,522.043274 146.758224,521.843628 146.023132,521.385620 
z"/>
<path fill="#599D82" opacity="1.000000" stroke="none" 
	d="
M156.712097,32.913246 
	C156.534103,33.242661 156.048370,33.589638 155.246048,33.940586 
	C155.421097,33.606644 155.912735,33.268726 156.712097,32.913246 
z"/>
<path fill="#599D82" opacity="1.000000" stroke="none" 
	d="
M492.446960,121.573807 
	C492.073639,121.445152 491.592468,121.014709 491.101318,120.230255 
	C491.507294,120.341507 491.923218,120.806763 492.446960,121.573807 
z"/>
<path fill="#5A9E82" opacity="1.000000" stroke="none" 
	d="
M45.566628,137.663086 
	C45.672787,138.149490 45.508675,138.853699 44.986149,139.678665 
	C44.850613,139.159912 45.073486,138.520401 45.566628,137.663086 
z"/>
<path fill="#5A9E82" opacity="1.000000" stroke="none" 
	d="
M42.537636,142.970230 
	C42.587471,143.434799 42.362926,144.068146 41.788376,144.792755 
	C41.713333,144.302353 41.988293,143.720688 42.537636,142.970230 
z"/>
<path fill="#599D82" opacity="1.000000" stroke="none" 
	d="
M425.867798,53.732471 
	C425.462250,53.771400 424.894409,53.558846 424.219177,53.047352 
	C424.643036,52.992607 425.174286,53.236797 425.867798,53.732471 
z"/>
<path fill="#599D82" opacity="1.000000" stroke="none" 
	d="
M433.912720,59.696732 
	C433.486450,59.744350 432.911926,59.529545 432.250854,59.002392 
	C432.697723,58.938129 433.231079,59.186218 433.912720,59.696732 
z"/>
<path fill="#599D82" opacity="1.000000" stroke="none" 
	d="
M504.498138,419.049316 
	C504.440460,418.576721 504.660156,417.935852 505.234863,417.204041 
	C505.318390,417.702393 505.046936,418.291718 504.498138,419.049316 
z"/>
<path fill="#599D82" opacity="1.000000" stroke="none" 
	d="
M503.422089,421.014374 
	C503.326202,420.567200 503.494995,419.959625 503.980560,419.244934 
	C504.093811,419.709839 503.890289,420.281921 503.422089,421.014374 
z"/>
<path fill="#5C9F84" opacity="1.000000" stroke="none" 
	d="
M144.083282,520.315674 
	C144.497604,520.241821 145.079407,520.422363 145.796173,520.889954 
	C145.371017,520.974731 144.810883,520.772461 144.083282,520.315674 
z"/>
<path fill="#5A9E82" opacity="1.000000" stroke="none" 
	d="
M39.368397,148.895935 
	C39.510426,149.367920 39.394413,149.993210 38.933937,150.681274 
	C38.763100,150.179123 38.936729,149.614182 39.368397,148.895935 
z"/>
<path fill="#599D82" opacity="1.000000" stroke="none" 
	d="
M405.080841,40.485931 
	C404.612213,40.594067 403.994385,40.436768 403.316162,39.939178 
	C403.814362,39.806091 404.373016,40.013294 405.080841,40.485931 
z"/>
<path fill="#599D82" opacity="1.000000" stroke="none" 
	d="
M438.909485,63.703667 
	C438.480103,63.744003 437.909943,63.519436 437.271118,62.976959 
	C437.724548,62.918961 438.246674,63.178864 438.909485,63.703667 
z"/>
<path fill="#5C9F84" opacity="1.000000" stroke="none" 
	d="
M117.033661,502.344971 
	C117.475121,502.294922 118.056503,502.510223 118.690605,503.053009 
	C118.220078,503.123779 117.696823,502.867096 117.033661,502.344971 
z"/>
<path fill="#5C9F84" opacity="1.000000" stroke="none" 
	d="
M115.898872,501.377228 
	C116.113327,501.285583 116.426109,501.449066 116.844040,501.863831 
	C116.631859,501.954193 116.314529,501.793274 115.898872,501.377228 
z"/>
<path fill="#5C9F84" opacity="1.000000" stroke="none" 
	d="
M142.638824,519.403687 
	C142.853516,519.280334 143.245224,519.415649 143.802551,519.820801 
	C143.584061,519.947815 143.199951,519.805115 142.638824,519.403687 
z"/>
<path fill="#5C9F84" opacity="1.000000" stroke="none" 
	d="
M114.603355,500.422363 
	C114.831551,500.306122 115.229256,500.458649 115.769745,500.906494 
	C115.532631,501.031586 115.152748,500.861389 114.603355,500.422363 
z"/>
<path fill="#5C9F84" opacity="1.000000" stroke="none" 
	d="
M149.875458,523.429321 
	C150.090759,523.308655 150.417404,523.441772 150.875137,523.813354 
	C150.666412,523.928894 150.326599,523.806030 149.875458,523.429321 
z"/>
<path fill="#5C9F84" opacity="1.000000" stroke="none" 
	d="
M151.594116,524.421143 
	C151.816849,524.290710 152.219482,524.427124 152.791138,524.841187 
	C152.564789,524.975159 152.169388,524.831604 151.594116,524.421143 
z"/>
<path fill="#599D82" opacity="1.000000" stroke="none" 
	d="
M171.727386,25.935371 
	C171.769073,26.182138 171.526672,26.451796 171.002441,26.737093 
	C170.961502,26.487907 171.202377,26.223083 171.727386,25.935371 
z"/>
<path fill="#5A9E82" opacity="1.000000" stroke="none" 
	d="
M93.446182,77.732117 
	C93.560684,78.000801 93.410088,78.338524 92.961716,78.699173 
	C92.836334,78.415123 93.008705,78.108147 93.446182,77.732117 
z"/>
<path fill="#599D82" opacity="1.000000" stroke="none" 
	d="
M135.642715,44.933918 
	C135.665756,45.177261 135.374268,45.476231 134.760834,45.824028 
	C134.735321,45.578423 135.031754,45.283981 135.642715,44.933918 
z"/>
<path fill="#599D82" opacity="1.000000" stroke="none" 
	d="
M449.181946,72.550591 
	C448.940216,72.647766 448.614471,72.478310 448.222168,72.027992 
	C448.469727,71.926071 448.783844,72.105011 449.181946,72.550591 
z"/>
<path fill="#599D82" opacity="1.000000" stroke="none" 
	d="
M104.582047,67.852028 
	C104.629997,68.098061 104.377937,68.427422 103.806183,68.815948 
	C103.751671,68.561852 104.016853,68.248604 104.582047,67.852028 
z"/>
<path fill="#599D82" opacity="1.000000" stroke="none" 
	d="
M105.656868,66.873825 
	C105.725578,67.094017 105.525986,67.405685 105.048447,67.791977 
	C104.976524,67.566170 105.182549,67.265732 105.656868,66.873825 
z"/>
<path fill="#599D82" opacity="1.000000" stroke="none" 
	d="
M497.057922,128.644287 
	C496.824829,128.663956 496.524048,128.372726 496.174011,127.758629 
	C496.413239,127.734970 496.701721,128.034180 497.057922,128.644287 
z"/>
<path fill="#599D82" opacity="1.000000" stroke="none" 
	d="
M440.031158,64.691940 
	C439.834991,64.766441 439.538635,64.594276 439.131165,64.184479 
	C439.323700,64.112991 439.627350,64.279129 440.031158,64.691940 
z"/>
<path fill="#5A9E82" opacity="1.000000" stroke="none" 
	d="
M48.560158,132.853912 
	C48.674091,133.076294 48.532299,133.402634 48.138466,133.841125 
	C48.025761,133.621460 48.165092,133.289658 48.560158,132.853912 
z"/>
<path fill="#599D82" opacity="1.000000" stroke="none" 
	d="
M437.218323,62.500244 
	C436.965424,62.612740 436.630890,62.457581 436.232239,62.017456 
	C436.490967,61.899189 436.813843,62.065891 437.218323,62.500244 
z"/>
<path fill="#5C9F84" opacity="1.000000" stroke="none" 
	d="
M7.159738,262.267883 
	C7.587661,262.234192 7.661533,262.488708 7.321651,262.886169 
	C7.184506,262.970184 7.082296,262.497131 7.159738,262.267883 
z"/>
<path fill="#599D82" opacity="1.000000" stroke="none" 
	d="
M129.613129,48.887047 
	C129.642426,49.139503 129.350586,49.452576 128.727829,49.814430 
	C128.695267,49.558029 128.993622,49.252842 129.613129,48.887047 
z"/>
<path fill="#5C9F84" opacity="1.000000" stroke="none" 
	d="
M92.715836,481.596680 
	C92.985741,481.477753 93.325035,481.615936 93.673325,482.053284 
	C93.383278,482.186218 93.084259,482.019989 92.715836,481.596680 
z"/>
<path fill="#599D82" opacity="1.000000" stroke="none" 
	d="
M450.426147,73.574966 
	C450.184296,73.692482 449.783630,73.527771 449.257080,73.052979 
	C449.509918,72.926178 449.888611,73.109467 450.426147,73.574966 
z"/>
<path fill="#599D82" opacity="1.000000" stroke="none" 
	d="
M410.170807,43.515152 
	C409.943298,43.644379 409.610657,43.517120 409.161621,43.138443 
	C409.385345,43.010906 409.725525,43.134785 410.170807,43.515152 
z"/>
<path fill="#5C9F84" opacity="1.000000" stroke="none" 
	d="
M52.968044,434.306549 
	C53.193310,434.252258 53.471855,434.466858 53.806671,434.948181 
	C53.582405,435.001709 53.301865,434.788574 52.968044,434.306549 
z"/>
<path fill="#5C9F84" opacity="1.000000" stroke="none" 
	d="
M53.822929,435.404572 
	C54.073116,435.336639 54.379150,435.537598 54.691460,436.028717 
	C54.424747,436.103760 54.151764,435.888611 53.822929,435.404572 
z"/>
<path fill="#599D82" opacity="1.000000" stroke="none" 
	d="
M163.561615,29.696985 
	C163.587845,29.893242 163.398605,30.105570 163.105682,30.146168 
	C163.001999,29.974438 163.346130,29.713058 163.561615,29.696985 
z"/>
<path fill="#599D82" opacity="1.000000" stroke="none" 
	d="
M382.866455,28.714432 
	C382.756134,28.898993 382.496674,28.960171 382.283691,28.803417 
	C382.330170,28.585485 382.717285,28.591053 382.866455,28.714432 
z"/>
<path fill="#5A9E82" opacity="1.000000" stroke="none" 
	d="
M94.524323,76.772484 
	C94.617302,77.032593 94.440910,77.357986 93.969894,77.704132 
	C93.868507,77.429176 94.061737,77.133476 94.524323,76.772484 
z"/>
<path fill="#5C9F84" opacity="1.000000" stroke="none" 
	d="
M91.701439,480.634949 
	C91.973549,480.507416 92.316093,480.633392 92.666328,481.059937 
	C92.373306,481.203125 92.072586,481.045807 91.701439,480.634949 
z"/>
<path fill="#FDFFFE" opacity="1.000000" stroke="none" 
	d="
M339.042480,35.863235 
	C363.963745,43.685902 387.519958,54.355915 409.036133,69.312965 
	C464.710754,108.015480 499.885773,160.890533 513.376282,226.906219 
	C529.557251,306.087708 512.565552,378.702698 461.726410,441.877991 
	C421.375549,492.019989 368.708801,522.257568 304.494324,531.074341 
	C259.783447,537.213196 216.662415,530.778809 176.016113,511.415192 
	C100.827324,475.595856 53.375561,416.509216 35.350819,335.393860 
	C18.373587,258.992584 34.025047,188.218613 80.704926,125.492775 
	C120.507919,72.007721 174.251541,39.764862 240.373718,29.348341 
	C269.773315,24.716896 299.134369,26.555479 328.809509,33.260986 
	C329.760468,33.313751 330.075500,33.228527 330.592896,33.437935 
	C331.710358,33.928181 332.625488,34.123798 333.832703,34.536942 
	C335.764008,35.124054 337.403259,35.493645 339.042480,35.863235 
M330.657959,131.120056 
	C335.172394,131.748489 331.706573,133.795700 331.001740,134.497910 
	C322.763641,142.705322 315.261353,152.015915 305.867981,158.622665 
	C286.701477,172.103195 266.503815,184.118622 246.718674,196.718323 
	C227.719543,208.817429 208.985046,221.247223 194.515198,238.935043 
	C181.128052,255.299377 174.648941,273.786560 177.645462,295.064972 
	C181.787704,324.479156 199.373764,345.574463 220.831635,364.144409 
	C224.804306,367.582458 230.830078,366.909210 234.630264,363.487823 
	C238.266708,360.213867 239.421921,353.981323 236.849960,349.738770 
	C235.665527,347.784973 233.933395,346.113586 232.257721,344.515350 
	C222.576202,335.281281 213.588531,325.501221 207.100662,313.660736 
	C195.214325,291.967987 196.450134,271.086243 212.759750,252.581375 
	C221.470795,242.697830 232.448471,234.799728 242.506653,226.125549 
	C244.666946,224.262543 247.273468,222.916992 249.453842,221.478577 
	C258.356323,260.813141 267.142883,299.635620 276.065277,339.058167 
	C281.242706,335.908020 286.030884,332.617462 291.161041,329.996155 
	C295.065033,328.001343 295.714661,325.291748 294.877777,321.469330 
	C293.277985,314.162506 291.858307,306.816437 290.289459,299.502594 
	C284.119598,270.739197 277.991760,241.966339 271.647156,213.241425 
	C270.808533,209.444519 271.783600,207.656830 275.079224,205.724319 
	C297.648956,192.489822 320.078888,179.022400 338.579376,160.101807 
	C358.813690,139.408020 371.162994,115.282478 371.096588,85.722557 
	C371.080078,78.365364 366.784180,73.320267 360.439880,73.185379 
	C353.809814,73.044411 349.410187,78.097580 348.822357,85.560051 
	C348.302002,92.166016 347.196808,98.741119 346.005463,105.266975 
	C345.747772,106.678497 344.019104,107.821472 342.047058,108.934059 
	C324.608246,108.921906 307.168915,108.976105 289.731110,108.836662 
	C286.577332,108.811440 285.044159,109.826302 284.842102,113.592026 
	C284.792023,114.018196 284.741974,114.444359 284.192200,115.455269 
	C283.495178,119.495300 282.790009,123.533943 282.104309,127.575890 
	C281.719879,129.842026 281.871490,131.670181 285.669952,131.026810 
	C286.126007,130.979996 286.582092,130.933197 287.957062,131.050751 
	C298.631134,131.020950 309.305176,130.991150 320.730408,131.114807 
	C321.491821,131.065918 322.253265,131.017044 323.876465,131.117157 
	C325.911957,131.064148 327.947479,131.011139 330.657959,131.120056 
M262.290955,448.406036 
	C262.221558,448.014923 262.152161,447.623810 262.592377,446.989685 
	C262.732422,446.663605 262.872467,446.337494 263.332977,445.299683 
	C264.371826,440.043854 265.410706,434.788025 266.614594,428.697174 
	C248.786926,428.697174 232.135986,428.697174 214.568680,428.697174 
	C232.071533,405.082855 255.538483,390.904388 279.620697,376.358887 
	C280.960083,398.231628 280.659393,418.939636 276.253082,439.185730 
	C272.943756,454.391449 267.916473,469.244202 263.234650,484.122131 
	C260.642578,492.359253 264.016296,499.382019 272.079041,500.784302 
	C277.629089,501.749603 281.877350,498.606384 284.757629,491.233246 
	C300.314423,451.409546 305.059601,410.084381 301.528564,367.692017 
	C301.222626,364.018738 302.240814,362.432220 305.183655,360.700256 
	C321.901642,350.860992 337.507538,339.570587 350.510529,324.983185 
	C362.027252,312.063110 370.088074,297.297180 370.845245,279.871368 
	C372.427246,243.461609 352.718964,217.633820 326.588684,195.674377 
	C320.087585,190.210999 310.424713,195.674881 309.919525,204.231186 
	C309.598145,209.674896 313.044769,212.916290 316.375793,216.561249 
	C323.869934,224.761581 331.893097,232.711472 338.011658,241.889465 
	C352.740265,263.982788 352.101044,287.742188 336.379913,306.732788 
	C329.861786,314.606476 322.275787,322.074738 313.866425,327.807037 
	C294.911865,340.727509 275.182709,352.517578 255.689575,364.640259 
	C238.527496,375.313293 222.099976,386.924286 208.032059,401.552338 
	C187.931412,422.453339 176.344360,446.953003 176.922928,476.462860 
	C177.042786,482.576202 181.241531,486.925690 187.118439,487.184418 
	C193.810623,487.479034 198.503387,483.536621 199.047562,477.125458 
	C199.160126,475.799164 198.956116,474.422333 199.224167,473.136841 
	C200.761490,465.764648 202.397156,458.412994 204.922165,451.232269 
	C222.529037,451.266754 240.136322,451.357452 257.742065,451.233582 
	C259.220032,451.223145 260.687836,449.770508 262.290955,448.406036 
M245.697678,164.498734 
	C245.697678,170.366684 245.697678,176.234650 245.697678,183.304718 
	C252.917480,179.201416 258.618896,175.854019 264.428040,172.705353 
	C267.268402,171.165833 268.181519,169.125870 268.116425,165.870560 
	C267.766144,148.355835 268.700623,130.862808 273.114777,113.874390 
	C276.533783,100.715942 281.148956,87.865311 285.326904,74.908318 
	C287.397095,68.487946 284.917236,62.407181 279.028503,60.007576 
	C273.345917,57.691978 267.595154,60.215321 264.723450,66.312263 
	C264.086243,67.665108 263.509613,69.048798 262.957703,70.439171 
	C251.094315,100.325294 245.206253,131.320892 245.697678,164.498734 
z"/>
<path fill="#52AB82" opacity="1.000000" stroke="none" 
	d="
M339.322144,35.604889 
	C337.403259,35.493645 335.764008,35.124054 334.069672,34.312103 
	C332.806549,33.627598 331.598511,33.385452 330.390503,33.143303 
	C330.075500,33.228527 329.760468,33.313751 329.224884,33.253334 
	C328.301605,32.351959 327.512604,31.658163 326.915955,30.826370 
	C325.957031,29.489460 324.162140,27.776367 324.468903,26.739592 
	C324.912048,25.242031 326.786713,24.009968 328.282745,23.012989 
	C332.095398,20.472221 336.036743,18.124538 339.966187,15.351475 
	C348.854218,17.819771 357.702698,20.636185 366.775879,23.724136 
	C367.559235,27.249075 366.215881,29.043648 363.179413,30.516218 
	C355.677917,34.154171 348.214569,37.380932 339.322144,35.604889 
z"/>
<path fill="#51A77F" opacity="1.000000" stroke="none" 
	d="
M203.999435,451.054352 
	C202.397156,458.412994 200.761490,465.764648 199.224167,473.136841 
	C198.956116,474.422333 199.160126,475.799164 199.047562,477.125458 
	C198.503387,483.536621 193.810623,487.479034 187.118439,487.184418 
	C181.241531,486.925690 177.042786,482.576202 176.922928,476.462860 
	C176.344360,446.953003 187.931412,422.453339 208.032059,401.552338 
	C222.099976,386.924286 238.527496,375.313293 255.689575,364.640259 
	C275.182709,352.517578 294.911865,340.727509 313.866425,327.807037 
	C322.275787,322.074738 329.861786,314.606476 336.379913,306.732788 
	C352.101044,287.742188 352.740265,263.982788 338.011658,241.889465 
	C331.893097,232.711472 323.869934,224.761581 316.375793,216.561249 
	C313.044769,212.916290 309.598145,209.674896 309.919525,204.231186 
	C310.424713,195.674881 320.087585,190.210999 326.588684,195.674377 
	C352.718964,217.633820 372.427246,243.461609 370.845245,279.871368 
	C370.088074,297.297180 362.027252,312.063110 350.510529,324.983185 
	C337.507538,339.570587 321.901642,350.860992 305.183655,360.700256 
	C302.240814,362.432220 301.222626,364.018738 301.528564,367.692017 
	C305.059601,410.084381 300.314423,451.409546 284.757629,491.233246 
	C281.877350,498.606384 277.629089,501.749603 272.079041,500.784302 
	C264.016296,499.382019 260.642578,492.359253 263.234650,484.122131 
	C267.916473,469.244202 272.943756,454.391449 276.253082,439.185730 
	C280.659393,418.939636 280.960083,398.231628 279.620697,376.358887 
	C255.538483,390.904388 232.071533,405.082855 214.568680,428.697174 
	C232.135986,428.697174 248.786926,428.697174 266.614594,428.697174 
	C265.410706,434.788025 264.371826,440.043854 262.939270,445.789917 
	C262.391296,446.597687 262.237000,446.915192 262.082733,447.232697 
	C262.152161,447.623810 262.221558,448.014923 261.789612,448.705627 
	C258.179138,449.336426 255.071930,449.931366 251.960617,449.953705 
	C237.684586,450.056244 223.407227,449.963196 209.130936,450.045105 
	C207.418564,450.054932 205.709839,450.702423 203.999435,451.054352 
z"/>
<path fill="#51A87F" opacity="1.000000" stroke="none" 
	d="
M342.967987,109.088142 
	C344.019104,107.821472 345.747772,106.678497 346.005463,105.266975 
	C347.196808,98.741119 348.302002,92.166016 348.822357,85.560051 
	C349.410187,78.097580 353.809814,73.044411 360.439880,73.185379 
	C366.784180,73.320267 371.080078,78.365364 371.096588,85.722557 
	C371.162994,115.282478 358.813690,139.408020 338.579376,160.101807 
	C320.078888,179.022400 297.648956,192.489822 275.079224,205.724319 
	C271.783600,207.656830 270.808533,209.444519 271.647156,213.241425 
	C277.991760,241.966339 284.119598,270.739197 290.289459,299.502594 
	C291.858307,306.816437 293.277985,314.162506 294.877777,321.469330 
	C295.714661,325.291748 295.065033,328.001343 291.161041,329.996155 
	C286.030884,332.617462 281.242706,335.908020 276.065277,339.058167 
	C267.142883,299.635620 258.356323,260.813141 249.453842,221.478577 
	C247.273468,222.916992 244.666946,224.262543 242.506653,226.125549 
	C232.448471,234.799728 221.470795,242.697830 212.759750,252.581375 
	C196.450134,271.086243 195.214325,291.967987 207.100662,313.660736 
	C213.588531,325.501221 222.576202,335.281281 232.257721,344.515350 
	C233.933395,346.113586 235.665527,347.784973 236.849960,349.738770 
	C239.421921,353.981323 238.266708,360.213867 234.630264,363.487823 
	C230.830078,366.909210 224.804306,367.582458 220.831635,364.144409 
	C199.373764,345.574463 181.787704,324.479156 177.645462,295.064972 
	C174.648941,273.786560 181.128052,255.299377 194.515198,238.935043 
	C208.985046,221.247223 227.719543,208.817429 246.718674,196.718323 
	C266.503815,184.118622 286.701477,172.103195 305.867981,158.622665 
	C315.261353,152.015915 322.763641,142.705322 331.001740,134.497910 
	C331.706573,133.795700 335.172394,131.748489 330.252075,130.677673 
	C327.308960,128.055511 325.033142,128.312363 323.014679,130.968170 
	C322.253265,131.017044 321.491821,131.065918 320.114563,130.740479 
	C317.620178,129.911392 315.732605,129.034500 313.864624,129.074478 
	C305.493225,129.253601 297.126678,129.678238 288.761139,130.072983 
	C288.175323,130.100616 287.611969,130.604156 287.038147,130.886398 
	C286.582092,130.933197 286.126007,130.979996 285.280090,130.556778 
	C284.820892,127.565033 284.722961,125.043694 284.690247,122.521500 
	C284.657166,119.971611 284.688660,117.420891 284.691895,114.870529 
	C284.741974,114.444359 284.792023,114.018196 285.334259,113.219437 
	C287.125092,112.234695 288.417633,111.104401 289.723358,111.088959 
	C306.399780,110.891861 323.078400,110.885422 339.755127,110.704735 
	C340.831787,110.693069 341.897278,109.650932 342.967987,109.088142 
z"/>
<path fill="#51A67F" opacity="1.000000" stroke="none" 
	d="
M245.697968,163.998932 
	C245.206253,131.320892 251.094315,100.325294 262.957703,70.439171 
	C263.509613,69.048798 264.086243,67.665108 264.723450,66.312263 
	C267.595154,60.215321 273.345917,57.691978 279.028503,60.007576 
	C284.917236,62.407181 287.397095,68.487946 285.326904,74.908318 
	C281.148956,87.865311 276.533783,100.715942 273.114777,113.874390 
	C268.700623,130.862808 267.766144,148.355835 268.116425,165.870560 
	C268.181519,169.125870 267.268402,171.165833 264.428040,172.705353 
	C258.618896,175.854019 252.917480,179.201416 245.697678,183.304718 
	C245.697678,176.234650 245.697678,170.366684 245.697968,163.998932 
z"/>
<path fill="#579C7F" opacity="1.000000" stroke="none" 
	d="
M342.507507,109.011101 
	C341.897278,109.650932 340.831787,110.693069 339.755127,110.704735 
	C323.078400,110.885422 306.399780,110.891861 289.723358,111.088959 
	C288.417633,111.104401 287.125092,112.234695 285.451904,112.919266 
	C285.044159,109.826302 286.577332,108.811440 289.731110,108.836662 
	C307.168915,108.976105 324.608246,108.921906 342.507507,109.011101 
z"/>
<path fill="#4F9677" opacity="1.000000" stroke="none" 
	d="
M204.460800,451.143311 
	C205.709839,450.702423 207.418564,450.054932 209.130936,450.045105 
	C223.407227,449.963196 237.684586,450.056244 251.960617,449.953705 
	C255.071930,449.931366 258.179138,449.336426 261.724304,448.996521 
	C260.687836,449.770508 259.220032,451.223145 257.742065,451.233582 
	C240.136322,451.357452 222.529037,451.266754 204.460800,451.143311 
z"/>
<path fill="#579C7F" opacity="1.000000" stroke="none" 
	d="
M287.497620,130.968567 
	C287.611969,130.604156 288.175323,130.100616 288.761139,130.072983 
	C297.126678,129.678238 305.493225,129.253601 313.864624,129.074478 
	C315.732605,129.034500 317.620178,129.911392 319.739014,130.663727 
	C309.305176,130.991150 298.631134,131.020950 287.497620,130.968567 
z"/>
<path fill="#579C7F" opacity="1.000000" stroke="none" 
	d="
M284.442017,115.162903 
	C284.688660,117.420891 284.657166,119.971611 284.690247,122.521500 
	C284.722961,125.043694 284.820892,127.565033 284.943634,130.476135 
	C281.871490,131.670181 281.719879,129.842026 282.104309,127.575890 
	C282.790009,123.533943 283.495178,119.495300 284.442017,115.162903 
z"/>
<path fill="#579C7F" opacity="1.000000" stroke="none" 
	d="
M323.445557,131.042664 
	C325.033142,128.312363 327.308960,128.055511 329.914581,130.596710 
	C327.947479,131.011139 325.911957,131.064148 323.445557,131.042664 
z"/>
<path fill="#51A87F" opacity="1.000000" stroke="none" 
	d="
M330.592896,33.437935 
	C331.598511,33.385452 332.806549,33.627598 333.777588,34.094578 
	C332.625488,34.123798 331.710358,33.928181 330.592896,33.437935 
z"/>
<path fill="#4F9677" opacity="1.000000" stroke="none" 
	d="
M262.337555,447.111206 
	C262.237000,446.915192 262.391296,446.597687 262.779053,446.145813 
	C262.872467,446.337494 262.732422,446.663605 262.337555,447.111206 
z"/>
</svg>