<?xml version="1.0" encoding="UTF-8"?>
<svg version="1.1" xmlns="http://www.w3.org/2000/svg" width="1024" height="1024">
<path d="M0 0 C1.76624494 -0.00115472 3.53248963 -0.0027446 5.29873383 -0.00472724 C10.11190333 -0.00887236 14.92505282 -0.00685181 19.73822236 -0.00374103 C24.94487784 -0.00146736 30.15153001 -0.00497632 35.35818481 -0.00772095 C45.54268807 -0.01215682 55.72718394 -0.01121184 65.91168748 -0.00830831 C74.19350724 -0.00604544 82.47532494 -0.00574558 90.75714493 -0.00683212 C92.52851589 -0.00706197 92.52851589 -0.00706197 94.33567212 -0.00729647 C96.73506768 -0.00761621 99.13446323 -0.00794042 101.53385879 -0.00826906 C124.00945525 -0.01111752 146.48504763 -0.00784689 168.96064343 -0.00246869 C188.22117034 0.00199761 207.48169122 0.00122362 226.74221802 -0.00338745 C249.1369757 -0.0087464 271.53172981 -0.01084167 293.92648804 -0.00777519 C296.31742803 -0.00745666 298.70836802 -0.00714229 301.09930801 -0.00683212 C302.27553029 -0.00667785 303.45175256 -0.00652357 304.66361793 -0.00636462 C312.92883124 -0.00550334 321.19404226 -0.00695398 329.45925522 -0.00931168 C339.54146884 -0.01212459 349.62367468 -0.01134006 359.70588742 -0.00603093 C364.84417817 -0.00341384 369.98245598 -0.00235487 375.12074661 -0.00568008 C379.83469068 -0.0086844 384.54860995 -0.00698217 389.2625518 -0.00170253 C390.95754921 -0.00059583 392.65254877 -0.00113012 394.34754477 -0.00357832 C408.91001439 -0.02297973 423.59003881 0.06718511 437.93704224 2.81448364 C438.85775513 2.98818481 439.77846802 3.16188599 440.7270813 3.34085083 C475.70017192 10.27299555 505.29726952 27.90369306 531.06204224 52.12698364 C531.69883911 52.70963989 532.33563599 53.29229614 532.99172974 53.89260864 C564.54837089 83.78837395 580.96358206 129.51547851 582.11825886 172.20538566 C582.20742705 177.50434422 582.19663989 182.8033755 582.18902588 188.10290527 C582.19018059 189.87327501 582.19177046 191.6436445 582.19375312 193.4140135 C582.19789838 198.23858457 582.19587763 203.06313566 582.1927669 207.88770676 C582.19049329 213.10663228 582.19400217 218.32555451 582.19674683 223.54447937 C582.20118276 233.75304609 582.20023769 243.96160544 582.19733419 254.17017244 C582.19507135 262.47153835 582.19477145 270.77290221 582.195858 279.07426834 C582.19608785 280.84980234 582.19608785 280.84980234 582.19632234 282.66120572 C582.19664209 285.06623827 582.1969663 287.47127083 582.19729494 289.87630339 C582.20014342 312.40483497 582.19687274 334.93336248 582.19149457 357.46189339 C582.18702827 376.76790208 582.18780226 396.07390475 582.19241333 415.37991333 C582.19777225 437.82740872 582.19986757 460.27490055 582.19680107 482.72239649 C582.19648254 485.11895347 582.19616816 487.51551044 582.195858 489.91206741 C582.19570373 491.0910538 582.19554945 492.27004018 582.1953905 493.48475342 C582.19452921 501.76950339 582.19597988 510.05425109 582.19833755 518.3390007 C582.20115043 528.44500289 582.20036602 538.55099731 582.19505681 548.65699862 C582.19243967 553.80744096 582.19138084 558.95787038 582.19470596 564.10831261 C582.19771016 568.83335919 582.19600823 573.55838103 582.19072841 578.28342541 C582.18962167 579.98246048 582.19015611 581.68149769 582.1926042 583.38053136 C582.20368996 591.72151818 582.09140325 600.03135486 581.61538506 608.36034584 C581.55702213 609.38988958 581.55702213 609.38988958 581.49748016 610.44023218 C581.10700038 616.58845147 580.14771551 622.54413631 578.87454224 628.56448364 C578.65314575 629.6294104 578.43174927 630.69433716 578.2036438 631.79153442 C568.26879296 677.84240857 539.49225978 717.67406155 500.06204224 743.12698364 C467.26275438 763.62556908 432.13610222 770.30874091 393.88320923 770.25396729 C392.10301415 770.25512225 390.3228193 770.25671229 388.54262495 770.25869453 C383.6955795 770.26283623 378.84855396 770.2608207 374.00150847 770.25770831 C368.75671621 770.25543325 363.51192722 770.25894426 358.26713562 770.26168823 C348.01024619 770.26612245 337.7533641 770.26517992 327.49647439 770.26227559 C319.15650823 770.26001232 310.81654413 770.25971304 302.47657776 770.26079941 C301.28718447 770.26095264 300.09779118 770.26110587 298.87235567 770.26126375 C296.45572491 770.26158349 294.03909416 770.26190771 291.62246341 770.26223634 C268.98999504 770.26508425 246.35753073 770.26181491 223.72506303 770.25643598 C204.32778453 770.25196856 184.93051203 770.25274469 165.53323364 770.25735474 C142.97880025 770.26271266 120.42437041 770.26480963 97.86993647 770.26174247 C95.46245988 770.26142394 93.0549833 770.26110957 90.64750671 770.26079941 C88.87096622 770.26056799 88.87096622 770.26056799 87.05853602 770.26033191 C78.73373038 770.25947041 70.408927 770.26092172 62.0841217 770.26327896 C51.93163597 770.26609068 41.77915796 770.26530979 31.6266731 770.25999822 C26.45204454 770.25737971 21.27742883 770.25632464 16.10280037 770.25964737 C11.35687459 770.26264861 6.61097347 770.26095439 1.8650499 770.25566982 C0.15731425 770.25456186 -1.55042353 770.25510033 -3.25815779 770.25754561 C-46.02743635 770.31404099 -86.09462096 760.41840808 -119.93795776 733.12698364 C-120.8338562 732.43346802 -121.72975464 731.73995239 -122.65280151 731.02542114 C-157.92196506 703.19466081 -181.66538416 660.75225675 -186.93795776 616.12698364 C-187.92763212 605.08548814 -188.0828211 594.09719673 -188.07167053 583.01939392 C-188.07354288 581.2346629 -188.07584525 579.44993229 -188.07853585 577.66520232 C-188.08460786 572.80081865 -188.08452574 567.93645229 -188.08334148 563.07206571 C-188.0831363 557.81013629 -188.0886673 552.54821227 -188.09339905 547.2862854 C-188.10168064 536.9924913 -188.10445275 526.69870293 -188.10501143 516.40490577 C-188.10548773 508.03253185 -188.10754815 499.66015981 -188.11071205 491.28778648 C-188.11951146 467.51657122 -188.12413249 443.74536045 -188.12338158 419.97414354 C-188.12334162 418.69450997 -188.12330167 417.41487641 -188.1232605 416.09646606 C-188.12321962 414.8152586 -188.12317874 413.53405114 -188.12313662 412.2140192 C-188.12273024 391.45476009 -188.13229945 370.69551913 -188.14639886 349.93626527 C-188.16078354 328.58749825 -188.16766791 307.23874008 -188.16680509 285.8899681 C-188.16647386 273.91761774 -188.16918825 261.94528642 -188.17998314 249.97294044 C-188.18911565 239.77954973 -188.19124084 229.58618668 -188.18447372 219.39279363 C-188.1812225 214.19943397 -188.18110095 209.00612728 -188.18982697 203.81277275 C-188.19775506 199.04498623 -188.19619702 194.27729416 -188.18754283 189.50950976 C-188.18602162 187.79830766 -188.18777096 186.08709829 -188.19340291 184.37590478 C-188.35575755 131.48067155 -170.46212969 86.78148314 -133.56295776 48.56448364 C-97.2187334 12.9704841 -49.60286394 -0.07143848 0 0 Z " fill="#42B4D0" transform="translate(314.9379577636719,126.87301635742188)"/>
<path d="M0 0 C3.21807372 2.33988144 3.94536365 3.77768656 4.90625 7.6875 C5.11669742 9.12321903 5.31400369 10.5609091 5.5 12 C10.26284506 42.7301373 31.12429634 66.0855004 55.34863281 84.26220703 C65.73227605 91.84770677 76.4911371 99.05996136 87.80322266 105.18579102 C88.78038239 105.71584244 89.75754211 106.24589386 90.76431274 106.79200745 C91.50208954 107.19064499 92.23986633 107.58928253 93 108 C93.00364563 106.72071121 93.00729126 105.44142242 93.01104736 104.12336731 C93.047975 92.07224913 93.10572345 80.02138701 93.18390274 67.97046375 C93.22342606 61.7748133 93.25559086 55.57930601 93.27099609 49.38354492 C93.28613048 43.40521811 93.3205193 37.42728477 93.36830902 31.44913292 C93.38315596 29.16740016 93.3910429 26.88561124 93.39188385 24.60383034 C93.39424521 21.40969424 93.4212592 18.21665288 93.45410156 15.02270508 C93.44655602 13.60498055 93.44655602 13.60498055 93.43885803 12.15861511 C93.50549637 7.97465392 93.64652877 5.5952961 95.8192749 1.93608093 C98.85617868 -0.76012846 100.97870967 -1 105 -1 C108.57387602 0.58838934 109.81089572 1.71634358 112 5 C112.24609566 6.99335003 112.24609566 6.99335003 112.24050903 9.30900574 C112.24463303 10.62779976 112.24463303 10.62779976 112.24884033 11.97323608 C112.2380545 13.41577255 112.2380545 13.41577255 112.22705078 14.88745117 C112.22734283 15.90226059 112.22763489 16.91707001 112.22793579 17.96263123 C112.22654049 21.32283018 112.21096972 24.68280844 112.1953125 28.04296875 C112.19158309 30.37038553 112.18873578 32.69780387 112.18673706 35.02522278 C112.17909498 41.15567345 112.1594415 47.28602959 112.1373291 53.41644287 C112.11688308 59.6701937 112.107738 65.92395977 112.09765625 72.17773438 C112.07619621 84.45186448 112.04205328 96.72592439 112 109 C115.50793776 106.94864158 119.01208175 104.89088468 122.515625 102.83203125 C123.49998535 102.25650513 124.4843457 101.680979 125.49853516 101.0880127 C140.91194974 92.01771232 154.94247793 81.22447541 168 69 C168.47727539 68.55672363 168.95455078 68.11344727 169.44628906 67.65673828 C187.03012592 51.20124535 199.22080419 31.58392596 201.21484375 7.09375 C202.21753116 3.14286228 203.86684971 1.54013973 207 -1 C210.67825595 -1.61304266 212.46568226 -1.26122201 215.8125 0.375 C218 2 218 2 219 4 C220.84954151 27.51051807 209.8563619 49.57632646 195.00219727 67.11523438 C177.02811955 87.82918378 155.5117881 104.35126705 131.83398438 118.0456543 C128.84715025 119.79083047 126.37560486 121.49551725 124 124 C124.64735107 124.32572998 125.29470215 124.65145996 125.96166992 124.98706055 C167.74307151 146.10801772 209.47029969 171.13738408 225.25 217.6875 C229.77849438 237.6883502 226.26146782 258.37937602 216.21875 276.15234375 C194.25076282 310.40979917 159.17924446 329.74183381 124 348 C126.04087719 350.17646677 128.02122918 351.74551063 130.59765625 353.2421875 C131.30784912 353.66193848 132.01804199 354.08168945 132.74975586 354.51416016 C133.51296143 354.9632373 134.27616699 355.41231445 135.0625 355.875 C170.01722343 376.84996349 206.45015942 405.91060581 217.2734375 447.0390625 C217.51320313 448.01617188 217.75296875 448.99328125 218 450 C218.19078125 450.64839844 218.3815625 451.29679687 218.578125 451.96484375 C219.91355302 458.40704743 220.40580103 465.69959832 216.9375 471.375 C213.20282869 473.44098839 211.20689051 473.75123045 207 473 C203.47189514 470.33560034 201.76710986 468.23715518 201.1015625 463.91796875 C200.92998287 462.34247975 200.77178262 460.7654924 200.625 459.1875 C197.97507934 438.38182581 186.37445407 421.68922314 172 407 C171.27167969 406.22140625 170.54335938 405.4428125 169.79296875 404.640625 C163.45420306 398.00785348 156.31644059 392.49673588 149 387 C148.44715332 386.58105469 147.89430664 386.16210938 147.32470703 385.73046875 C136.58038429 377.63609108 125.04118394 370.02059197 113 364 C112.99635437 365.27928879 112.99270874 366.55857758 112.98895264 367.87663269 C112.952025 379.92775087 112.89427655 391.97861299 112.81609726 404.02953625 C112.77657394 410.2251867 112.74440914 416.42069399 112.72900391 422.61645508 C112.71386952 428.59478189 112.6794807 434.57271523 112.63169098 440.55086708 C112.61684404 442.83259984 112.6089571 445.11438876 112.60811615 447.39616966 C112.60575479 450.59030576 112.5787408 453.78334712 112.54589844 456.97729492 C112.55344398 458.39501945 112.55344398 458.39501945 112.56114197 459.84138489 C112.49352738 464.08664105 112.37927635 466.39130444 110.09088135 470.06391907 C107.58775137 472.38172741 106.58296804 472.93522577 103.1875 473.3125 C99.25067812 472.92653707 97.76603321 471.76603321 95 469 C94.08464268 466.25392805 93.86616096 464.59840872 93.84178162 461.766922 C93.8319928 460.90455429 93.82220398 460.04218658 93.81211853 459.15368652 C93.80636307 458.21069702 93.8006076 457.26770752 93.79467773 456.29614258 C93.78477814 455.3008403 93.77487854 454.30553802 93.76467896 453.28007507 C93.73305055 449.98491813 93.70830114 446.68974676 93.68359375 443.39453125 C93.66302539 441.11194989 93.64202895 438.82937235 93.62062073 436.54679871 C93.56538793 430.53479096 93.51598393 424.52274877 93.46777344 418.51068115 C93.41756727 412.37753224 93.36187658 406.24443344 93.30664062 400.11132812 C93.19904425 388.07426154 93.09760252 376.03715148 93 364 C90.2828618 365.58658954 87.56777703 367.17666156 84.85302734 368.76733398 C83.70778847 369.43597599 83.70778847 369.43597599 82.53941345 370.11812592 C76.72468573 373.52854261 71.11140925 377.14273215 65.625 381.0625 C64.78195312 381.65973877 63.93890625 382.25697754 63.0703125 382.87231445 C56.82038723 387.33491059 50.7737239 391.92885092 45 397 C44.01902344 397.85980469 43.03804688 398.71960938 42.02734375 399.60546875 C21.62721211 417.75399441 7.24400307 438.12329815 4.8203125 465.93359375 C3.78105245 469.81844681 2.38796471 470.92929992 -1 473 C-4.5625 473.5 -4.5625 473.5 -8 473 C-10.36497439 471.13291495 -11.66030715 469.67938569 -13 467 C-15.31795411 447.16439272 -4.59452158 425.39434638 7.1953125 410.1640625 C9.42400225 407.40653112 11.6977243 404.69624801 14 402 C14.60972656 401.26652344 15.21945312 400.53304688 15.84765625 399.77734375 C19.25083364 395.75399736 22.84601133 392.22300751 26.87109375 388.82421875 C28.31052216 387.59080028 29.71932121 386.32086433 31.09765625 385.01953125 C46.07066173 370.91973707 64.23334035 359.28376064 82 349 C79.10988627 346.72254677 76.1749938 344.92959011 72.921875 343.21484375 C71.93364746 342.68930908 70.94541992 342.16377441 69.92724609 341.62231445 C68.87875488 341.06632568 67.83026367 340.51033691 66.75 339.9375 C33.36780155 322.0240665 -4.90034661 298.27723049 -17 260 C-23.24142348 238.26173107 -22.00411672 218.65681124 -11.125 198.7109375 C6.01138735 168.45838411 34.80959746 148.96614954 65 133 C66.58471556 132.1537959 68.16934728 131.30743479 69.75390625 130.4609375 C73.82760295 128.29120164 77.91096262 126.14067179 82 124 C79.92190832 121.7792824 77.88045268 120.1909596 75.26171875 118.65234375 C74.53114258 118.21728516 73.80056641 117.78222656 73.04785156 117.33398438 C72.26893555 116.87314453 71.49001953 116.41230469 70.6875 115.9375 C62.48606065 110.99892836 54.65059857 105.75072585 47 100 C46.43361816 99.57783203 45.86723633 99.15566406 45.28369141 98.72070312 C17.8714282 78.17502262 -6.00193699 52.66977267 -12.5859375 17.90625 C-14.15577524 6.88776623 -14.15577524 6.88776623 -11.125 1.9375 C-7.26967274 -1.57765133 -5.03568551 -1.12868813 0 0 Z " fill="#F7FDFD" transform="translate(409,276)"/>
<path d="M0 0 C9.01347375 3.38005266 9.01347375 3.38005266 12.9609375 5.53125 C13.83572754 6.00651123 14.71051758 6.48177246 15.61181641 6.97143555 C16.52366699 7.47586182 17.43551758 7.98028809 18.375 8.5 C19.3345459 9.02827393 20.2940918 9.55654785 21.28271484 10.10083008 C34.76107683 17.57803222 47.98361868 25.29384419 60 35 C60.5563916 35.44424316 61.1127832 35.88848633 61.68603516 36.34619141 C78.97530917 50.24148607 90.74253187 65.48672114 97 87 C97.19980469 87.66773438 97.39960937 88.33546875 97.60546875 89.0234375 C100.55194935 103.78501358 95.70399881 119.49701605 87.5546875 131.84765625 C87.04164063 132.55792969 86.52859375 133.26820313 86 134 C85.46632813 134.74121094 84.93265625 135.48242188 84.3828125 136.24609375 C82.64754294 138.55312263 80.84878278 140.78297918 79 143 C78.32066406 143.8146875 77.64132812 144.629375 76.94140625 145.46875 C60.97516353 163.91104106 38.63710674 176.14018772 17.5625 187.875 C16.73395508 188.33970703 15.90541016 188.80441406 15.05175781 189.28320312 C13.85244629 189.94352539 13.85244629 189.94352539 12.62890625 190.6171875 C11.5781189 191.19895752 11.5781189 191.19895752 10.50610352 191.79248047 C7.10759781 193.42998746 3.5322415 194.67540944 0 196 C0 131.32 0 66.64 0 0 Z " fill="#41C9EA" transform="translate(521,414)"/>
<path d="M0 0 C0 64.68 0 129.36 0 196 C-36.96084741 180.15963682 -76.93095597 156.8098401 -94.02734375 118.6953125 C-98.54987128 106.16300729 -99.3907654 90.23751688 -94.32421875 77.7578125 C-93.88722656 76.84773438 -93.45023437 75.93765625 -93 75 C-92.49082031 73.92492187 -91.98164063 72.84984375 -91.45703125 71.7421875 C-76.37294408 41.98822151 -47.22308894 24.54681521 -19 9 C-18.15131348 8.53207031 -17.30262695 8.06414062 -16.42822266 7.58203125 C-2.60268029 0 -2.60268029 0 0 0 Z " fill="#3ACBD5" transform="translate(503,414)"/>
<path d="M0 0 C0.33 0 0.66 0 1 0 C1.89070475 11.01207171 2.14284982 21.93269539 2.12698364 32.97592163 C2.12813836 34.74629137 2.12972823 36.51666086 2.13171089 38.28702986 C2.13585614 43.11160092 2.13383539 47.93615201 2.13072467 52.76072311 C2.12845106 57.97964864 2.13195993 63.19857087 2.13470459 68.41749573 C2.13914052 78.62606245 2.13819545 88.83462179 2.13529195 99.0431888 C2.13302911 107.34455471 2.13272921 115.64591856 2.13381577 123.9472847 C2.13404561 125.7228187 2.13404561 125.7228187 2.13428011 127.53422207 C2.13459985 129.93925463 2.13492406 132.34428719 2.1352527 134.74931975 C2.13810118 157.27785133 2.1348305 179.80637884 2.12945233 202.33490975 C2.12498603 221.64091844 2.12576002 240.94692111 2.13037109 260.25292969 C2.13573001 282.70042508 2.13782533 305.14791691 2.13475883 327.59541285 C2.1344403 329.99196982 2.13412593 332.3885268 2.13381577 334.78508377 C2.13366149 335.96407015 2.13350721 337.14305654 2.13334826 338.35776978 C2.13248698 346.64251975 2.13393764 354.92726744 2.13629532 363.21201706 C2.1391082 373.31801925 2.13832378 383.42401367 2.13301457 393.53001498 C2.13039743 398.68045731 2.12933861 403.83088674 2.13266373 408.98132896 C2.13566793 413.70637555 2.13396599 418.43139739 2.12868617 423.15644176 C2.12757943 424.85547683 2.12811387 426.55451405 2.13056196 428.25354771 C2.14164772 436.59453454 2.02936102 444.90437122 1.55334282 453.2333622 C1.5144342 453.91972469 1.47552559 454.60608718 1.43543793 455.31324854 C1.04495815 461.46146783 0.08567327 467.41715267 -1.1875 473.4375 C-1.40889648 474.50242676 -1.63029297 475.56735352 -1.85839844 476.66455078 C-11.79324928 522.71542493 -40.56978246 562.54707791 -80 588 C-112.83505029 608.5209359 -147.99390876 615.19070562 -186.28649902 615.12025452 C-188.07809702 615.12069163 -189.86969496 615.12156911 -191.66129255 615.12284368 C-196.53922959 615.12506109 -201.41714432 615.12110546 -206.29507852 615.11606562 C-211.57228353 615.1117214 -216.84948743 615.11321035 -222.12669373 615.1139679 C-231.25484003 615.11449062 -240.38297916 615.11137011 -249.51112366 615.10573006 C-262.70866583 615.09758096 -275.90620456 615.09499635 -289.10374898 615.09374207 C-310.5192005 615.0915569 -331.9346482 615.08491133 -353.35009766 615.07543945 C-374.14534486 615.06625149 -394.94059102 615.05917743 -415.73583984 615.05493164 C-417.01903136 615.05466892 -418.30222288 615.05440619 -419.62429899 615.05413551 C-426.06210354 615.05283041 -432.4999081 615.05156672 -438.93771267 615.05032361 C-492.29181109 615.03996765 -545.64590536 615.02236391 -599 615 C-599 614.67 -599 614.34 -599 614 C-598.44469146 613.99826375 -597.88938292 613.9965275 -597.31724685 613.99473864 C-564.26420529 613.89127887 -531.21118294 613.7830785 -498.15817678 613.66888306 C-494.17242721 613.65511664 -490.18667752 613.64138907 -486.20092773 613.62768555 C-485.4075746 613.62495724 -484.61422146 613.62222894 -483.79682732 613.61941796 C-471.02052138 613.57557307 -458.24420733 613.53486149 -445.46788733 613.49534739 C-432.31777112 613.45460599 -419.16766966 613.41040582 -406.01757532 613.36312145 C-398.64843524 613.33671978 -391.27929697 613.31183638 -383.91013908 613.29092598 C-346.95273889 613.26238939 -346.95273889 613.26238939 -310.01048946 612.34390259 C-297.8515427 611.87681594 -285.70138197 611.90077354 -273.53509521 611.95540047 C-269.41808602 611.97328354 -265.30111923 611.98345705 -261.18408203 611.99131775 C-249.50500615 612.01499807 -237.82598636 612.05130734 -226.14697266 612.09594727 C-219.63415727 612.12075559 -213.12136214 612.13795177 -206.6085062 612.14750665 C-203.19713257 612.15287753 -199.78586956 612.16192924 -196.37454224 612.18089485 C-169.99315044 612.7668525 -169.99315044 612.7668525 -144 609 C-142.58465222 608.93543121 -141.16662311 608.91388961 -139.75 608.9375 C-137.89375 608.9684375 -137.89375 608.9684375 -136 609 C-136 608.34 -136 607.68 -136 607 C-134.824375 606.896875 -133.64875 606.79375 -132.4375 606.6875 C-128.94373104 606.25383287 -126.14521298 605.31463551 -122.9453125 603.80078125 C-120.68296749 602.86949465 -118.44593047 602.36389063 -116.0625 601.8125 C-107.29155521 599.53765024 -98.86836233 595.05465872 -91.2109375 590.25 C-89 589 -89 589 -86 589 C-86 588.34 -86 587.68 -86 587 C-85.43152344 586.69707031 -84.86304688 586.39414062 -84.27734375 586.08203125 C-80.37803699 583.96638067 -76.63483891 581.82530299 -73.0625 579.1875 C-70 577 -70 577 -68 577 C-68 576.34 -68 575.68 -68 575 C-65.953125 573.125 -65.953125 573.125 -63.25 571 C-62.36828125 570.29875 -61.4865625 569.5975 -60.578125 568.875 C-58.42201936 567.30692317 -56.42251379 566.08673516 -54 565 C-54 564.34 -54 563.68 -54 563 C-53.34 563 -52.68 563 -52 563 C-52 562.34 -52 561.68 -52 561 C-51.34 561 -50.68 561 -50 561 C-50 560.34 -50 559.68 -50 559 C-49.34 559 -48.68 559 -48 559 C-48 558.34 -48 557.68 -48 557 C-47.34 557 -46.68 557 -46 557 C-45.34 555.35 -44.68 553.7 -44 552 C-43.34 552 -42.68 552 -42 552 C-41.77957031 551.48824219 -41.55914063 550.97648438 -41.33203125 550.44921875 C-39.44767741 546.98443911 -37.06027376 543.95569047 -34.6875 540.8125 C-30.66759478 535.41542315 -26.98151501 530.05337895 -24 524 C-23.63003906 523.26136719 -23.26007812 522.52273438 -22.87890625 521.76171875 C-22.58886719 521.18035156 -22.29882812 520.59898437 -22 520 C-21.34 520 -20.68 520 -20 520 C-19.87625 519.01 -19.87625 519.01 -19.75 518 C-18.91450314 514.65801257 -17.56345305 511.98361688 -15.9375 508.96484375 C-14.99448574 506.98844302 -14.45673282 505.13617747 -14 503 C-13.34 503 -12.68 503 -12 503 C-12.061875 502.319375 -12.12375 501.63875 -12.1875 500.9375 C-11.99490192 497.92013006 -11.13256912 496.00959021 -9.86328125 493.30859375 C-8.24834584 488.98992033 -7.53231212 484.42847591 -6.6484375 479.9140625 C-6 477 -6 477 -5 476 C0.31542841 453.30892747 -0.72164784 429.4101503 -0.7825278 406.28454268 C-0.79333431 401.32106647 -0.79233016 396.35759001 -0.7928009 391.394104 C-0.79515139 382.81013198 -0.80467932 374.22619277 -0.81910515 365.64223289 C-0.83991734 353.19680397 -0.84849118 340.75138886 -0.8540265 328.30594484 C-0.86326251 308.06243374 -0.88068805 287.8189389 -0.90405273 267.57543945 C-0.90544605 266.36656625 -0.90683936 265.15769304 -0.9082749 263.91218732 C-0.91036819 262.09677768 -0.91036819 262.09677768 -0.91250378 260.2446931 C-0.93224013 243.11601123 -0.95008735 225.98732884 -0.96557617 208.85864258 C-0.96666702 207.65459749 -0.96775787 206.4505524 -0.96888178 205.2100211 C-0.98697862 185.04978261 -1.00091149 164.88954245 -1.01274782 144.72929937 C-1.02028758 132.33441663 -1.03195891 119.93955053 -1.04920948 107.54467741 C-1.06088345 99.03194749 -1.06900326 90.5192189 -1.07447498 82.00648274 C-1.07776649 77.11539559 -1.08267837 72.22432539 -1.09228897 67.33324623 C-1.13531688 44.86674822 -0.8886202 22.45062461 0 0 Z " fill="#DAC7F3" transform="translate(895,282)"/>
<path d="M0 0 C0.33 0 0.66 0 1 0 C1.89070475 11.01207171 2.14284982 21.93269539 2.12698364 32.97592163 C2.12813836 34.74629137 2.12972823 36.51666086 2.13171089 38.28702986 C2.13585614 43.11160092 2.13383539 47.93615201 2.13072467 52.76072311 C2.12845106 57.97964864 2.13195993 63.19857087 2.13470459 68.41749573 C2.13914052 78.62606245 2.13819545 88.83462179 2.13529195 99.0431888 C2.13302911 107.34455471 2.13272921 115.64591856 2.13381577 123.9472847 C2.133969 125.13097403 2.13412223 126.31466337 2.13428011 127.53422207 C2.13459985 129.93925463 2.13492406 132.34428719 2.1352527 134.74931975 C2.13810118 157.27785133 2.1348305 179.80637884 2.12945233 202.33490975 C2.12498603 221.64091844 2.12576002 240.94692111 2.13037109 260.25292969 C2.13573001 282.70042508 2.13782533 305.14791691 2.13475883 327.59541285 C2.1344403 329.99196982 2.13412593 332.3885268 2.13381577 334.78508377 C2.13366149 335.96407015 2.13350721 337.14305654 2.13334826 338.35776978 C2.13248698 346.64251975 2.13393764 354.92726744 2.13629532 363.21201706 C2.1391082 373.31801925 2.13832378 383.42401367 2.13301457 393.53001498 C2.13039743 398.68045731 2.12933861 403.83088674 2.13266373 408.98132896 C2.13566793 413.70637555 2.13396599 418.43139739 2.12868617 423.15644176 C2.12757943 424.85547683 2.12811387 426.55451405 2.13056196 428.25354771 C2.18571305 469.74953307 2.18571305 469.74953307 -4 477 C-4.0272415 475.58344207 -4.04650467 474.16672955 -4.0625 472.75 C-4.07990234 471.56664062 -4.07990234 471.56664062 -4.09765625 470.359375 C-4.00285553 468.06898953 -3.56134799 466.21291955 -3 464 C-0.19245927 444.89040035 -0.73182618 425.54384679 -0.7825278 406.28454268 C-0.79333431 401.32106647 -0.79233016 396.35759001 -0.7928009 391.394104 C-0.79515139 382.81013198 -0.80467932 374.22619277 -0.81910515 365.64223289 C-0.83991734 353.19680397 -0.84849118 340.75138886 -0.8540265 328.30594484 C-0.86326251 308.06243374 -0.88068805 287.8189389 -0.90405273 267.57543945 C-0.90544605 266.36656625 -0.90683936 265.15769304 -0.9082749 263.91218732 C-0.90967043 262.70191422 -0.91106596 261.49164113 -0.91250378 260.2446931 C-0.93224013 243.11601123 -0.95008735 225.98732884 -0.96557617 208.85864258 C-0.96666702 207.65459749 -0.96775787 206.4505524 -0.96888178 205.2100211 C-0.98697862 185.04978261 -1.00091149 164.88954245 -1.01274782 144.72929937 C-1.02028758 132.33441663 -1.03195891 119.93955053 -1.04920948 107.54467741 C-1.06088345 99.03194749 -1.06900326 90.5192189 -1.07447498 82.00648274 C-1.07776649 77.11539559 -1.08267837 72.22432539 -1.09228897 67.33324623 C-1.13531688 44.86674822 -0.8886202 22.45062461 0 0 Z " fill="#B7C3EF" transform="translate(895,282)"/>
<path d="M0 0 C0.00586624 1.27928879 0.01173248 2.55857758 0.01777649 3.87663269 C0.07496829 15.92772238 0.14771154 27.97863101 0.23571491 40.02953625 C0.28045857 46.22516265 0.31970606 52.42072269 0.34643555 58.61645508 C0.37242839 64.59472988 0.41280271 70.57274982 0.46318626 76.55086708 C0.47988211 78.83260238 0.49137942 81.11438179 0.49761391 83.39616966 C0.50722521 86.59015042 0.53524981 89.78347514 0.56762695 92.97729492 C0.56619186 93.92244461 0.56475677 94.8675943 0.5632782 95.84138489 C0.63277604 100.68329128 0.78321848 104.10260311 4 108 C6.88861709 109.44430855 8.79647701 109.37688506 12 109 C14.83183297 106.98503286 16.6999442 105.36958852 17.46473122 101.87875938 C17.65701175 99.20313844 17.68366523 96.56801555 17.65942383 93.88549805 C17.66990753 92.87039658 17.68039124 91.8552951 17.69119263 90.80943298 C17.71995464 87.45988442 17.71364941 84.11136874 17.70703125 80.76171875 C17.72014551 78.43714603 17.73544888 76.11258472 17.75285339 73.78804016 C17.79274758 67.67404179 17.80289676 61.56034121 17.80688477 55.44622803 C17.81620776 49.20559632 17.85361616 42.9651402 17.88867188 36.72460938 C17.95329295 24.48308115 17.98649606 12.24168386 18 0 C20.31 0.99 22.62 1.98 25 3 C25 3.33 25 3.66 25 4 C23.35 4 21.7 4 20 4 C19.97640631 11.13048526 19.95885342 18.26096157 19.94818783 25.39147854 C19.94305846 28.70558556 19.93556669 32.01964464 19.92456055 35.33374023 C19.87765242 49.84490824 19.9496436 64.318101 20.66392517 78.81443787 C21.81506383 102.57698292 21.81506383 102.57698292 16 110 C13.32284324 112.12326225 12.03673574 112.00133584 8.5625 111.875 C4.63168755 110.90953729 2.80605117 109.88622406 0 107 C-2.4645952 102.44250153 -2.24305829 98.12339167 -2.16015625 93.0859375 C-2.15495468 92.23448151 -2.14975311 91.38302551 -2.14439392 90.50576782 C-2.12663593 87.79533531 -2.09546425 85.08528685 -2.0625 82.375 C-2.03486471 79.6576102 -2.01016414 76.94027416 -1.99131775 74.22280884 C-1.97907874 72.53442552 -1.96149274 70.84607067 -1.93800354 69.1578064 C-1.90963463 65.83722185 -1.94191431 63.17425708 -3 60 C-3.02172852 58.07177734 -3.02172852 58.07177734 -2.87890625 55.8359375 C-2.83048584 54.97621338 -2.78206543 54.11648926 -2.73217773 53.23071289 C-2.67618408 52.28832764 -2.62019043 51.34594238 -2.5625 50.375 C-2.01484373 39.9318206 -1.91023547 29.51654173 -1.9375 19.0625 C-1.9393631 18.31369568 -1.9412262 17.56489136 -1.94314575 16.793396 C-1.95526117 12.52888514 -1.97460006 8.26445527 -2 4 C-3.74430644 4.92962874 -5.48598233 5.86419423 -7.2265625 6.80078125 C-8.19674316 7.32067627 -9.16692383 7.84057129 -10.16650391 8.3762207 C-13.4284869 10.24555112 -16.34179629 12.3789971 -19.296875 14.69140625 C-21.42551399 16.32694309 -23.67856084 17.65600891 -26 19 C-47.18763899 32.80633176 -68.53985091 51.07970181 -80 74 C-80.66 74 -81.32 74 -82 74 C-80.65057818 69.18996417 -78.54526676 65.43709463 -75.625 61.4375 C-75.18655762 60.83252686 -74.74811523 60.22755371 -74.29638672 59.60424805 C-61.36343414 42.13544961 -23.24006242 0 0 0 Z " fill="#59ABE3" transform="translate(503,639)"/>
<path d="M0 0 C2.2711257 4.02787722 2.07376619 7.31436788 1.6875 11.8125 C1.63916016 12.49892578 1.59082031 13.18535156 1.54101562 13.89257812 C1.31478884 16.91943519 1.02414531 19.86404513 0.49269962 22.8564539 C-0.29414961 28.37676893 -0.13405843 33.93249613 -0.12025452 39.49668884 C-0.12110894 40.75632039 -0.12196337 42.01595194 -0.12284368 43.31375414 C-0.12507369 46.79823343 -0.12108784 50.28268184 -0.11606562 53.7671572 C-0.11173983 57.52916881 -0.11320906 61.29117874 -0.1139679 65.05319214 C-0.11449178 71.56721851 -0.11135912 78.08123486 -0.10573006 84.59525871 C-0.09759673 94.01339789 -0.09499795 103.43153222 -0.09374207 112.84967453 C-0.09155443 128.13066142 -0.08490215 143.41164296 -0.07543945 158.69262695 C-0.06625788 173.5350746 -0.05918069 188.37752079 -0.05493164 203.2199707 C-0.05466892 204.13513928 -0.05440619 205.05030786 -0.05413551 205.99320882 C-0.05283045 210.58442424 -0.05156675 215.17563968 -0.05032361 219.76685512 C-0.03995997 257.84457382 -0.02234949 295.92228656 0 334 C-0.66 334.33 -1.32 334.66 -2 335 C-2.04579448 293.91156005 -2.08102787 252.82312343 -2.10213066 211.73466305 C-2.10463202 206.88194655 -2.10722067 202.0292301 -2.10986328 197.17651367 C-2.1103879 196.2104399 -2.11091252 195.24436613 -2.11145304 194.2490174 C-2.12015167 178.6139133 -2.13591866 162.97882393 -2.15430559 147.34372856 C-2.17301971 131.29637027 -2.18411993 115.24901968 -2.18817699 99.20165092 C-2.19091891 89.30246855 -2.19957389 79.40332784 -2.21583293 69.5041583 C-2.22641847 62.71260185 -2.22959707 55.92106689 -2.22700275 49.1295028 C-2.22572391 45.21327121 -2.22766125 41.29711231 -2.23841095 37.38089371 C-2.24819573 33.78984238 -2.24860126 30.19891214 -2.24179779 26.60785506 C-2.24056236 24.70522382 -2.24914115 22.80259384 -2.25816262 20.89998358 C-2.23331302 13.72034999 -1.56089396 7.0116986 0 0 Z " fill="#3DC497" transform="translate(130,277)"/>
<path d="M0 0 C0 0.66 0 1.32 0 2 C1.75376953 1.98259766 1.75376953 1.98259766 3.54296875 1.96484375 C5.09114423 1.95546087 6.63932145 1.9463612 8.1875 1.9375 C8.95642578 1.92912109 9.72535156 1.92074219 10.51757812 1.91210938 C11.26845703 1.90888672 12.01933594 1.90566406 12.79296875 1.90234375 C13.4789917 1.89710693 14.16501465 1.89187012 14.87182617 1.88647461 C17 2 17 2 19.33331662 2.49975401 C21.89795435 2.98085715 24.19074361 3.12216132 26.79510784 3.1174612 C27.7373797 3.11821886 28.67965156 3.11897651 29.65047711 3.11975712 C30.67732281 3.11548003 31.7041685 3.11120295 32.76213074 3.10679626 C33.85938376 3.10623956 34.95663679 3.10568285 36.0871399 3.10510927 C39.77059932 3.10206875 43.45400484 3.09188256 47.13745117 3.08178711 C49.77530478 3.07823166 52.41315572 3.07508584 55.05101013 3.07249451 C60.73402359 3.06619904 66.41702266 3.05646081 72.10002708 3.04459953 C80.31886291 3.0276253 88.53769515 3.0180709 96.75654463 3.0107208 C110.09412972 2.99877729 123.43170917 2.98382753 136.76928711 2.96557617 C137.56741974 2.96448605 138.36555237 2.96339593 139.18787084 2.96227277 C150.52541373 2.94664785 161.86294985 2.92805137 173.20048616 2.9082749 C173.99952836 2.90688158 174.79857057 2.90548827 175.62182617 2.90405273 C176.41989656 2.9026592 177.21796695 2.90126567 178.0402213 2.89982992 C191.33159096 2.87682147 204.62295622 2.86148965 217.9143427 2.85249335 C226.11642743 2.84663094 234.31845176 2.83423137 242.52051268 2.81352056 C248.79690119 2.79823387 255.07325854 2.79321327 261.34966469 2.79207802 C263.93053843 2.78992149 266.51141183 2.7842991 269.0922699 2.7750473 C272.60118507 2.76295028 276.10989073 2.76299793 279.61882019 2.76622009 C280.65235805 2.75971229 281.68589591 2.75320449 282.7507531 2.74649948 C283.68520172 2.74986488 284.61965034 2.75323027 285.58241558 2.75669765 C286.79839146 2.75474538 286.79839146 2.75474538 288.0389325 2.75275367 C290 3 290 3 292 5 C256.09244042 5.06876324 220.18489245 5.121578 184.27728051 5.15319599 C180.03185877 5.15694782 175.78643717 5.16083081 171.54101562 5.16479492 C170.27330918 5.16597532 170.27330918 5.16597532 168.97999251 5.16717956 C155.3205444 5.18021058 141.66113441 5.20385164 128.00170887 5.23145839 C113.97140002 5.25957687 99.94111105 5.27618984 85.91077518 5.28226548 C77.26298921 5.2863686 68.61531103 5.29929752 59.96755826 5.3237494 C54.02629415 5.33968625 48.08508524 5.3443825 42.14380133 5.34050413 C38.72309529 5.33859486 35.30257675 5.34138697 31.8819046 5.35761642 C18.27063469 5.41266458 5.25450482 5.38924511 -8 2 C-4.77208445 -0.1519437 -3.71599191 -0.20086443 0 0 Z " fill="#7498E1" transform="translate(272,891)"/>
<path d="M0 0 C2.67301535 0.00028274 5.34602796 0.00016623 8.01904297 -0.0004425 C13.72851347 -0.00096198 19.43797237 0.00212383 25.14743996 0.00779533 C33.40194799 0.01598953 41.65645053 0.01853358 49.91096219 0.01978333 C63.30962249 0.02196153 76.70827663 0.02858792 90.10693359 0.03808594 C103.10758433 0.04729213 116.10823338 0.05435719 129.10888672 0.05859375 C129.91284533 0.05885647 130.71680394 0.0591192 131.54512493 0.05938988 C135.5791249 0.0606951 139.61312489 0.06195877 143.64712489 0.06320179 C177.01109227 0.07353599 210.37505221 0.09112042 243.73901367 0.11352539 C243.07901367 0.44352539 242.41901367 0.77352539 241.73901367 1.11352539 C241.40901367 1.77352539 241.07901367 2.43352539 240.73901367 3.11352539 C240.73901367 2.45352539 240.73901367 1.79352539 240.73901367 1.11352539 C239.86834826 1.18476403 238.99768284 1.25600267 238.10063362 1.32940006 C225.47330652 2.24933044 212.88621419 2.23354939 200.23071289 2.1953125 C197.79117393 2.19174954 195.35163424 2.18866544 192.91209412 2.1860199 C187.68658534 2.17950433 182.46109071 2.17005332 177.23559189 2.15812492 C169.65675612 2.14100987 162.07792418 2.13155472 154.49907328 2.12424619 C142.16661384 2.11233759 129.83416058 2.09740702 117.50170898 2.07910156 C116.3979708 2.07746638 116.3979708 2.07746638 115.27193488 2.07579816 C104.84222049 2.06020524 94.4125136 2.04160552 83.98280646 2.02180029 C83.24880015 2.02040697 82.51479384 2.01901366 81.75854492 2.01757812 C80.65890476 2.01548783 80.65890476 2.01548783 79.53704964 2.01335531 C67.25320663 1.99021015 54.96936842 1.97496573 42.68550694 1.96601874 C35.1391615 1.96021216 27.59288335 1.94797473 20.04656442 1.92704595 C14.24485716 1.91154098 8.44317696 1.90672698 2.64145088 1.90560341 C0.28343821 1.90347881 -2.07457459 1.89796787 -4.4325695 1.88857269 C-26.42384183 1.75271368 -26.42384183 1.75271368 -48.26098633 4.11352539 C-48.59098633 4.44352539 -48.92098633 4.77352539 -49.26098633 5.11352539 C-51.93157484 5.254677 -54.5853087 5.15599646 -57.26098633 5.11352539 C-55.93760001 4.42732508 -54.60148685 3.76566078 -53.26098633 3.11352539 C-52.57615771 2.77306655 -51.8913291 2.43260771 -51.1857481 2.08183193 C-47.1704806 0.75248955 -43.35955252 0.64523491 -39.15229797 0.49562073 C-38.23405945 0.45797814 -37.31582093 0.42033555 -36.369757 0.38155228 C-24.2503728 -0.06527167 -12.12564871 -0.01817786 0 0 Z " fill="#41C49A" transform="translate(325.260986328125,127.886474609375)"/>
<path d="M0 0 C0.02320123 7.47590034 0.04095473 14.95179288 0.05181217 22.42772198 C0.05702399 25.89933738 0.06409068 29.3709281 0.07543945 32.8425293 C0.08841348 36.83642815 0.09324228 40.83030119 0.09765625 44.82421875 C0.10281754 46.06709152 0.10797882 47.30996429 0.11329651 48.59049988 C0.11337204 49.75132584 0.11344757 50.91215179 0.11352539 52.1081543 C0.115746 53.12741501 0.11796661 54.14667572 0.12025452 55.19682312 C0.00417994 57.90256415 -0.39084966 60.36549032 -1 63 C-3.11699421 59.82450868 -3.22874755 59.38903089 -2.9765625 55.8359375 C-2.92491943 54.97621338 -2.87327637 54.11648926 -2.82006836 53.23071289 C-2.7556958 52.28832764 -2.69132324 51.34594238 -2.625 50.375 C-2.02917223 39.92872461 -1.90555839 29.52153975 -1.9375 19.0625 C-1.93945374 18.31369568 -1.94140747 17.56489136 -1.94342041 16.793396 C-1.9554773 12.52888441 -1.97460005 8.26445613 -2 4 C-3.74430644 4.92962874 -5.48598233 5.86419423 -7.2265625 6.80078125 C-8.19674316 7.32067627 -9.16692383 7.84057129 -10.16650391 8.3762207 C-13.4284869 10.24555112 -16.34179629 12.3789971 -19.296875 14.69140625 C-21.42551399 16.32694309 -23.67856084 17.65600891 -26 19 C-47.18763899 32.80633176 -68.53985091 51.07970181 -80 74 C-80.66 74 -81.32 74 -82 74 C-80.65057818 69.18996417 -78.54526676 65.43709463 -75.625 61.4375 C-75.18655762 60.83252686 -74.74811523 60.22755371 -74.29638672 59.60424805 C-61.36343414 42.13544961 -23.24006242 0 0 0 Z " fill="#5CC3E7" transform="translate(503,639)"/>
<path d="M0 0 C24.68374667 14.8886091 47.5250691 38.73242918 56.125 66.65234375 C57.29040367 71.454031 58.05333216 76.14034949 58.4375 81.0625 C58.71650179 84.94080006 58.71650179 84.94080006 60.625 87.5625 C63.97719234 89.59145852 66.15251431 89.54964081 70 89 C72.88202862 86.84362501 73.88229755 85.64822893 74.53125 82.07421875 C74.32858148 60.11001738 64.82639901 42.73959852 53 25 C56.27293857 26.37321213 57.79814485 27.717695 59.69140625 30.703125 C60.39620117 31.80333984 60.39620117 31.80333984 61.11523438 32.92578125 C61.59283203 33.69277344 62.07042969 34.45976563 62.5625 35.25 C63.04396484 36.00152344 63.52542969 36.75304687 64.02148438 37.52734375 C71 48.52786494 71 48.52786494 71 54 C71.66 54.33 72.32 54.66 73 55 C73.59765625 57.21484375 73.59765625 57.21484375 74.0625 59.9375 C74.66805467 63.58772209 74.66805467 63.58772209 76 67 C76.23836379 70.30704725 76.18518688 73.62280304 76.1875 76.9375 C76.19974609 77.85724609 76.21199219 78.77699219 76.22460938 79.72460938 C76.22654297 80.60826172 76.22847656 81.49191406 76.23046875 82.40234375 C76.23457764 83.21179443 76.23868652 84.02124512 76.24291992 84.85522461 C76 87 76 87 74 90 C70.4832802 92.47472874 67.19399 92.44147263 63 92 C59.46370039 89.7996358 57.56471443 87.82178039 56 84 C55.76171875 81.765625 55.76171875 81.765625 55.6875 79.25 C54.82374887 68.11058889 50.85277396 57.57062055 45.13671875 48.0390625 C44 46 44 46 44 44 C43.34 44 42.68 44 42 44 C41.38125 42.9275 40.7625 41.855 40.125 40.75 C39.75632812 40.11191406 39.38765625 39.47382812 39.0078125 38.81640625 C38 37 38 37 37 34.6875 C36.11684836 32.84143926 36.11684836 32.84143926 34.11328125 32.09375 C31.82805292 30.91100706 30.77535909 29.81219574 29.1875 27.8125 C24.93990101 22.67909519 20.57337705 17.97622798 15.0625 14.1875 C14.051875 13.465625 13.04125 12.74375 12 12 C12 11.34 12 10.68 12 10 C11.42765625 9.731875 10.8553125 9.46375 10.265625 9.1875 C7.92115366 7.95867364 5.87595062 6.57477824 3.75 5 C3.04359375 4.484375 2.3371875 3.96875 1.609375 3.4375 C0.81273437 2.7259375 0.81273437 2.7259375 0 2 C0 1.34 0 0.68 0 0 Z " fill="#6E95DF" transform="translate(553,659)"/>
<path d="M0 0 C0 64.68 0 129.36 0 196 C-1.65 195.34 -3.3 194.68 -5 194 C-3.68 193.67 -2.36 193.34 -1 193 C-1.33 130.3 -1.66 67.6 -2 3 C-15.34759092 10.02590328 -15.34759092 10.02590328 -28.38671875 17.4921875 C-31.22410823 19.1293061 -33.9938318 20.69225515 -37 22 C-37.99 21.67 -38.98 21.34 -40 21 C-3.42307692 0 -3.42307692 0 0 0 Z " fill="#50BECB" transform="translate(503,414)"/>
<path d="M0 0 C0 0.66 0 1.32 0 2 C-59.07 2 -118.14 2 -179 2 C-179 1.67 -179 1.34 -179 1 C-159.02621846 0.22980206 -139.09545014 -0.13536113 -119.1043191 -0.06846237 C-115.59997838 -0.05818995 -112.09563067 -0.05492044 -108.59127808 -0.05102539 C-99.76917014 -0.0401303 -90.94709002 -0.02049154 -82.125 0 C-72.5137593 0.02218492 -62.9025285 0.0426303 -53.29126728 0.05341816 C-49.15326151 0.05835434 -45.01530612 0.06813689 -40.87732053 0.08184814 C-37.70874702 0.09110514 -34.54016605 0.09383145 -31.37158203 0.09765625 C-29.68380394 0.10540573 -29.68380394 0.10540573 -27.96192932 0.11331177 C-22.55145667 0.11367399 -17.27835351 -0.0571131 -11.91222954 -0.7724762 C-7.71031153 -1.2724352 -4.0132717 -1.33775723 0 0 Z " fill="#866FDE" transform="translate(743,894)"/>
<path d="M0 0 C0.33 0 0.66 0 1 0 C1 34.32 1 68.64 1 104 C-15.10472973 95.94763514 -15.10472973 95.94763514 -21.375 91.5625 C-22.02726562 91.11712891 -22.67953125 90.67175781 -23.3515625 90.21289062 C-24.90636963 89.14967692 -26.45407381 88.07608588 -28 87 C-25 86 -25 86 -22.8125 86.9375 C-22.214375 87.288125 -21.61625 87.63875 -21 88 C-21 88.66 -21 89.32 -21 90 C-19.824375 90.2784375 -19.824375 90.2784375 -18.625 90.5625 C-14.30772645 92.27452227 -10.98915785 94.69311071 -7.26953125 97.44140625 C-5.00085469 99.15325952 -5.00085469 99.15325952 -2 100 C-1.07805423 94.54278057 -0.86807958 89.30403188 -0.90234375 83.77587891 C-0.90380402 82.87913452 -0.90526428 81.98239014 -0.9067688 81.05847168 C-0.91055756 79.12311878 -0.91665575 77.18776929 -0.92483521 75.25242996 C-0.93763822 72.19353795 -0.9441237 69.13468946 -0.94897461 66.07577515 C-0.96037468 59.59216378 -0.97964449 53.10858861 -1 46.625 C-1.02356968 39.09102012 -1.04394707 31.55706017 -1.05593872 24.02305222 C-1.06244477 21.002208 -1.07494777 17.98142544 -1.08764648 14.96060181 C-1.09127629 13.1229864 -1.09462836 11.28537041 -1.09765625 9.44775391 C-1.10282257 8.60207855 -1.10798889 7.7564032 -1.11331177 6.88510132 C-1.11349249 4.9230373 -1.06243469 2.96107041 -1 1 C-0.67 0.67 -0.34 0.34 0 0 Z " fill="#3BC1B0" transform="translate(502,281)"/>
<path d="M0 0 C0 0.33 0 0.66 0 1 C-2.97851562 1.29296875 -2.97851562 1.29296875 -5.95703125 1.5859375 C-8.29988142 1.92665391 -8.29988142 1.92665391 -11 4 C-11.46083566 5.94739563 -11.46083566 5.94739563 -11.39872742 8.22671509 C-11.41126556 9.11295059 -11.42380371 9.9991861 -11.4367218 10.91227722 C-11.43528671 11.88691422 -11.43385162 12.86155121 -11.43237305 13.86572266 C-11.4425647 14.89013962 -11.45275635 15.91455658 -11.46325684 16.97001648 C-11.49353678 20.36808637 -11.50267574 23.76587508 -11.51171875 27.1640625 C-11.5285543 29.51533964 -11.54670299 31.86660772 -11.56611633 34.21786499 C-11.61374442 40.4156613 -11.6434709 46.61342089 -11.66955566 52.81134033 C-11.69929667 59.13211321 -11.74584907 65.45275936 -11.79101562 71.7734375 C-11.87719444 84.18222555 -11.94447477 96.59103959 -12 109 C-12.66 109 -13.32 109 -14 109 C-14.09264291 95.52649673 -14.16373627 82.05306912 -14.20724869 68.57931232 C-14.22813151 62.32302419 -14.25646248 56.06695382 -14.30175781 49.81079102 C-14.34518981 43.77427718 -14.36913187 37.73797294 -14.37950897 31.70131493 C-14.38690502 29.39718514 -14.40134759 27.09306693 -14.42292023 24.78902626 C-14.45191822 21.56393182 -14.4559574 18.3397056 -14.45410156 15.11450195 C-14.46848267 14.16000153 -14.48286377 13.2055011 -14.49768066 12.22207642 C-14.47102717 7.94704605 -14.39283405 5.63353859 -12.09661865 1.93034363 C-7.95377616 -1.88394544 -5.32615525 -0.77315157 0 0 Z " fill="#C5F7F3" transform="translate(517,276)"/>
<path d="M0 0 C22.17640118 -0.09384446 44.35276916 -0.16417435 66.5293293 -0.20724869 C76.82854006 -0.22778907 87.12762675 -0.25574466 97.42675781 -0.30175781 C106.41362344 -0.34188872 115.40039912 -0.36749457 124.38735187 -0.37635398 C129.13669605 -0.38152474 133.88578313 -0.3934953 138.6350441 -0.42292023 C176.61026562 -0.64945204 176.61026562 -0.64945204 195 4 C195 4.33 195 4.66 195 5 C192.85423363 5.02685938 190.70837355 5.04633088 188.5625 5.0625 C187.36753906 5.07410156 186.17257812 5.08570313 184.94140625 5.09765625 C182 5 182 5 181 4 C179.67218122 3.79395915 178.33704105 3.6337041 177 3.5 C173.11111111 3.11111111 173.11111111 3.11111111 172 2 C170.09813664 1.90559457 168.19271418 1.88257856 166.28851318 1.88647461 C165.04694962 1.8865451 163.80538605 1.8866156 162.52619934 1.88668823 C161.13693206 1.8918235 159.7476651 1.89704495 158.35839844 1.90234375 C156.90465852 1.90426182 155.45091794 1.90572614 153.99717712 1.9067688 C150.85529117 1.90993996 147.7134318 1.91622488 144.57155609 1.92483521 C139.58377787 1.93835503 134.59600857 1.94425325 129.60821533 1.94897461 C118.09260548 1.9610384 106.57701813 1.98291692 95.06142426 2.00520325 C84.56067329 2.02547179 74.05993086 2.04355269 63.55916429 2.05341816 C59.42421298 2.05754388 55.28928845 2.0637752 51.15435028 2.07516479 C34.07885204 2.12176456 17.04941247 2.09830447 0 1 C0 0.67 0 0.34 0 0 Z " fill="#4FC5B2" transform="translate(569,128)"/>
<path d="M0 0 C0.33 0 0.66 0 1 0 C1.7817154 7.97607629 2.13080618 15.84036205 2.06591797 23.85205078 C2.06124512 24.96915436 2.05657227 26.08625793 2.05175781 27.23721313 C2.04133185 29.64009741 2.0286957 32.04297295 2.01403427 34.44583511 C1.99183795 38.25530395 1.97787255 42.06472181 1.96633911 45.87423706 C1.9329025 56.69764406 1.891281 67.52095958 1.82861328 78.34423828 C1.79026013 84.98460197 1.76792141 91.62490973 1.75430679 98.26537704 C1.74627867 100.78586068 1.73270706 103.30633324 1.71337509 105.82675552 C1.6867806 109.35352227 1.67899279 112.8798834 1.67529297 116.40673828 C1.6629361 117.43661865 1.65057922 118.46649902 1.6378479 119.52758789 C1.65386879 125.34335188 2.3654616 130.22718863 4.29413033 135.72569084 C5.44145192 139.42235624 5.63398144 143.15680513 6 147 C6.33 147.33 6.66 147.66 7 148 C7.93119789 153.0698552 8.08997924 157.87118304 8 163 C5.76265479 159.64398219 4.93638551 156.4802747 4 152.625 C3.835 151.98433594 3.67 151.34367188 3.5 150.68359375 C0.77327207 139.67016924 -0.2961852 128.82680299 -0.22705078 117.4987793 C-0.22734283 116.21916321 -0.22763489 114.93954712 -0.22793579 113.62115479 C-0.22850292 110.15710077 -0.21685406 106.69318903 -0.20278788 103.2291677 C-0.19017212 99.59238669 -0.18910156 95.9556014 -0.18673706 92.31880188 C-0.18055383 85.45204776 -0.16418638 78.58535833 -0.14403808 71.71863252 C-0.12158001 63.89261243 -0.11066089 56.06658904 -0.10064721 48.24054468 C-0.07981685 32.16032542 -0.0447032 16.080171 0 0 Z " fill="#50C9B4" transform="translate(128,612)"/>
<path d="M0 0 C0.99 0.495 0.99 0.495 2 1 C3.2680842 4.80425259 3.12315972 8.35815606 3.09765625 12.32006836 C3.09546585 13.59391388 3.09546585 13.59391388 3.0932312 14.89349365 C3.08942332 16.73994972 3.08330478 18.58640211 3.07516479 20.43284416 C3.06239381 23.36421817 3.05588242 26.29554684 3.05102539 29.22694397 C3.03765385 36.51594364 3.01358514 43.80490085 2.98962402 51.09387207 C2.96979507 57.24060901 2.95418758 63.38732923 2.94406128 69.53409004 C2.93763308 72.40540179 2.92511909 75.27664447 2.91235352 78.14793396 C2.88753008 87.14930316 2.98058907 96.04143799 4 105 C2.515 105.495 2.515 105.495 1 106 C0.67 71.02 0.34 36.04 0 0 Z " fill="#40C0B6" transform="translate(520,279)"/>
<path d="M0 0 C0.66 0.33 1.32 0.66 2 1 C-3.6382579 7.18077068 -9.26270504 13.34009511 -15.25 19.1875 C-23.0304969 26.85722433 -23.0304969 26.85722433 -28.96875 35.9453125 C-30.86406982 39.72159366 -33.60250131 42.96805322 -36.125 46.34375 C-37.66632266 48.52729043 -38.90164183 50.57445904 -40 53 C-40.66 53 -41.32 53 -42 53 C-42.309375 53.94875 -42.61875 54.8975 -42.9375 55.875 C-44 59 -44 59 -45 61 C-45.66 61 -46.32 61 -47 61 C-39.93801195 37.50735633 -18.5161112 15.29591794 0 0 Z " fill="#68D8A9" transform="translate(192,166)"/>
<path d="M0 0 C1.3303125 0.2784375 1.3303125 0.2784375 2.6875 0.5625 C5.77173592 2.47972773 6.40439239 4.37787785 7.51171875 7.76171875 C8.26789618 11.2280361 8.12414948 14.46173988 8 18 C8.33 18.33 8.66 18.66 9 19 C9.32416467 20.34675687 9.60916799 21.70302578 9.875 23.0625 C12.37623888 34.50701745 18.12290666 44.57583505 25 54 C25.99 54.495 25.99 54.495 27 55 C26.67 55.99 26.34 56.98 26 58 C13.40916022 43.7683327 6.48313483 27.83134827 4.58984375 8.8984375 C3.96229725 5.81473219 3.53731032 4.78751412 1 3 C-2.36760187 1.8283633 -2.36760187 1.8283633 -6 2 C-9.16348401 3.66178189 -9.16348401 3.66178189 -11 7 C-13.24180451 18.31577514 -8.23033071 31.1921204 -3.98828125 41.453125 C-3 44 -3 44 -3 46 C-3.66 46 -4.32 46 -5 46 C-5.96507147 43.66926137 -6.92210022 41.33571249 -7.875 39 C-8.14441406 38.35160156 -8.41382813 37.70320313 -8.69140625 37.03515625 C-11.86160638 29.22563886 -13.34767538 22.19209216 -13.3125 13.75 C-13.32861328 12.96109375 -13.34472656 12.1721875 -13.36132812 11.359375 C-13.36429041 7.85203288 -13.35623991 5.6244094 -11.59375 2.53515625 C-7.72959189 -1.18693722 -5.17280326 -1.26680896 0 0 Z " fill="#45C2A3" transform="translate(408,274)"/>
<path d="M0 0 C0.495 0.99 0.495 0.99 1 2 C-0.9354531 5.85787284 -3.5177726 8.84886082 -6.4375 12 C-8.71021355 14.46114496 -10.91273514 16.88700766 -12.9609375 19.5390625 C-15.16487907 22.19899198 -17.49114526 24.21947254 -20.1875 26.375 C-21.16589844 27.15746094 -22.14429688 27.93992187 -23.15234375 28.74609375 C-24.09207031 29.48988281 -25.03179688 30.23367188 -26 31 C-26.72316406 31.58910156 -27.44632813 32.17820312 -28.19140625 32.78515625 C-34.58132869 37.91406933 -41.41455019 42.36894843 -48.26147461 46.85546875 C-49.90574835 47.93795089 -51.53917482 49.03685792 -53.171875 50.13671875 C-57.88905876 53.24458706 -62.74095991 56.10579663 -68 58.1875 C-70.18437076 58.81846156 -70.18437076 58.81846156 -71 61 C-72.65 61 -74.3 61 -76 61 C-71.85100427 57.40857682 -67.43276956 54.94159593 -62.625 52.375 C-39.01218643 39.48874625 -15.13106609 22.69659913 0 0 Z " fill="#5DBBE6" transform="translate(621,557)"/>
<path d="M0 0 C2.12232937 0.00187171 4.24465918 0.00329204 6.36698914 0.00428772 C11.87571466 0.00805373 17.3844126 0.0178313 22.89312744 0.0289917 C28.54528429 0.03933519 34.19744573 0.04381267 39.84960938 0.04882812 C50.88282443 0.05946069 61.91601927 0.07646323 72.94921875 0.09765625 C72.94921875 0.75765625 72.94921875 1.41765625 72.94921875 2.09765625 C71.23724808 2.09099442 71.23724808 2.09099442 69.49069214 2.084198 C58.63704305 2.04332708 47.78340995 2.01351805 36.92970085 1.99403191 C31.35218935 1.98367656 25.77474087 1.96967177 20.19726562 1.94677734 C14.7961072 1.9247501 9.39500869 1.91302597 3.99380875 1.90790176 C1.95216048 1.90425879 -0.0894852 1.89714869 -2.13110733 1.88619614 C-16.05501211 1.81459694 -30.27399391 1.80809735 -44.05078125 4.09765625 C-44.38078125 4.42765625 -44.71078125 4.75765625 -45.05078125 5.09765625 C-47.72136976 5.23880786 -50.37510363 5.14012732 -53.05078125 5.09765625 C-51.72739493 4.41145594 -50.39128177 3.74979164 -49.05078125 3.09765625 C-48.37137985 2.75721786 -47.69197845 2.41677948 -46.99198914 2.06602478 C-42.89378839 0.71672586 -38.97061419 0.62892754 -34.67895508 0.47875977 C-33.75552464 0.44109025 -32.83209421 0.40342073 -31.88068104 0.36460972 C-21.25524251 -0.03080895 -10.6311416 -0.02812709 0 0 Z " fill="#33C388" transform="translate(321.05078125,127.90234375)"/>
<path d="M0 0 C5.57863225 1.85954408 8.31207018 7.98460563 11 13 C13.37003202 18.194247 15.23157195 23.57644519 17 29 C17.37898437 30.03769531 17.75796875 31.07539063 18.1484375 32.14453125 C19.4162075 37.88438899 19.28812986 43.51571084 19.25 49.375 C19.25773438 50.55578125 19.26546875 51.7365625 19.2734375 52.953125 C19.24476126 65.82875694 16.07342893 75.91132925 10.5 87.4375 C10.20327393 88.06551514 9.90654785 88.69353027 9.60083008 89.34057617 C8.8112255 90.93442787 7.91178862 92.47275407 7 94 C5.515 94.495 5.515 94.495 4 95 C5.38293266 91.35827733 7.03763774 87.99446422 8.875 84.5625 C17.70748648 67.07028962 19.7862019 46.55515618 14 27.75 C10.41758259 17.9454892 5.40235896 8.90570689 0 0 Z " fill="#5FBFE5" transform="translate(618,462)"/>
<path d="M0 0 C1.05058594 0.01804688 2.10117187 0.03609375 3.18359375 0.0546875 C3.96863281 0.07789063 4.75367188 0.10109375 5.5625 0.125 C5.5625 0.455 5.5625 0.785 5.5625 1.125 C4.5725 1.228125 3.5825 1.33125 2.5625 1.4375 C-1.02219448 1.94340446 -4.13314491 3.0422515 -7.484375 4.37890625 C-9.4375 5.125 -9.4375 5.125 -12.6875 6 C-22.62988711 8.98271613 -31.61452206 13.6620518 -40.67480469 18.64648438 C-45.21733611 21.1097813 -49.40624339 22.92260356 -54.4375 24.125 C-50.9571575 20.16304352 -46.9382285 17.87872696 -42.375 15.375 C-41.5914917 14.94251953 -40.8079834 14.51003906 -40.00073242 14.06445312 C-13.41280802 -0.30141142 -13.41280802 -0.30141142 0 0 Z " fill="#67D7AA" transform="translate(259.4375,133.875)"/>
<path d="M0 0 C0.66 0.33 1.32 0.66 2 1 C1.66226562 1.89460937 1.32453125 2.78921875 0.9765625 3.7109375 C-5.7280062 21.5028959 -5.7280062 21.5028959 -4 40 C0.14052257 41.38017419 4.05912107 41.87446194 8.1328125 40.0390625 C11.05565164 36.84717541 10.98237017 33.31895819 11.4375 29.125 C12.52428394 20.77069682 14.49940904 13.70683465 18 6 C18.33 6 18.66 6 19 6 C19.35662108 10.99269509 18.24146027 13.60328948 16 18 C14.5000866 22.90356304 13.97219937 27.57712015 13.8125 32.6875 C13.49001038 36.78772514 12.85012286 38.86304366 9.8125 41.6875 C7.3143988 43.45507262 5.9519471 44.00864952 2.875 44.5625 C-0.39973707 43.92179057 -2.36667657 43.04814045 -5 41 C-6.74310465 38.15049813 -7.24923793 36.02696723 -7.23046875 32.70703125 C-7.22853516 31.91232422 -7.22660156 31.11761719 -7.22460938 30.29882812 C-7.21236328 29.47833984 -7.20011719 28.65785156 -7.1875 27.8125 C-7.18685547 26.98041016 -7.18621094 26.14832031 -7.18554688 25.29101562 C-7.14043257 19.14043257 -7.14043257 19.14043257 -6 18 C-5.9175 17.05125 -5.835 16.1025 -5.75 15.125 C-5.07791942 9.66861698 -2.39244696 4.88200431 0 0 Z " fill="#5BC0E5" transform="translate(402,707)"/>
<path d="M0 0 C0.02320123 7.47590034 0.04095473 14.95179288 0.05181217 22.42772198 C0.05702399 25.89933738 0.06409068 29.3709281 0.07543945 32.8425293 C0.08841348 36.83642815 0.09324228 40.83030119 0.09765625 44.82421875 C0.10281754 46.06709152 0.10797882 47.30996429 0.11329651 48.59049988 C0.11337204 49.75132584 0.11344757 50.91215179 0.11352539 52.1081543 C0.115746 53.12741501 0.11796661 54.14667572 0.12025452 55.19682312 C0.00417994 57.90256415 -0.39084966 60.36549032 -1 63 C-3.11699421 59.82450868 -3.22874755 59.38903089 -2.9765625 55.8359375 C-2.92491943 54.97621338 -2.87327637 54.11648926 -2.82006836 53.23071289 C-2.7556958 52.28832764 -2.69132324 51.34594238 -2.625 50.375 C-2.02917223 39.92872461 -1.90555839 29.52153975 -1.9375 19.0625 C-1.93945374 18.31369568 -1.94140747 17.56489136 -1.94342041 16.793396 C-1.9554773 12.52888441 -1.97460005 8.26445613 -2 4 C-4.97 5.32 -7.94 6.64 -11 8 C-9.77352568 4.32057704 -8.83668515 4.07059518 -5.5 2.3125 C-4.6853125 1.87550781 -3.870625 1.43851563 -3.03125 0.98828125 C-1 0 -1 0 0 0 Z " fill="#54B9E6" transform="translate(503,639)"/>
<path d="M0 0 C4.8193864 0.51309057 8.21429135 2.84071812 12.125 5.5 C16.81638836 8.71319108 16.81638836 8.71319108 22 11 C22 11.66 22 12.32 22 13 C22.70253906 13.11601563 23.40507812 13.23203125 24.12890625 13.3515625 C29.33593775 14.52757234 34.12437631 16.86526747 39 19 C39.68578125 19.29390625 40.3715625 19.5878125 41.078125 19.890625 C42.6875 20.625 42.6875 20.625 45 22 C45.495 23.485 45.495 23.485 46 25 C33.69605371 22.16062778 22.60517964 15.67029139 11.8125 9.3125 C11.20124268 8.95655762 10.58998535 8.60061523 9.96020508 8.23388672 C6.04913777 5.87341245 3.08333033 3.31559626 0 0 Z " fill="#87D9EB" transform="translate(199,862)"/>
<path d="M0 0 C0.66 0.33 1.32 0.66 2 1 C1.09378906 1.73863281 0.18757813 2.47726562 -0.74609375 3.23828125 C-7.49753879 8.82779786 -13.52793908 14.36610104 -18.90625 21.33984375 C-21.07907786 24.10047019 -23.4064037 26.62906968 -25.8125 29.1875 C-29.48168532 33.21978179 -31.88017244 37.01392671 -34 42 C-34.69694345 43.48456727 -35.40520243 44.96387807 -36.125 46.4375 C-36.43695313 47.09621094 -36.74890625 47.75492187 -37.0703125 48.43359375 C-38 50 -38 50 -40 51 C-33.78175766 29.92706764 -17.7563526 12.49521109 0 0 Z " fill="#4CC7C2" transform="translate(448,445)"/>
<path d="M0 0 C0 0.66 0 1.32 0 2 C1.75376953 1.98259766 1.75376953 1.98259766 3.54296875 1.96484375 C5.09114423 1.95546087 6.63932145 1.9463612 8.1875 1.9375 C8.95642578 1.92912109 9.72535156 1.92074219 10.51757812 1.91210938 C11.26845703 1.90888672 12.01933594 1.90566406 12.79296875 1.90234375 C13.4789917 1.89710693 14.16501465 1.89187012 14.87182617 1.88647461 C17 2 17 2 19.18554688 2.5 C23.20883628 3.21475509 27.16043091 3.12244231 31.23828125 3.09765625 C32.11904831 3.0962413 32.99981537 3.09482635 33.90727234 3.09336853 C36.70905003 3.08778937 39.51074662 3.07524071 42.3125 3.0625 C44.21679572 3.05748231 46.12109269 3.05291987 48.02539062 3.04882812 C52.68362481 3.03782677 57.34179867 3.02057649 62 3 C62 3.66 62 4.32 62 5 C54.60260782 5.07688183 47.2053209 5.12894407 39.80761719 5.16479492 C37.2978124 5.17976106 34.78803321 5.20014122 32.27832031 5.22631836 C18.53574819 5.36593413 5.37953668 5.45525496 -8 2 C-4.77208445 -0.1519437 -3.71599191 -0.20086443 0 0 Z " fill="#60B7E5" transform="translate(272,891)"/>
<path d="M0 0 C0.66 0.33 1.32 0.66 2 1 C-6.50337661 10.313222 -17.75985312 18.28703278 -29 24 C-29.66 24 -30.32 24 -31 24 C-31 24.66 -31 25.32 -31 26 C-33.15234375 27.4375 -33.15234375 27.4375 -35.9375 29 C-39.62387208 30.86077895 -39.62387208 30.86077895 -42 34 C-41.01 34.33 -40.02 34.66 -39 35 C-39.99 35.495 -39.99 35.495 -41 36 C-43.625 34.5625 -43.625 34.5625 -46 33 C-42.33070853 28.74082243 -37.74861482 26.37872718 -32.9375 23.625 C-25.47851025 19.2609241 -18.37810845 14.58722268 -11.4375 9.4375 C-10.63497803 8.84211426 -9.83245605 8.24672852 -9.00561523 7.63330078 C-5.81094324 5.23013423 -2.77544584 2.88678484 0 0 Z " fill="#51C5C8" transform="translate(578,367)"/>
<path d="M0 0 C17.01951828 10.26574118 41.48987586 29.46962758 48 49 C47.34 49 46.68 49 46 49 C45.34 47.35 44.68 45.7 44 44 C43.34 44 42.68 44 42 44 C41.38125 42.9275 40.7625 41.855 40.125 40.75 C39.75632812 40.11191406 39.38765625 39.47382812 39.0078125 38.81640625 C38 37 38 37 37 34.6875 C36.11684836 32.84143926 36.11684836 32.84143926 34.11328125 32.09375 C31.82805292 30.91100706 30.77535909 29.81219574 29.1875 27.8125 C24.93990101 22.67909519 20.57337705 17.97622798 15.0625 14.1875 C14.051875 13.465625 13.04125 12.74375 12 12 C12 11.34 12 10.68 12 10 C11.42765625 9.731875 10.8553125 9.46375 10.265625 9.1875 C7.92115366 7.95867364 5.87595062 6.57477824 3.75 5 C3.04359375 4.484375 2.3371875 3.96875 1.609375 3.4375 C0.81273437 2.7259375 0.81273437 2.7259375 0 2 C0 1.34 0 0.68 0 0 Z " fill="#68A7E0" transform="translate(553,659)"/>
<path d="M0 0 C0.33 0 0.66 0 1 0 C1.05008562 4.47996623 1.08603769 8.95977661 1.10986328 13.43994141 C1.11981384 14.95852504 1.13337916 16.47709007 1.15087891 17.99560547 C1.42718846 42.61966273 1.42718846 42.61966273 -4 49 C-4.0272415 47.58344207 -4.04650467 46.16672955 -4.0625 44.75 C-4.07410156 43.96109375 -4.08570313 43.1721875 -4.09765625 42.359375 C-4 40 -4 40 -3.51820374 38.08746338 C-2.67520547 34.69164068 -2.52040716 31.21347412 -2.24609375 27.734375 C-2.18092056 26.94097717 -2.11574738 26.14757935 -2.04859924 25.33013916 C-1.84178254 22.80366871 -1.63958098 20.27685321 -1.4375 17.75 C-1.29783051 16.03382936 -1.15786002 14.31768319 -1.01757812 12.6015625 C-0.67489601 8.40131728 -0.33635164 4.2007567 0 0 Z " fill="#9C78E1" transform="translate(895,710)"/>
<path d="M0 0 C0.99 0.66 1.98 1.32 3 2 C1.94425781 2.69222656 1.94425781 2.69222656 0.8671875 3.3984375 C-13.79870745 13.08635244 -27.87837596 23.27117404 -41 35 C-41.66 34.34 -42.32 33.68 -43 33 C-41.42489875 31.51207039 -39.83959136 30.0349394 -38.25 28.5625 C-37.36828125 27.73878906 -36.4865625 26.91507813 -35.578125 26.06640625 C-33.21124968 24.16931982 -31.9490809 23.37897068 -29 23 C-29 22.34 -29 21.68 -29 21 C-27.4453125 19.6953125 -27.4453125 19.6953125 -25.125 18.125 C-24.23167969 17.51527344 -23.33835937 16.90554688 -22.41796875 16.27734375 C-19.74137446 14.48609083 -17.05229429 12.71394531 -14.36328125 10.94140625 C-13.55294434 10.40563965 -12.74260742 9.86987305 -11.90771484 9.31787109 C-10.26931465 8.23650754 -8.62773142 7.15995035 -6.98291016 6.08837891 C-5.84474854 5.33886963 -5.84474854 5.33886963 -4.68359375 4.57421875 C-3.99837646 4.12651123 -3.31315918 3.67880371 -2.60717773 3.2175293 C-0.85322354 2.07552875 -0.85322354 2.07552875 0 0 Z " fill="#5CC5E4" transform="translate(478,630)"/>
<path d="M0 0 C2.2711257 4.02787722 2.07376619 7.31436788 1.6875 11.8125 C1.63916016 12.49892578 1.59082031 13.18535156 1.54101562 13.89257812 C1.30609679 17.03573271 0.98453364 20.09190158 0.4609375 23.203125 C-0.21627235 28.78149767 -0.10398393 34.32440509 -0.0625 39.9375 C-0.05798828 41.09830078 -0.05347656 42.25910156 -0.04882812 43.45507812 C-0.03710647 46.30343934 -0.0206976 49.15169222 0 52 C-0.66 51.67 -1.32 51.34 -2 51 C-2.04986905 45.5048145 -2.08593921 40.00976412 -2.10986328 34.5144043 C-2.1198491 32.64947206 -2.13344246 30.78455519 -2.15087891 28.91967773 C-2.3319431 9.03989442 -2.3319431 9.03989442 0 0 Z " fill="#36C88A" transform="translate(130,277)"/>
<path d="M0 0 C0.66 0 1.32 0 2 0 C2.22155127 2.93705131 2.42774197 5.87380363 2.625 8.8125 C2.68945312 9.64587891 2.75390625 10.47925781 2.8203125 11.33789062 C2.89765625 12.54155273 2.89765625 12.54155273 2.9765625 13.76953125 C3.02893066 14.50792236 3.08129883 15.24631348 3.13525391 16.00708008 C3 18 3 18 1 21 C0.53659566 22.78015083 0.12651868 24.57446835 -0.25 26.375 C-1.90219851 33.37758228 -4.80155216 39.5824024 -8 46 C-8.66 46 -9.32 46 -10 46 C-10.103125 46.556875 -10.20625 47.11375 -10.3125 47.6875 C-11.14178408 50.4769101 -12.34299056 52.6139064 -14 55 C-14.66 55 -15.32 55 -16 55 C-14.60244606 51.1997548 -12.81737365 47.93802221 -10.6875 44.5 C-2.17832556 30.0521309 0.43583851 16.58607652 0 0 Z " fill="#55C6C8" transform="translate(627,279)"/>
<path d="M0 0 C0 5.28 0 10.56 0 16 C-0.33 16 -0.66 16 -1 16 C-1 11.05 -1 6.1 -1 1 C-9.90637062 5.65368417 -18.76427479 10.32620805 -27.38671875 15.4921875 C-30.22410823 17.1293061 -32.9938318 18.69225515 -36 20 C-36.99 19.67 -37.98 19.34 -39 19 C-32.29423976 15.19035818 -25.58129622 11.39374267 -18.85986328 7.61181641 C-17.13241385 6.63822744 -15.40638809 5.66209783 -13.68310547 4.68115234 C-11.87728315 3.65322272 -10.06406285 2.63831611 -8.25 1.625 C-7.28578125 1.08101563 -6.3215625 0.53703125 -5.328125 -0.0234375 C-3 -1 -3 -1 0 0 Z " fill="#4DC6C2" transform="translate(502,416)"/>
<path d="M0 0 C4.39705126 6.59557689 5.26306552 14.262188 6 22 C6.33 22.33 6.66 22.66 7 23 C7.93119789 28.0698552 8.08997924 32.87118304 8 38 C5.76348371 34.64522556 4.93154279 31.48050186 4 27.625 C3.82629883 26.91617676 3.65259766 26.20735352 3.47363281 25.47705078 C1.46444155 17.06144199 -0.15452845 8.67934779 0 0 Z " fill="#86DDD7" transform="translate(128,737)"/>
<path d="M0 0 C0.66 0 1.32 0 2 0 C-0.85182778 16.2496764 -3.49030919 31.19561012 -13 45 C-14 42 -14 42 -12.6875 38.875 C-11 36 -11 36 -9 35 C-8.12606483 32.68858179 -8.12606483 32.68858179 -7.4375 30 C-6.09197652 25.09197652 -6.09197652 25.09197652 -5 24 C-3.38476996 17.84193546 -2.67216366 11.9563668 -2.34375 5.6015625 C-2 3 -2 3 0 0 Z " fill="#52C5C0" transform="translate(611,277)"/>
<path d="M0 0 C2.38564077 0.57584432 4.66682784 1.22227595 7 2 C7 2.66 7 3.32 7 4 C7.78375 4.185625 8.5675 4.37125 9.375 4.5625 C13.69227355 6.27452227 17.01084215 8.69311071 20.73046875 11.44140625 C22.99914531 13.15325952 22.99914531 13.15325952 26 14 C26.66 11.69 27.32 9.38 28 7 C28.33 7 28.66 7 29 7 C29 10.63 29 14.26 29 18 C21.1775535 14.35997097 13.79900606 10.42381085 6.625 5.625 C5.96491943 5.18430176 5.30483887 4.74360352 4.62475586 4.28955078 C3.06127065 3.22449276 1.52717185 2.11650379 0 1 C0 0.67 0 0.34 0 0 Z " fill="#4AC4B8" transform="translate(474,367)"/>
<path d="M0 0 C0.33 0.99 0.66 1.98 1 3 C0.525625 3.433125 0.05125 3.86625 -0.4375 4.3125 C-2.23686957 6.02309613 -2.23686957 6.02309613 -3 9 C-4.30794331 10.35824882 -5.64900897 11.68456137 -7 13 C-8.0658888 14.26799238 -9.12801527 15.53915177 -10.1875 16.8125 C-13.97764402 21.2041234 -18.31924162 24.60353133 -23 28 C-23.66 27.67 -24.32 27.34 -25 27 C-24.26136719 26.35675781 -23.52273438 25.71351563 -22.76171875 25.05078125 C-14.27644218 17.53710123 -6.31205058 9.46807587 0 0 Z " fill="#4FC5CA" transform="translate(610,334)"/>
<path d="M0 0 C0 0.66 0 1.32 0 2 C-10.23 2 -20.46 2 -31 2 C-29 0 -29 0 -26.93359375 -0.16015625 C-26.10988281 -0.12792969 -25.28617188 -0.09570312 -24.4375 -0.0625 C-21.00043563 0.01178813 -17.72400949 -0.07209589 -14.3125 -0.5 C-9.38951802 -1.10992697 -4.76684607 -1.58894869 0 0 Z " fill="#976DE1" transform="translate(743,894)"/>
<path d="M0 0 C4.47421278 3.68222569 6.43022606 8.4845055 8.8125 13.625 C9.23208984 14.49640625 9.65167969 15.3678125 10.08398438 16.265625 C12.34875995 21.08620169 12.34875995 21.08620169 13 23 C12.67 23.66 12.34 24.32 12 25 C8.60260636 21.84579457 6.90954281 18.29757458 4.875 14.1875 C4.51535156 13.48818359 4.15570312 12.78886719 3.78515625 12.06835938 C1.77369314 8.04166638 0.47024476 4.53857443 0 0 Z " fill="#88D9EC" transform="translate(870,211)"/>
<path d="M0 0 C6.38063298 1.91475555 12.14517871 4.3975922 18 7.5625 C18.76183594 7.96146484 19.52367187 8.36042969 20.30859375 8.77148438 C25.87036949 11.74073898 25.87036949 11.74073898 27 14 C24.525 13.505 24.525 13.505 22 13 C22 12.34 22 11.68 22 11 C20.68 11 19.36 11 18 11 C18 10.34 18 9.68 18 9 C17.05125 8.855625 16.1025 8.71125 15.125 8.5625 C12 8 12 8 10 7 C10 6.34 10 5.68 10 5 C9.0925 4.87625 8.185 4.7525 7.25 4.625 C4.41029677 4.07890323 2.47409409 3.42736197 0 2 C0 1.34 0 0.68 0 0 Z " fill="#82DADA" transform="translate(786,140)"/>
<path d="M0 0 C13.09977103 -0.67563289 25.2019422 1.33845701 38 4 C38 4.33 38 4.66 38 5 C35.85423363 5.02685938 33.70837355 5.04633088 31.5625 5.0625 C30.36753906 5.07410156 29.17257812 5.08570313 27.94140625 5.09765625 C25 5 25 5 24 4 C22.67218122 3.79395915 21.33704105 3.6337041 20 3.5 C16.11111111 3.11111111 16.11111111 3.11111111 15 2 C12.47403741 1.76346477 9.96892793 1.57826308 7.4375 1.4375 C6.72658203 1.39431641 6.01566406 1.35113281 5.28320312 1.30664062 C3.52238088 1.20028223 1.7612168 1.09961154 0 1 C0 0.67 0 0.34 0 0 Z " fill="#87DCD8" transform="translate(726,128)"/>
<path d="M0 0 C3.20758246 0.64880645 5.67190321 1.80553319 8.5 3.4375 C11.29931162 5.04326951 14.10000291 6.58295597 17 8 C17 8.66 17 9.32 17 10 C17.721875 10.28875 18.44375 10.5775 19.1875 10.875 C20.115625 11.24625 21.04375 11.6175 22 12 C22.845625 12.28875 23.69125 12.5775 24.5625 12.875 C27.37125675 14.17134927 29.01254541 15.64449827 31 18 C31 18.66 31 19.32 31 20 C27.17445589 18.64540342 24.33159766 16.9098767 21.125 14.4375 C15.88551655 10.52401442 10.43215762 7.15957568 4.77587891 3.88256836 C3.16970415 2.94566782 1.58266783 1.97608529 0 1 C0 0.67 0 0.34 0 0 Z " fill="#5EB5E4" transform="translate(536,627)"/>
<path d="M0 0 C0.66 0.33 1.32 0.66 2 1 C1.38253906 1.680625 0.76507813 2.36125 0.12890625 3.0625 C-6.89375773 11.10061767 -12.04401086 19.56686124 -17 29 C-17.66 29 -18.32 29 -19 29 C-17.58707905 24.1725201 -15.57025846 20.2837641 -13 16 C-12.34 16 -11.68 16 -11 16 C-10.7525 15.29875 -10.505 14.5975 -10.25 13.875 C-8.82819762 10.60485452 -7.12753712 7.858878 -5 5 C-4.34 5 -3.68 5 -3 5 C-2.690625 4.360625 -2.38125 3.72125 -2.0625 3.0625 C-1 1 -1 1 0 0 Z " fill="#5AC4E2" transform="translate(422,677)"/>
<path d="M0 0 C2.2559656 3.3839484 3.1110275 6.61105927 4.0625 10.5 C4.2387793 11.20962891 4.41505859 11.91925781 4.59667969 12.65039062 C5.9710459 18.40246397 6.74937204 24.08518016 7 30 C1.025547 21.0383205 0.61477323 10.46732313 0 0 Z " fill="#95DAF1" transform="translate(888,250)"/>
<path d="M0 0 C2.56376764 1.26832688 5.12602212 2.53956365 7.6875 3.8125 C8.40873047 4.16892578 9.12996094 4.52535156 9.87304688 4.89257812 C13.68140477 6.78806219 17.38873857 8.74207126 21 11 C18.0094833 14.33557632 15.06815373 16.15083921 11 18 C11.33 17.01 11.66 16.02 12 15 C13.33333333 14.33333333 14.66666667 13.66666667 16 13 C16.33 12.01 16.66 11.02 17 10 C16.47921875 9.90847656 15.9584375 9.81695313 15.421875 9.72265625 C12.12441749 8.73873748 9.24326632 7.09859834 6.25 5.4375 C5.64800781 5.10814453 5.04601562 4.77878906 4.42578125 4.43945312 C2.94829497 3.6303535 1.47383964 2.81572338 0 2 C0 1.34 0 0.68 0 0 Z " fill="#5CC4E1" transform="translate(471,613)"/>
<path d="M0 0 C2.49361571 1.20381448 4.68143083 2.45428722 7 4 C7 4.66 7 5.32 7 6 C7.556875 6.2475 8.11375 6.495 8.6875 6.75 C11.42410913 8.22924818 13.67650869 9.93467439 16 12 C16 12.66 16 13.32 16 14 C16.7425 14.226875 17.485 14.45375 18.25 14.6875 C21.51139591 16.24407532 22.92894975 18.08518854 25 21 C15.87321412 16.76402539 5.55185236 8.32777853 0 0 Z " fill="#4DC4B2" transform="translate(445,343)"/>
<path d="M0 0 C1.32 0.33 2.64 0.66 4 1 C3.73445312 1.51949219 3.46890625 2.03898438 3.1953125 2.57421875 C-0.35451832 9.40442985 -0.35451832 9.40442985 -2.5 16.75 C-2.665 17.4925 -2.83 18.235 -3 19 C-3.66 19.33 -4.32 19.66 -5 20 C-5.85129163 12.67889195 -2.80012917 6.65030678 0 0 Z " fill="#53D39D" transform="translate(142,231)"/>
<path d="M0 0 C0 0.66 0 1.32 0 2 C-0.66 2 -1.32 2 -2 2 C-2.33 2.99 -2.66 3.98 -3 5 C-8.22047404 8.37030604 -13.98222623 10.56096714 -20 12 C-16.7106702 8.3304964 -13.12557223 6.11629795 -8.875 3.75 C-8.24207031 3.38648438 -7.60914063 3.02296875 -6.95703125 2.6484375 C-2.2675047 0 -2.2675047 0 0 0 Z " fill="#68D8A8" transform="translate(225,146)"/>
<path d="M0 0 C3.01737995 2.86350026 5.42582179 5.84740378 7.8125 9.25 C11.28074184 14.09773015 14.97358557 18.60869177 19 23 C18.67 23.66 18.34 24.32 18 25 C13.73407468 21.70360316 10.74039221 18.74298651 8 14 C8 13.34 8 12.68 8 12 C7.34 12 6.68 12 6 12 C4.4921875 10.13671875 4.4921875 10.13671875 2.875 7.6875 C2.33617187 6.88699219 1.79734375 6.08648437 1.2421875 5.26171875 C0 3 0 3 0 0 Z " fill="#4DC4AB" transform="translate(407,325)"/>
<path d="M0 0 C0.66 0 1.32 0 2 0 C1.49159115 4.82630375 0.13041456 7.8601092 -2.5625 11.875 C-3.52349609 13.32519531 -3.52349609 13.32519531 -4.50390625 14.8046875 C-4.99761719 15.52914062 -5.49132812 16.25359375 -6 17 C-6.66 16.67 -7.32 16.34 -8 16 C-6.43089051 11.68494889 -4.30196072 7.95649499 -2 4 C-1.3197633 2.67353844 -0.64507739 1.34391123 0 0 Z " fill="#A475E3" transform="translate(873,802)"/>
<path d="M0 0 C0.734375 1.65234375 0.734375 1.65234375 1 4 C-0.546875 6.69140625 -0.546875 6.69140625 -2.75 9.5625 C-3.46671875 10.51253906 -4.1834375 11.46257813 -4.921875 12.44140625 C-6.53795066 14.43112346 -8.13638795 16.24844057 -10 18 C-10.99 17.67 -11.98 17.34 -13 17 C-12.56429687 16.52691406 -12.12859375 16.05382812 -11.6796875 15.56640625 C-7.26689603 10.66648845 -3.52096516 5.57163718 0 0 Z " fill="#DEF9FE" transform="translate(610,542)"/>
<path d="M0 0 C0.33 0.99 0.66 1.98 1 3 C0.67 3.33 0.34 3.66 0 4 C-0.35840222 6.32961443 -0.68848712 8.66365343 -1 11 C-1.71561268 15.08921531 -2.82898699 19.01855576 -4 23 C-5.25180279 18.78080897 -4.67252421 15.03911435 -4.0625 10.75 C-3.91264648 9.63238281 -3.91264648 9.63238281 -3.75976562 8.4921875 C-3.51319844 6.66054558 -3.25749609 4.83013749 -3 3 C-2.34 3 -1.68 3 -1 3 C-0.67 2.01 -0.34 1.02 0 0 Z " fill="#40CC90" transform="translate(136,253)"/>
<path d="M0 0 C0.66 0 1.32 0 2 0 C1.81824219 0.52207031 1.63648438 1.04414062 1.44921875 1.58203125 C-1.64545059 10.64385789 -4.21538988 19.42775655 -5 29 C-5.33 29 -5.66 29 -6 29 C-6.54156272 14.53826963 -6.54156272 14.53826963 -3 8 C-2.32204472 6.00379834 -1.65266469 4.00461299 -1 2 C-0.67 1.34 -0.34 0.68 0 0 Z " fill="#D8F9FD" transform="translate(419,711)"/>
<path d="M0 0 C7.60913098 1.2794114 14.73225897 3.42756933 22 6 C21.01 6.66 20.02 7.32 19 8 C16.87890625 7.57421875 16.87890625 7.57421875 14.5625 6.6875 C11.72098258 5.62493596 8.95877514 4.68072048 6 4 C6 3.34 6 2.68 6 2 C4.02 2 2.04 2 0 2 C0 1.34 0 0.68 0 0 Z " fill="#80D9D7" transform="translate(764,133)"/>
<path d="M0 0 C0.66 0.33 1.32 0.66 2 1 C0.44523615 2.77816682 -1.11816024 4.54727102 -2.6875 6.3125 C-3.55761719 7.29863281 -4.42773438 8.28476563 -5.32421875 9.30078125 C-7.78749661 11.78563526 -9.84522538 13.51129034 -13 15 C-13.66 14.67 -14.32 14.34 -15 14 C-10.18808428 9.07559794 -5.29012124 4.40843437 0 0 Z " fill="#76DCB3" transform="translate(192,166)"/>
<path d="M0 0 C0 0.66 0 1.32 0 2 C6.27 2.66 12.54 3.32 19 4 C19 4.33 19 4.66 19 5 C9.66824711 5.5338079 1.07449185 3.91281635 -8 2 C-4.77208445 -0.1519437 -3.71599191 -0.20086443 0 0 Z " fill="#9EDCF1" transform="translate(272,891)"/>
<path d="M0 0 C0.99 0.33 1.98 0.66 3 1 C0.92084841 2.79672348 -1.16300651 4.58742527 -3.25 6.375 C-4.12978516 7.13683594 -4.12978516 7.13683594 -5.02734375 7.9140625 C-7.88165933 10.35145558 -10.4880973 12.55699048 -14 14 C-13.34 12.68 -12.68 11.36 -12 10 C-11.34 10 -10.68 10 -10 10 C-10 9.34 -10 8.68 -10 8 C-9.01 8 -8.02 8 -7 8 C-7 7.34 -7 6.68 -7 6 C-6.34 6 -5.68 6 -5 6 C-5 5.34 -5 4.68 -5 4 C-4.34 4 -3.68 4 -3 4 C-3 3.34 -3 2.68 -3 2 C-2.01 1.34 -1.02 0.68 0 0 Z " fill="#55C5C3" transform="translate(570,349)"/>
<path d="M0 0 C0.99 0.33 1.98 0.66 3 1 C2.50371094 1.47308594 2.00742187 1.94617188 1.49609375 2.43359375 C-3.49875321 7.29575027 -7.85261817 12.40103452 -12 18 C-12.33 17.34 -12.66 16.68 -13 16 C-11.7260411 13.96166576 -10.38938077 11.96147874 -9 10 C-8.34 10 -7.68 10 -7 10 C-6.773125 9.278125 -6.54625 8.55625 -6.3125 7.8125 C-4.75168987 4.46790687 -2.6968713 2.48396041 0 0 Z " fill="#47C4BB" transform="translate(418,445)"/>
<path d="M0 0 C1.98 0.99 3.96 1.98 6 3 C6 3.99 6 4.98 6 6 C-0.435 8.97 -0.435 8.97 -7 12 C-7 11.34 -7 10.68 -7 10 C-6.15115234 9.63648438 -6.15115234 9.63648438 -5.28515625 9.265625 C-4.55167969 8.93046875 -3.81820313 8.5953125 -3.0625 8.25 C-2.33160156 7.92515625 -1.60070312 7.6003125 -0.84765625 7.265625 C1.18806644 6.13830628 1.18806644 6.13830628 1.75390625 3.859375 C1.83511719 3.24578125 1.91632813 2.6321875 2 2 C1.34 2 0.68 2 0 2 C0 1.34 0 0.68 0 0 Z " fill="#4FC4BD" transform="translate(485,395)"/>
<path d="M0 0 C2.61763011 3.8459027 2.09033111 7.70069559 1.75 12.125 C1.71003906 12.85332031 1.67007813 13.58164062 1.62890625 14.33203125 C1.25897507 19.74102493 1.25897507 19.74102493 -1 22 C-1.02716824 19.45826023 -1.04691969 16.91681585 -1.0625 14.375 C-1.07087891 13.66214844 -1.07925781 12.94929688 -1.08789062 12.21484375 C-1.10710296 8.02655562 -0.8267327 4.1271538 0 0 Z " fill="#1CC07A" transform="translate(130,277)"/>
<path d="M0 0 C1.2065625 0.0309375 1.2065625 0.0309375 2.4375 0.0625 C0.10534638 3.56073043 -0.58160264 3.9843403 -4.5625 5.0625 C-7.90320041 5.22109374 -11.22095051 5.17929202 -14.5625 5.0625 C-14.5625 4.7325 -14.5625 4.4025 -14.5625 4.0625 C-13.78003906 3.85753906 -12.99757813 3.65257812 -12.19140625 3.44140625 C-11.17949219 3.17199219 -10.16757812 2.90257812 -9.125 2.625 C-8.11566406 2.35816406 -7.10632813 2.09132813 -6.06640625 1.81640625 C-0.03664741 0.00089384 -0.03664741 0.00089384 0 0 Z " fill="#9D67E2" transform="translate(782.5625,882.9375)"/>
<path d="M0 0 C0.66 0 1.32 0 2 0 C1.45015228 3.87511727 -0.27555331 5.59576506 -3.0625 8.25 C-3.79597656 8.95640625 -4.52945313 9.6628125 -5.28515625 10.390625 C-5.85105469 10.92171875 -6.41695312 11.4528125 -7 12 C-7.66 11.01 -8.32 10.02 -9 9 C-8.01 8.67 -7.02 8.34 -6 8 C-6 7.34 -6 6.68 -6 6 C-5.34 6 -4.68 6 -4 6 C-4 5.34 -4 4.68 -4 4 C-3.34 4 -2.68 4 -2 4 C-2 3.34 -2 2.68 -2 2 C-1.34 2 -0.68 2 0 2 C0 1.34 0 0.68 0 0 Z " fill="#B18BE5" transform="translate(847,839)"/>
<path d="M0 0 C3.97320783 1.32440261 4.80660116 3.17734416 7.125 6.625 C7.82882812 7.64851563 8.53265625 8.67203125 9.2578125 9.7265625 C11.13300126 13.24989924 11.6714822 16.04783134 12 20 C9.63360977 17.00679807 7.79245774 13.92802612 6 10.5625 C4.08741976 6.98139272 2.11389282 3.46653256 0 0 Z " fill="#62C8E3" transform="translate(618,462)"/>
<path d="M0 0 C0.66 0.33 1.32 0.66 2 1 C-1.63 4.63 -5.26 8.26 -9 12 C-9.33 10.68 -9.66 9.36 -10 8 C-7.13489873 4.54502493 -4.04192324 1.96634103 0 0 Z " fill="#4BD098" transform="translate(181,178)"/>
<path d="M0 0 C5.59363406 4.06133537 10.85963514 8.3791401 16 13 C15.01 13.33 14.02 13.66 13 14 C12.67 13.01 12.34 12.02 12 11 C9.98491642 10.26676204 9.98491642 10.26676204 8 10 C8 9.34 8 8.68 8 8 C7.34 8 6.68 8 6 8 C6 7.34 6 6.68 6 6 C5.34 6 4.68 6 4 6 C4 5.34 4 4.68 4 4 C2.68 3.34 1.36 2.68 0 2 C0 1.34 0 0.68 0 0 Z " fill="#4DC5B1" transform="translate(433,357)"/>
<path d="M0 0 C1.63001953 0.01353516 1.63001953 0.01353516 3.29296875 0.02734375 C4.12441406 0.03894531 4.95585937 0.05054688 5.8125 0.0625 C5.8125 0.3925 5.8125 0.7225 5.8125 1.0625 C4.3584375 1.2171875 4.3584375 1.2171875 2.875 1.375 C-1.67343839 2.00879879 -5.88167104 3.51005827 -10.1875 5.0625 C-10.5175 4.4025 -10.8475 3.7425 -11.1875 3.0625 C-10.5275 3.0625 -9.8675 3.0625 -9.1875 3.0625 C-9.1875 2.4025 -9.1875 1.7425 -9.1875 1.0625 C-5.90230525 -0.03256492 -3.45086585 -0.03710608 0 0 Z " fill="#3FCB90" transform="translate(259.1875,133.9375)"/>
<path d="M0 0 C-0.33 0.66 -0.66 1.32 -1 2 C-2.8125 2.37890625 -2.8125 2.37890625 -5 2.5625 C-7.78932058 2.62665408 -7.78932058 2.62665408 -10 4 C-12.67058851 4.14115161 -15.32432238 4.04247107 -18 4 C-16.67661368 3.31379969 -15.34050052 2.65213539 -14 2 C-13.278125 1.62875 -12.55625 1.2575 -11.8125 0.875 C-7.8617753 -0.35411435 -4.10464516 -0.16096648 0 0 Z " fill="#40C88E" transform="translate(286,129)"/>
<path d="M0 0 C3 1 3 1 4.1875 2.6875 C5.19313465 5.54969093 5.13689641 7.98827908 5 11 C5.66 11.33 6.32 11.66 7 12 C6.01 13.485 6.01 13.485 5 15 C4.16013916 13.06532058 3.32831973 11.12714871 2.5 9.1875 C2.0359375 8.10855469 1.571875 7.02960937 1.09375 5.91796875 C0 3 0 3 0 0 Z " fill="#85DCDA" transform="translate(136,775)"/>
<path d="M0 0 C1.32 0.33 2.64 0.66 4 1 C-0.29 3.97 -4.58 6.94 -9 10 C-9.33 9.34 -9.66 8.68 -10 8 C-9.34 8 -8.68 8 -8 8 C-8 7.34 -8 6.68 -8 6 C-7.34 6 -6.68 6 -6 6 C-6 5.34 -6 4.68 -6 4 C-3 2 -3 2 0 2 C0 1.34 0 0.68 0 0 Z " fill="#DCFBFE" transform="translate(475,653)"/>
<path d="M0 0 C3.39652015 3.07304204 5.32009798 6.80337244 7.5625 10.75 C8.80262556 13.11504422 8.80262556 13.11504422 11 14 C10.67 14.99 10.34 15.98 10 17 C8.70681744 15.3970551 7.41550844 13.79259858 6.125 12.1875 C5.40570313 11.29417969 4.68640625 10.40085937 3.9453125 9.48046875 C0 4.4497992 0 4.4497992 0 0 Z " fill="#46C3A9" transform="translate(424,315)"/>
<path d="M0 0 C1.23922223 3.71766668 0.57018942 5.43889537 -0.4375 9.1875 C-0.72496094 10.27417969 -1.01242187 11.36085938 -1.30859375 12.48046875 C-1.65083984 13.72763672 -1.65083984 13.72763672 -2 15 C-2.33 15 -2.66 15 -3 15 C-3.08078641 12.87561661 -3.13909141 10.7503677 -3.1875 8.625 C-3.22230469 7.44164062 -3.25710938 6.25828125 -3.29296875 5.0390625 C-3.19628906 4.03617188 -3.09960938 3.03328125 -3 2 C-2.01 1.34 -1.02 0.68 0 0 Z " fill="#B894E9" transform="translate(892,757)"/>
<path d="M0 0 C1.45823212 -0.0270043 2.91660675 -0.04639787 4.375 -0.0625 C5.18710938 -0.07410156 5.99921875 -0.08570313 6.8359375 -0.09765625 C9 0 9 0 11 1 C11 1.66 11 2.32 11 3 C13.97 3.495 13.97 3.495 17 4 C13.02623171 5.56393356 10.18622097 4.36145292 6.25 3.0625 C4.49429688 2.49208984 4.49429688 2.49208984 2.703125 1.91015625 C1.81109375 1.60980469 0.9190625 1.30945313 0 1 C0 0.67 0 0.34 0 0 Z " fill="#94DBF1" transform="translate(246,887)"/>
<path d="M0 0 C0.99 0.33 1.98 0.66 3 1 C0.36 3.97 -2.28 6.94 -5 10 C-5.33 9.01 -5.66 8.02 -6 7 C-4.78515625 5.17578125 -4.78515625 5.17578125 -3.0625 3.3125 C-2.49660156 2.68988281 -1.93070312 2.06726563 -1.34765625 1.42578125 C-0.90292969 0.95527344 -0.45820313 0.48476563 0 0 Z " fill="#4FC2EB" transform="translate(442,683)"/>
<path d="M0 0 C0.33 0 0.66 0 1 0 C1.06058594 0.99 1.12117188 1.98 1.18359375 3 C1.60460466 9.69466638 2.05074129 16.35518903 3 23 C0.95529751 21.33263592 0.07433079 20.47502434 -0.34057617 17.82348633 C-0.32486572 17.00130615 -0.30915527 16.17912598 -0.29296875 15.33203125 C-0.28330078 14.43935547 -0.27363281 13.54667969 -0.26367188 12.62695312 C-0.23853516 11.69818359 -0.21339844 10.76941406 -0.1875 9.8125 C-0.17396484 8.87212891 -0.16042969 7.93175781 -0.14648438 6.96289062 C-0.11113096 4.64134962 -0.06178674 2.32096347 0 0 Z " fill="#C1F2F1" transform="translate(405,507)"/>
<path d="M0 0 C0.33 0 0.66 0 1 0 C0.91911825 3.10523354 0.8062811 6.20850333 0.6875 9.3125 C0.66494141 10.19357422 0.64238281 11.07464844 0.61914062 11.98242188 C0.5659668 13.25375977 0.5659668 13.25375977 0.51171875 14.55078125 C0.48553467 15.33106689 0.45935059 16.11135254 0.43237305 16.9152832 C-0.0931671 19.44921166 -1.0408526 20.36927777 -3 22 C-2.11796547 14.64971227 -1.05987432 7.32650983 0 0 Z " fill="#CEF8F7" transform="translate(611,280)"/>
<path d="M0 0 C3.03952713 4.5592907 5 8.47162419 5 14 C4.34 14 3.68 14 3 14 C2.67 12.02 2.34 10.04 2 8 C1.34 8 0.68 8 0 8 C0 5.36 0 2.72 0 0 Z " fill="#85D7EF" transform="translate(883,236)"/>
<path d="M0 0 C0 0.99 0 1.98 0 3 C-0.969375 3.433125 -1.93875 3.86625 -2.9375 4.3125 C-6.27731765 5.7014861 -6.27731765 5.7014861 -7 9 C-8.32 8.34 -9.64 7.68 -11 7 C-8.81482901 4.59424393 -6.74080329 3.20464419 -3.8125 1.8125 C-2.73935547 1.29623047 -2.73935547 1.29623047 -1.64453125 0.76953125 C-1.10183594 0.51558594 -0.55914063 0.26164063 0 0 Z " fill="#5FB9E2" transform="translate(543,618)"/>
<path d="M0 0 C3.26008643 3.16952847 6.22237877 6.39937989 9 10 C8.67 10.66 8.34 11.32 8 12 C7.01 11.67 6.02 11.34 5 11 C5 9.68 5 8.36 5 7 C4.360625 6.773125 3.72125 6.54625 3.0625 6.3125 C1 5 1 5 0.25 2.375 C0.1675 1.59125 0.085 0.8075 0 0 Z " fill="#88DBE8" transform="translate(858,194)"/>
<path d="M0 0 C0.99 0 1.98 0 3 0 C6.42857143 7.28571429 6.42857143 7.28571429 6 12 C3.25207517 8.59780735 0 4.51535412 0 0 Z " fill="#8EDEDD" transform="translate(144,795)"/>
<path d="M0 0 C0.66 0.33 1.32 0.66 2 1 C0.78192862 2.15762119 -0.45001235 3.3006583 -1.6875 4.4375 C-2.71423828 5.39462891 -2.71423828 5.39462891 -3.76171875 6.37109375 C-6.22289422 8.16221098 -8.00816574 8.62798558 -11 9 C-7.56638098 5.36440339 -4.2026393 2.63886654 0 0 Z " fill="#D9FAFE" transform="translate(466,641)"/>
<path d="M0 0 C-5.93891422 2.5915262 -10.54107286 3.40368295 -17 3 C-14.20261218 1.4932252 -11.59677568 0.51775885 -8.5 -0.1875 C-7.7471875 -0.36667969 -6.994375 -0.54585937 -6.21875 -0.73046875 C-3.85166621 -1.01801942 -2.25455985 -0.72248395 0 0 Z " fill="#82E0BA" transform="translate(274,131)"/>
<path d="M0 0 C2.32579101 3.48868651 2.41865457 4.89718519 2 9 C0.5 11.375 0.5 11.375 -1 13 C-1.0272415 11.58344207 -1.04650467 10.16672955 -1.0625 8.75 C-1.07410156 7.96109375 -1.08570313 7.1721875 -1.09765625 6.359375 C-1.00385306 4.09308998 -0.63241063 2.1711105 0 0 Z " fill="#9E74E2" transform="translate(892,746)"/>
<path d="M0 0 C-2.41698499 1.94918144 -4.18746401 3.00815254 -7.3359375 2.9765625 C-9.57364473 2.71537901 -11.78327805 2.40084514 -14 2 C-14 1.67 -14 1.34 -14 1 C-12.23103898 0.63659714 -10.45973374 0.28459117 -8.6875 -0.0625 C-7.70136719 -0.25972656 -6.71523438 -0.45695313 -5.69921875 -0.66015625 C-3 -1 -3 -1 0 0 Z " fill="#9C71E1" transform="translate(754,892)"/>
<path d="M0 0 C3.3125 0.625 3.3125 0.625 7 2 C8.9375 5.125 8.9375 5.125 10 8 C6.05205855 6.32971708 3.18203882 3.8204435 0 1 C0 0.67 0 0.34 0 0 Z " fill="#94E1EB" transform="translate(189,854)"/>
<path d="M0 0 C-1.43011973 0.86646667 -2.86940619 1.71781829 -4.3125 2.5625 C-5.51326172 3.27599609 -5.51326172 3.27599609 -6.73828125 4.00390625 C-9 5 -9 5 -12 4 C-11.34 4 -10.68 4 -10 4 C-10 3.01 -10 2.02 -10 1 C-8.71073008 0.63720544 -7.41846728 0.28503302 -6.125 -0.0625 C-5.40570313 -0.25972656 -4.68640625 -0.45695313 -3.9453125 -0.66015625 C-2 -1 -2 -1 0 0 Z " fill="#3ECC8D" transform="translate(235,144)"/>
<path d="M0 0 C0 0.33 0 0.66 0 1 C-1.8253125 1.1546875 -1.8253125 1.1546875 -3.6875 1.3125 C-7.41069448 1.76219312 -9.91662995 2.78382778 -13 5 C-10.04964557 -1.80851023 -6.4752192 -1.06151134 0 0 Z " fill="#D0FBF8" transform="translate(517,276)"/>
<path d="M0 0 C1.32342458 3.97027374 0.36639254 6.11656858 -1 10 C-1.99 10.495 -1.99 10.495 -3 11 C-3.125 4.375 -3.125 4.375 -2 1 C-1.34 0.67 -0.68 0.34 0 0 Z " fill="#40CA92" transform="translate(140,240)"/>
<path d="M0 0 C0.66 0.33 1.32 0.66 2 1 C1 4 1 4 -2.375 5.6875 C-6 7 -6 7 -9 7 C-6.03 4.69 -3.06 2.38 0 0 Z " fill="#71DDB1" transform="translate(203,158)"/>
<path d="M0 0 C3.54971796 0.60852308 6.76693609 1.38346804 10 3 C10.33 3.99 10.66 4.98 11 6 C8.64828869 5.40138258 6.3140622 4.73075648 4 4 C3.67 3.34 3.34 2.68 3 2 C2.01 1.34 1.02 0.68 0 0 Z " fill="#7BD2EC" transform="translate(234,881)"/>
<path d="M0 0 C1.32 0.33 2.64 0.66 4 1 C4.33 2.65 4.66 4.3 5 6 C5.99 6 6.98 6 8 6 C7.67 6.99 7.34 7.98 7 9 C4.03595495 6.19195732 1.55500981 3.81684226 0 0 Z " fill="#8EDEE2" transform="translate(159,821)"/>
<path d="M0 0 C0.66 0 1.32 0 2 0 C1.38545304 3.99455527 -0.70646737 6.74466336 -3 10 C-3.33 9.34 -3.66 8.68 -4 8 C-1.48571429 1.48571429 -1.48571429 1.48571429 0 0 Z " fill="#B289E6" transform="translate(864,818)"/>
<path d="M0 0 C1.11511089 3.34533267 0.93410412 3.88053566 -0.3125 7 C-0.57675781 7.680625 -0.84101562 8.36125 -1.11328125 9.0625 C-2 11 -2 11 -4 14 C-3.53328373 8.58609132 -2.75702189 4.79482068 0 0 Z " fill="#55B9E7" transform="translate(634,531)"/>
<path d="M0 0 C0.66 0.33 1.32 0.66 2 1 C-4.07439825 7.70459519 -4.07439825 7.70459519 -7.9375 8.9375 C-8.9584375 8.9684375 -8.9584375 8.9684375 -10 9 C-6.85281112 5.7317654 -3.50647501 2.8689341 0 0 Z " fill="#57C6CA" transform="translate(578,367)"/>
<path d="M0 0 C0.66 0 1.32 0 2 0 C0.6302836 3.99500618 -1.25722422 6.80009492 -4 10 C-4.20086443 6.28400809 -4.1519437 5.22791555 -2 2 C-1.34 2 -0.68 2 0 2 C0 1.34 0 0.68 0 0 Z " fill="#D8FBFB" transform="translate(417,473)"/>
<path d="M0 0 C-1 3 -1 3 -3 4.0625 C-3.66 4.371875 -4.32 4.68125 -5 5 C-5.33 5.66 -5.66 6.32 -6 7 C-7.32 6.67 -8.64 6.34 -10 6 C-8.71283353 4.99421411 -7.42011342 3.99553202 -6.125 3 C-5.40570313 2.443125 -4.68640625 1.88625 -3.9453125 1.3125 C-2 0 -2 0 0 0 Z " fill="#53C8C4" transform="translate(463,436)"/>
<path d="M0 0 C-1.38009621 3.33523252 -2.84950652 5.18607951 -6 7 C-6.99 6.67 -7.98 6.34 -9 6 C-7.8803014 4.99406757 -6.7540588 3.9954151 -5.625 3 C-4.68527344 2.1646875 -4.68527344 2.1646875 -3.7265625 1.3125 C-2 0 -2 0 0 0 Z " fill="#67C7E8" transform="translate(464,665)"/>
<path d="M0 0 C3.02419525 0.58803797 6.01758453 1.22678118 9 2 C9 2.99 9 3.98 9 5 C5.22454612 3.90931332 2.52956528 3.0916909 0 0 Z " fill="#D2F9F9" transform="translate(529,417)"/>
<path d="M0 0 C1.3921875 0.0928125 1.3921875 0.0928125 2.8125 0.1875 C2.8125 0.8475 2.8125 1.5075 2.8125 2.1875 C-1.6425 2.6825 -1.6425 2.6825 -6.1875 3.1875 C-3.1875 0.1875 -3.1875 0.1875 0 0 Z " fill="#B996E5" transform="translate(757.1875,890.8125)"/>
<path d="M0 0 C0.66 0.33 1.32 0.66 2 1 C0.35 3.64 -1.3 6.28 -3 9 C-4 6 -4 6 -3.1875 3.375 C-2 1 -2 1 0 0 Z " fill="#40CA8D" transform="translate(155,210)"/>
<path d="M0 0 C0.66 0.33 1.32 0.66 2 1 C-1.96 4.465 -1.96 4.465 -6 8 C-6.66 7.67 -7.32 7.34 -8 7 C-5.36 4.69 -2.72 2.38 0 0 Z " fill="#18BF76" transform="translate(198,163)"/>
<path d="M0 0 C1 3 1 3 0.3125 5.0625 C-1.21259665 7.31383315 -2.50584728 8.00233891 -5 9 C-3.7508258 5.54074837 -2.32472205 2.85306797 0 0 Z " fill="#955DDE" transform="translate(860,823)"/>
<path d="M0 0 C0.33 0 0.66 0 1 0 C1.19622241 4.21878192 0.80230168 7.17010894 -1 11 C-1.33 11 -1.66 11 -2 11 C-2.28571429 3.57142857 -2.28571429 3.57142857 0 0 Z " fill="#54C1EA" transform="translate(420,713)"/>
<path d="M0 0 C4.455 2.97 4.455 2.97 9 6 C8.01 6.495 8.01 6.495 7 7 C4.5249829 5.88568235 2.32116581 4.41849022 0 3 C0 2.01 0 1.02 0 0 Z " fill="#D8F6FD" transform="translate(556,640)"/>
<path d="M0 0 C0 0.99 0 1.98 0 3 C-2.25 4.75 -2.25 4.75 -5 6 C-6.32 5.67 -7.64 5.34 -9 5 C-6.03 3.35 -3.06 1.7 0 0 Z " fill="#69BFE7" transform="translate(566,605)"/>
<path d="M0 0 C1.31611677 0.95336021 2.62778961 1.91285774 3.9375 2.875 C4.66839844 3.40867187 5.39929688 3.94234375 6.15234375 4.4921875 C8 6 8 6 9 8 C4.75153925 7.52794881 2.73180712 5.11122478 0 2 C0 1.34 0 0.68 0 0 Z " fill="#56C7D0" transform="translate(417,575)"/>
<path d="M0 0 C0.99 0 1.98 0 3 0 C3.66 2.64 4.32 5.28 5 8 C2.20127563 5.47211993 0.54226981 3.79588866 0 0 Z " fill="#94E5E6" transform="translate(154,813)"/>
</svg>
