<svg xmlns="http://www.w3.org/2000/svg" width="836" height="1254" viewBox="230 250 376 754">
<g>
<path d="M 329.94 973.75 C327.95,980.48 327.05,978.73 327.63,969.25 C328.71,951.40 332.37,937.17 339.54,923.00 C342.82,916.51 350.75,904.94 349.65,908.25 C349.33,909.21 349.33,910.00 349.66,910.00 C350.74,910.00 357.00,905.86 357.00,905.15 C357.00,903.22 374.59,886.57 380.30,883.09 C382.39,881.82 386.44,878.76 389.30,876.30 C392.16,873.84 397.96,870.07 402.20,867.93 C410.02,863.97 417.37,858.40 416.54,857.06 C415.94,856.10 412.85,856.35 410.98,857.52 C409.47,858.46 406.48,859.19 407.24,858.43 C409.03,856.64 427.17,846.49 445.50,837.03 C494.80,811.57 517.11,797.47 534.69,780.66 C545.07,770.74 553.94,758.39 557.20,749.30 C559.48,742.94 560.92,728.00 559.25,728.00 C558.69,728.00 558.05,730.62 557.82,733.81 C556.95,745.87 547.00,762.13 531.56,776.74 C515.94,791.52 497.39,803.14 462.12,820.23 C439.97,830.96 431.98,833.92 446.16,826.14 C456.27,820.60 457.22,819.85 453.50,820.44 C451.85,820.70 445.10,821.16 438.50,821.46 L 426.50 822.01 L 440.50 819.00 C468.32,813.00 472.64,811.37 484.73,802.28 C491.60,797.13 504.38,785.05 503.70,784.37 C503.52,784.19 493.96,782.90 482.44,781.49 C448.83,777.38 405.26,769.65 403.10,767.42 C402.20,766.48 467.11,770.04 487.36,772.03 C492.78,772.56 500.53,773.00 504.59,773.00 L 511.97 773.00 L 514.39 768.21 C516.97,763.13 519.48,754.92 520.34,748.80 C520.40,748.35 520.50,747.96 520.58,747.62 C520.72,747.03 520.83,746.57 520.70,746.19 C520.19,744.67 515.87,744.43 494.50,741.96 C463.19,738.34 409.06,729.39 407.20,727.53 C406.91,727.24 409.10,727.00 412.08,727.01 C419.63,727.02 469.87,729.75 485.00,730.97 C491.88,731.52 500.65,732.22 504.50,732.52 C508.35,732.82 513.64,733.29 516.25,733.56 C520.90,734.06 521.00,734.01 520.99,731.28 C520.98,727.34 517.51,713.34 515.21,707.99 L 513.27 703.47 L 497.39 701.70 C475.06,699.20 452.40,695.46 432.08,690.90 C414.48,686.95 409.32,685.22 418.50,686.34 C421.25,686.68 432.50,687.43 443.50,688.01 C454.50,688.59 472.88,689.73 484.33,690.54 C495.79,691.35 505.57,691.77 506.06,691.46 C507.03,690.86 500.26,680.64 493.16,672.00 C490.68,668.97 483.10,661.05 476.32,654.40 C464.00,642.30 464.00,642.30 464.00,637.57 C464.00,633.68 464.52,632.33 466.92,629.92 C468.90,627.95 470.85,627.00 472.95,627.00 C482.11,627.00 511.63,648.01 529.66,667.36 C558.84,698.68 570.73,736.56 562.03,770.50 C554.32,800.58 528.99,828.97 488.33,853.12 C473.13,862.15 463.99,866.87 429.93,883.32 C390.30,902.46 373.67,913.06 357.50,929.47 C344.94,942.21 334.09,959.65 329.94,973.75 ZM 314.34 843.75 C316.58,846.09 318.21,847.99 317.96,847.98 C317.71,847.97 314.12,845.40 310.00,842.26 C289.53,826.71 273.80,805.38 268.86,786.50 C267.61,781.69 267.03,775.88 267.02,767.94 C267.00,753.48 269.21,744.29 276.02,730.50 C290.84,700.51 323.49,671.29 375.49,641.49 C384.83,636.13 416.78,619.50 446.49,604.54 C502.26,576.43 513.74,570.12 532.49,557.26 C550.23,545.09 561.96,534.99 572.81,522.55 C575.66,519.28 578.00,517.12 578.00,517.75 C578.00,519.72 564.44,539.12 557.04,547.75 C537.51,570.48 502.21,594.34 456.00,616.03 C445.05,621.17 441.01,623.58 439.50,625.87 C436.79,629.99 431.12,633.00 426.09,633.00 C423.33,633.00 419.54,634.21 414.73,636.62 C410.75,638.61 407.34,640.38 407.14,640.56 C406.12,641.49 411.38,647.85 414.71,649.72 C417.86,651.49 419.56,651.76 424.63,651.30 C429.96,650.82 431.02,651.02 432.87,652.87 C435.44,655.44 435.73,661.51 433.44,664.78 C432.58,666.01 430.44,667.75 428.69,668.65 C426.94,669.55 424.23,671.34 422.67,672.64 C419.15,675.58 415.34,675.63 408.82,672.83 C404.32,670.89 403.41,670.80 400.63,671.98 C392.20,675.57 377.70,673.19 369.81,666.93 C367.78,665.32 365.36,664.00 364.43,664.00 C360.03,664.00 341.47,678.74 326.45,694.16 C306.13,715.03 293.53,737.89 288.40,763.21 C286.21,773.99 286.95,792.25 290.00,802.96 C293.95,816.83 302.88,831.79 314.34,843.75 ZM 384.86 716.98 C382.46,718.07 379.60,718.90 378.50,718.84 C372.14,718.48 365.76,716.51 360.00,713.15 C356.59,711.15 354.14,710.51 349.86,710.51 C343.45,710.50 341.03,708.94 337.89,702.79 C335.79,698.66 335.40,691.04 337.12,687.68 C340.37,681.39 346.07,678.78 352.04,680.86 C354.74,681.81 355.65,681.60 359.24,679.22 C368.03,673.41 381.84,676.83 393.01,687.59 C400.76,695.06 403.02,696.06 410.43,695.29 C415.39,694.78 416.36,694.99 418.53,697.03 C420.39,698.77 421.00,700.38 421.00,703.50 C421.00,708.48 419.24,710.36 410.23,714.99 L 403.97 718.22 L 399.05 716.61 C392.64,714.51 390.14,714.58 384.86,716.98 ZM 381.37 758.88 C377.33,761.56 375.79,761.99 370.58,761.91 C363.77,761.82 360.51,761.03 356.80,758.60 C354.82,757.31 353.68,757.17 351.57,757.97 C346.01,760.09 342.93,759.29 338.38,754.54 C333.65,749.60 332.39,745.56 333.43,738.63 C334.42,732.04 337.71,729.45 344.77,729.70 C349.88,729.88 350.70,729.60 354.19,726.45 C357.62,723.35 358.60,723.00 363.82,723.00 C371.76,723.00 377.75,725.25 384.00,730.59 C390.68,736.29 395.18,738.26 398.60,736.96 C406.23,734.06 412.00,737.12 412.00,744.05 C412.00,748.85 409.79,751.29 401.82,755.25 C396.93,757.67 396.08,757.80 391.29,756.82 C386.31,755.80 385.89,755.88 381.37,758.88 ZM 357.00 798.39 C354.78,799.27 352.68,800.00 352.34,800.00 C351.99,800.00 349.53,797.81 346.86,795.14 C342.20,790.48 342.00,790.06 342.00,784.64 C342.00,777.74 344.15,775.00 349.57,775.00 C352.35,775.00 353.86,774.23 356.44,771.50 C359.63,768.11 359.97,768.00 367.16,768.00 C373.13,768.00 375.45,768.47 379.04,770.43 C388.25,775.46 390.30,776.19 393.43,775.53 C402.58,773.61 403.62,773.70 405.86,776.54 C407.04,778.04 408.00,779.91 408.00,780.69 C408.00,781.48 405.68,784.57 402.85,787.56 C397.86,792.85 397.56,793.00 392.29,793.00 C387.93,793.00 386.17,793.53 383.31,795.71 C380.52,797.84 378.38,798.51 373.37,798.83 C369.63,799.07 365.75,798.72 364.01,798.00 C361.54,796.98 360.34,797.05 357.00,798.39 ZM 440.41 519.36 C432.66,523.56 425.53,527.00 424.57,527.00 C423.61,527.00 420.41,524.53 417.46,521.50 C413.68,517.63 411.32,516.00 409.49,516.00 C404.80,516.00 401.16,513.33 400.01,509.03 C398.71,504.21 399.44,500.89 402.55,497.54 C405.37,494.50 412.17,494.03 415.88,496.63 C418.05,498.15 418.44,498.12 421.99,496.13 C427.42,493.07 435.26,493.25 441.60,496.56 C447.50,499.63 457.24,509.58 455.60,510.86 C455.00,511.33 448.16,515.15 440.41,519.36 ZM 399.69 854.37 C398.87,856.51 397.27,856.43 392.74,854.00 C388.20,851.57 386.67,851.51 383.41,853.65 C381.03,855.21 380.73,855.19 378.25,853.34 C374.71,850.70 372.19,847.03 371.81,844.00 C371.56,842.00 372.15,841.21 374.75,840.07 C376.65,839.23 378.00,837.90 378.00,836.88 C378.00,832.52 388.97,830.35 396.93,833.13 C399.73,834.10 400.55,833.97 403.04,832.13 C404.62,830.96 406.75,830.00 407.76,830.00 C411.62,830.00 413.42,834.58 410.50,837.00 C409.67,837.68 409.00,839.28 409.00,840.55 C409.00,843.69 406.45,846.00 402.98,846.00 C399.57,846.00 397.70,848.55 399.26,851.05 C399.84,851.98 400.03,853.47 399.69,854.37 ZM 371.02 828.98 C368.11,831.89 365.54,831.49 361.00,827.38 C357.82,824.51 357.03,823.13 357.16,820.63 L 357.32 817.50 L 357.72 820.71 C358.19,824.47 362.97,829.00 366.47,829.00 C369.84,829.00 372.54,826.28 375.91,819.50 C378.58,814.11 378.72,813.38 377.29,812.28 C376.06,811.33 375.96,810.75 376.87,809.66 C378.44,807.76 377.24,805.00 374.85,805.00 C373.78,805.00 371.91,806.05 370.70,807.32 C367.83,810.36 364.53,811.67 365.39,809.43 C365.72,808.55 366.00,807.66 366.00,807.44 C366.00,807.23 367.33,806.36 368.95,805.53 C373.27,803.29 382.18,803.59 388.18,806.17 C392.63,808.09 393.62,808.19 396.37,807.06 C406.88,802.73 411.35,806.98 405.44,815.68 C402.21,820.44 401.35,820.97 396.79,820.98 C394.05,821.00 392.78,821.55 391.95,823.09 C389.68,827.34 379.33,830.32 374.96,827.98 C373.47,827.18 372.60,827.40 371.02,828.98 ZM 396.62 542.33 C391.18,544.90 386.37,547.00 385.92,547.00 C382.75,547.00 380.70,536.30 383.03,531.94 C385.46,527.41 393.94,525.61 398.58,528.64 C400.68,530.02 401.72,530.10 404.91,529.14 C409.85,527.66 413.91,527.74 416.86,529.38 C419.18,530.66 419.10,530.76 412.86,534.18 C409.36,536.09 402.05,539.76 396.62,542.33 ZM 477.81 494.12 C474.54,497.61 470.03,497.92 465.24,495.00 C462.37,493.25 461.46,493.15 457.64,494.17 C455.11,494.85 452.52,494.98 451.40,494.49 C449.92,493.84 450.54,493.52 454.20,493.04 C457.25,492.64 459.57,491.64 460.82,490.21 C461.87,488.99 463.18,488.00 463.72,488.00 C464.26,488.00 466.66,486.69 469.05,485.08 C473.12,482.34 473.58,482.25 476.20,483.60 C478.81,484.96 479.00,484.92 479.00,483.06 C479.00,481.97 479.94,480.57 481.08,479.96 C483.08,478.88 483.09,478.79 481.33,477.45 C480.32,476.69 478.60,475.99 477.50,475.91 C476.40,475.82 478.37,475.34 481.87,474.84 C490.45,473.61 493.00,475.13 493.00,481.45 C493.00,486.61 490.18,489.52 484.15,490.60 C482.03,490.98 479.37,492.45 477.81,494.12 ZM 576.67 349.57 C576.97,350.36 577.03,351.00 576.82,351.00 C576.03,351.00 570.92,339.75 571.45,339.21 C571.75,338.91 572.00,339.19 572.00,339.83 C572.00,340.48 572.66,341.00 573.47,341.00 C574.36,341.00 574.71,340.41 574.36,339.50 C573.17,336.38 575.71,338.19 579.31,343.00 C582.91,347.82 583.12,348.99 580.03,347.04 C578.19,345.87 575.91,347.59 576.67,349.57 ZM 351.39 530.25 C354.51,533.96 356.93,537.00 356.78,537.00 C356.05,536.99 340.69,523.20 339.96,521.90 C339.50,521.08 339.50,519.81 339.95,519.08 C340.13,518.79 340.27,518.56 340.48,518.48 C341.27,518.17 342.98,520.21 351.39,530.25 ZM 414.41 487.14 C413.71,488.28 396.00,488.25 396.00,487.12 C396.00,486.63 397.24,485.99 398.75,485.70 C402.60,484.96 415.05,486.10 414.41,487.14 ZM 394.71 868.10 C394.27,868.03 392.98,868.47 391.84,869.09 C387.34,871.49 391.33,868.02 397.52,864.14 L 404.07 860.03 L 400.87 864.01 C397.90,867.71 396.78,868.45 394.71,868.10 ZM 518.08 696.63 C519.23,698.48 520.32,700.00 520.50,700.00 C521.32,700.00 518.69,692.36 517.41,691.04 C515.12,688.66 515.59,692.61 518.08,696.63 Z" fill="rgb(3,95,101)"/>
<path d="M 576.67 349.57 C575.91,347.59 578.19,345.87 580.03,347.04 C582.41,348.54 582.83,348.20 581.26,345.76 C581.31,345.83 581.36,345.90 581.41,345.97 C584.38,350.11 588.26,356.42 590.03,360.00 C591.79,363.58 594.24,368.52 595.48,371.00 C601.06,382.14 603.86,395.94 604.66,416.23 C605.54,438.63 602.19,454.75 592.51,474.63 C578.52,503.36 554.59,525.91 511.86,550.63 C498.50,558.36 429.89,593.00 427.93,593.00 C427.37,593.00 425.46,593.68 423.70,594.51 C421.94,595.35 421.36,595.46 422.41,594.76 C423.46,594.07 426.78,591.54 429.78,589.14 C432.78,586.75 437.54,583.71 440.37,582.39 C447.48,579.08 452.04,576.37 451.47,575.80 C451.20,575.53 452.00,573.94 453.24,572.26 C454.48,570.57 456.85,567.37 458.50,565.14 C460.15,562.90 461.99,561.06 462.60,561.04 C463.20,561.02 464.50,560.10 465.50,559.00 C466.50,557.90 467.84,557.00 468.48,557.00 C470.54,557.00 474.10,552.43 473.42,550.66 C473.00,549.57 473.30,549.00 474.28,549.00 C475.10,549.00 475.72,548.26 475.64,547.35 C475.55,546.31 476.59,545.39 478.41,544.89 C480.00,544.45 482.70,542.77 484.41,541.16 C486.11,539.54 488.96,537.49 490.75,536.59 C493.82,535.04 494.00,534.65 494.00,529.47 C494.00,523.96 495.28,522.15 496.33,526.16 C496.81,527.99 497.14,528.13 498.45,527.04 C499.30,526.33 500.00,524.70 500.00,523.41 C500.00,521.73 500.43,521.23 501.50,521.64 C502.88,522.17 503.29,519.32 502.98,511.49 C502.93,510.29 506.13,505.00 506.90,505.00 C507.36,505.00 508.02,503.25 508.37,501.11 C509.03,496.99 510.97,495.38 512.95,497.33 C513.61,497.97 514.06,498.05 513.95,497.50 C513.57,495.47 514.03,494.00 515.06,494.00 C515.64,494.00 515.78,494.56 515.37,495.25 C514.96,495.94 515.83,495.38 517.29,494.00 C520.25,491.23 520.62,489.76 518.75,488.21 C517.28,486.99 513.43,489.27 514.38,490.80 C515.04,491.88 511.67,495.25 510.67,494.50 C510.30,494.23 510.19,494.26 510.42,494.58 C511.04,495.46 507.11,499.09 505.12,499.48 C500.93,500.28 496.00,503.01 496.00,504.53 C496.00,505.43 495.44,505.96 494.75,505.70 C494.06,505.44 491.48,506.33 489.00,507.68 C484.37,510.20 485.83,508.62 492.20,504.22 C522.38,483.35 546.56,460.40 561.44,438.50 C568.69,427.83 576.67,410.69 579.12,400.50 C584.72,377.25 580.13,352.84 566.49,333.32 C563.97,329.72 562.16,326.51 562.48,326.19 C563.19,325.48 569.86,332.07 575.65,338.78 C574.27,337.53 573.65,337.64 574.36,339.50 C574.71,340.41 574.36,341.00 573.47,341.00 C572.66,341.00 572.00,340.48 572.00,339.83 C572.00,339.19 571.75,338.91 571.45,339.21 C570.92,339.75 576.03,351.00 576.82,351.00 C577.03,351.00 576.97,350.36 576.67,349.57 ZM 346.74 528.46 L 346.36 528.12 C331.28,514.75 318.55,499.64 311.56,486.86 C307.57,479.54 302.01,464.64 302.10,461.50 C302.14,460.08 302.32,459.93 302.71,461.00 C303.01,461.83 303.92,463.26 304.73,464.19 C305.54,465.12 306.37,467.56 306.57,469.61 C306.77,471.65 307.36,473.76 307.88,474.28 C309.07,475.47 311.00,474.34 311.00,472.44 C311.00,471.65 311.46,471.00 312.02,471.00 C312.58,471.00 313.57,469.76 314.21,468.25 C316.07,463.90 318.11,462.00 320.91,462.00 C323.59,462.00 326.57,458.73 325.49,456.98 C325.17,456.46 325.33,455.24 325.84,454.27 C326.36,453.30 327.03,450.48 327.34,448.00 C327.65,445.52 327.92,443.40 327.95,443.27 C328.17,442.29 338.02,433.36 338.44,433.77 C338.73,434.06 338.19,434.87 337.24,435.57 C336.28,436.27 335.74,437.07 336.02,437.36 C336.31,437.64 348.68,439.27 363.52,440.97 C387.95,443.77 419.63,448.14 425.99,449.59 C428.33,450.12 428.36,450.22 426.55,451.23 C424.12,452.59 386.64,451.62 354.63,449.37 C335.33,448.01 331.63,447.98 330.91,449.13 C329.35,451.64 327.00,463.82 327.00,469.43 C327.00,469.94 326.99,470.40 326.98,470.83 C326.94,472.21 326.92,473.18 327.33,473.90 C328.44,475.85 332.71,476.01 348.50,477.49 C367.16,479.24 389.60,482.29 400.50,484.55 C402.69,485.00 405.21,485.41 407.36,485.68 C404.07,485.42 400.51,485.36 398.75,485.70 C397.24,485.99 396.00,486.63 396.00,487.12 C396.00,487.61 399.28,487.89 403.08,487.96 C393.14,488.06 377.07,487.67 356.23,486.82 C341.23,486.21 328.67,486.00 328.32,486.35 C327.02,487.65 333.22,503.56 338.46,512.39 C340.80,516.31 344.61,521.82 347.89,526.07 C342.47,519.62 341.15,518.22 340.48,518.48 C340.27,518.56 340.13,518.79 339.95,519.08 C339.50,519.81 339.50,521.08 339.96,521.90 C340.28,522.46 343.32,525.36 346.74,528.46 ZM 349.50 419.87 C343.57,426.78 341.12,428.66 342.49,425.25 C342.88,424.29 343.29,422.95 343.40,422.28 C343.52,421.61 343.99,420.71 344.46,420.28 C344.94,419.85 344.99,420.17 344.59,421.00 C344.18,421.83 344.56,421.63 345.43,420.56 C346.29,419.49 347.00,417.53 347.00,416.20 C347.00,413.87 348.28,411.96 356.04,402.71 C357.98,400.40 360.86,396.76 362.43,394.63 C363.99,392.51 366.68,389.92 368.39,388.88 C370.10,387.85 373.30,384.55 375.50,381.54 C378.90,376.91 379.99,376.08 382.75,376.04 C386.71,375.99 386.93,374.31 383.34,371.45 L 380.68 369.33 L 391.09 365.65 C405.39,360.58 421.84,356.00 425.72,356.00 C432.42,356.00 433.57,364.29 427.65,369.86 C426.38,371.05 419.08,374.87 411.43,378.35 C403.77,381.84 394.62,386.15 391.11,387.93 C383.68,391.70 368.55,401.31 367.58,402.87 C366.78,404.16 368.31,404.49 382.00,406.01 C394.80,407.44 433.43,412.82 436.66,413.63 C437.94,413.95 438.74,414.62 438.43,415.11 C437.35,416.86 402.59,416.09 364.00,413.47 L 355.50 412.89 ZM 491.69 456.83 C488.78,459.56 485.46,459.58 481.06,456.90 C477.99,455.02 477.23,454.93 473.82,456.06 C470.76,457.07 469.16,457.07 465.75,456.06 C459.82,454.32 451.51,449.43 449.66,446.61 C448.58,444.96 446.78,444.04 443.69,443.58 C438.93,442.87 435.82,440.32 434.07,435.68 C432.43,431.38 432.77,429.14 435.45,426.45 C438.23,423.68 443.17,423.21 448.66,425.19 C451.64,426.27 452.20,426.16 454.51,423.99 C456.50,422.12 458.43,421.51 463.28,421.20 C471.57,420.69 478.88,423.54 485.29,429.82 L 490.09 434.50 L 497.70 434.24 C506.51,433.94 509.00,435.30 509.00,440.43 C509.00,444.68 506.65,447.71 502.75,448.48 C497.11,449.60 494.00,451.18 494.00,452.95 C494.00,453.88 492.96,455.63 491.69,456.83 ZM 489.99 474.99 C488.26,474.29 485.65,474.30 481.87,474.84 C478.37,475.34 476.40,475.82 477.50,475.91 C478.60,475.99 480.32,476.69 481.33,477.45 C483.09,478.79 483.08,478.88 481.08,479.96 C479.94,480.57 479.00,481.97 479.00,483.06 C479.00,484.92 478.81,484.96 476.20,483.60 C473.58,482.25 473.12,482.34 469.05,485.08 C466.66,486.69 464.26,488.00 463.72,488.00 C463.18,488.00 461.87,488.99 460.82,490.21 C459.57,491.64 457.25,492.64 454.20,493.04 C450.54,493.52 449.92,493.84 451.40,494.49 C451.45,494.51 451.49,494.53 451.54,494.55 C450.12,494.17 448.54,493.48 446.50,492.45 C437.06,487.68 435.81,486.79 433.81,483.40 C432.21,480.69 431.17,480.00 428.65,479.99 C424.06,479.96 420.74,477.95 418.75,473.99 C416.18,468.85 416.52,465.33 419.92,461.92 C423.28,458.56 427.72,458.08 432.48,460.56 C435.27,462.02 435.70,461.97 439.48,459.83 C445.71,456.30 453.06,456.76 461.12,461.17 C465.08,463.34 468.49,466.11 470.09,468.47 C473.72,473.79 477.14,475.37 483.25,474.56 C486.24,474.17 488.44,474.28 489.99,474.99 ZM 488.05 416.47 C486.43,417.31 483.39,417.99 481.30,417.98 C476.49,417.95 466.55,413.90 463.06,410.56 C461.22,408.79 459.29,408.00 456.83,408.00 C452.76,408.00 448.69,405.23 446.48,400.96 C444.47,397.08 444.62,394.75 447.07,391.63 C448.68,389.59 450.02,389.00 453.07,389.00 C455.28,389.00 457.00,389.49 457.00,390.11 C457.00,390.72 456.30,390.95 455.45,390.62 C454.56,390.28 454.16,390.44 454.51,391.01 C454.84,391.56 454.42,392.00 453.56,392.00 C452.70,392.00 452.00,392.45 452.00,393.00 C452.00,393.55 452.45,394.00 453.00,394.00 C453.55,394.00 454.90,394.90 456.00,396.00 C457.50,397.50 459.32,398.00 463.25,397.98 C467.21,397.97 468.13,397.71 467.00,396.92 C465.83,396.10 465.99,396.01 467.75,396.50 C469.14,396.89 471.42,396.37 473.75,395.13 C476.98,393.40 479.08,392.87 486.75,391.83 C488.27,391.63 488.33,390.49 486.96,387.93 C485.37,384.95 487.77,385.48 494.05,389.47 C500.30,393.46 501.73,393.64 508.20,391.32 C513.84,389.30 517.45,390.42 519.07,394.67 C520.69,398.93 518.58,402.56 512.63,405.75 C508.63,407.89 507.43,409.10 507.19,411.23 C506.81,414.47 502.71,418.00 499.32,418.00 C497.99,418.00 495.57,417.31 493.95,416.47 C491.31,415.11 490.69,415.11 488.05,416.47 ZM 323.53 583.07 C317.68,586.88 312.78,590.00 312.66,590.00 C312.53,590.00 309.97,587.42 306.97,584.27 C303.96,581.12 302.62,579.48 304.00,580.62 C305.38,581.77 307.17,583.08 308.00,583.54 C309.27,584.25 309.30,584.13 308.20,582.78 C307.09,581.41 307.20,581.07 308.95,580.52 C310.08,580.16 311.00,579.53 311.00,579.12 C311.00,578.71 312.89,577.30 315.21,576.00 C318.39,574.21 321.03,573.62 326.03,573.56 C331.64,573.50 333.11,573.09 335.76,570.85 C337.48,569.41 338.58,567.91 338.20,567.53 C337.81,567.15 338.38,566.20 339.44,565.42 C340.61,564.56 340.86,564.00 340.07,564.00 C339.01,564.00 339.02,563.68 340.13,562.35 C340.88,561.44 341.46,560.42 341.42,560.10 C341.37,559.77 342.07,558.29 342.97,556.82 C344.12,554.91 345.01,554.39 346.00,555.00 C347.83,556.13 349.06,555.33 348.35,553.47 C348.04,552.67 347.39,552.26 346.91,552.56 C346.42,552.86 346.32,552.33 346.68,551.39 C347.18,550.10 346.99,549.88 345.92,550.50 C345.14,550.95 344.84,550.94 345.26,550.48 C345.68,550.02 345.04,548.60 343.83,547.32 C342.63,546.05 342.13,545.00 342.72,545.00 C343.31,545.00 344.05,545.67 344.36,546.50 C344.68,547.33 345.40,548.00 345.96,548.00 C346.89,548.00 363.00,559.84 363.00,560.52 C363.00,560.67 356.51,564.25 348.59,568.47 C340.66,572.69 329.38,579.26 323.53,583.07 ZM 478.06 819.68 C468.69,824.89 457.96,830.59 445.50,837.03 C427.17,846.49 409.03,856.64 407.24,858.43 C406.48,859.19 409.47,858.46 410.98,857.52 C412.85,856.35 415.94,856.10 416.54,857.06 C417.37,858.40 410.02,863.97 402.20,867.93 C397.96,870.07 392.16,873.84 389.30,876.30 C386.44,878.76 382.39,881.82 380.30,883.09 C374.59,886.57 357.00,903.22 357.00,905.15 C357.00,905.86 350.74,910.00 349.66,910.00 C349.33,910.00 349.33,909.21 349.65,908.25 C350.75,904.94 342.82,916.51 339.54,923.00 C336.82,928.38 334.60,933.76 332.84,939.35 C335.78,929.99 339.97,921.22 345.61,912.39 C350.44,904.84 351.23,903.88 361.00,893.69 C373.56,880.58 393.37,865.49 410.00,856.36 C413.02,854.70 417.30,852.22 419.50,850.84 C421.70,849.47 433.40,843.24 445.50,837.00 C457.94,830.59 468.68,824.89 478.06,819.68 ZM 491.39 378.06 C487.39,380.09 484.80,380.37 481.55,379.10 C479.85,378.43 480.02,378.19 482.92,377.18 C484.74,376.54 486.59,376.25 487.03,376.52 C488.36,377.34 493.96,373.63 494.61,371.50 C494.95,370.40 497.56,367.25 500.41,364.50 C505.04,360.04 510.55,352.94 508.35,354.27 C507.88,354.56 506.93,354.18 506.24,353.43 C505.21,352.31 505.43,351.77 507.42,350.46 C513.01,346.80 520.53,351.89 518.12,357.71 C517.48,359.27 515.38,361.79 513.47,363.31 C510.74,365.50 510.00,366.81 510.00,369.47 C510.00,374.54 505.99,377.38 499.85,376.66 C496.40,376.26 494.21,376.62 491.39,378.06 ZM 371.02 828.98 C372.60,827.40 373.47,827.18 374.96,827.98 C375.49,828.26 376.12,828.47 376.81,828.61 C373.74,828.25 371.88,828.53 370.56,829.53 C367.83,831.59 366.02,831.37 361.74,828.47 C358.00,825.93 356.67,823.08 356.67,817.65 C356.67,814.57 360.12,811.06 363.18,811.02 C364.11,811.01 365.15,810.10 365.50,808.99 C365.57,808.77 365.66,808.55 365.77,808.34 C365.67,808.67 365.53,809.05 365.39,809.43 C364.53,811.67 367.83,810.36 370.70,807.32 C371.91,806.05 373.78,805.00 374.85,805.00 C377.24,805.00 378.44,807.76 376.87,809.66 C375.96,810.75 376.06,811.33 377.29,812.28 C378.72,813.38 378.58,814.11 375.91,819.50 C372.54,826.28 369.84,829.00 366.47,829.00 C362.97,829.00 358.19,824.47 357.72,820.71 L 357.32 817.50 L 357.16 820.63 C357.03,823.13 357.82,824.51 361.00,827.38 C365.54,831.49 368.11,831.89 371.02,828.98 ZM 268.00 814.66 C269.70,817.18 270.94,819.39 270.75,819.58 C270.21,820.13 257.73,805.03 253.32,798.50 C251.10,795.20 248.28,790.53 247.05,788.11 L 244.82 783.73 L 248.48 785.99 L 252.14 788.25 L 251.37 784.37 C250.47,779.90 250.51,776.72 251.47,774.25 C252.10,772.62 252.24,772.63 253.57,774.44 C254.36,775.51 255.00,777.77 255.00,779.46 C255.00,787.02 261.83,805.51 268.00,814.66 ZM 411.25 601.91 C406.44,604.31 400.92,606.93 399.00,607.73 C397.13,608.51 396.25,608.87 396.17,608.74 C396.10,608.62 396.61,608.13 397.58,607.22 L 397.58 607.22 C398.72,606.13 400.64,604.93 401.85,604.55 C403.06,604.16 404.78,602.74 405.67,601.38 C406.56,600.02 408.86,598.25 410.77,597.45 C414.49,595.90 420.00,595.50 420.00,596.78 C420.00,597.20 416.06,599.52 411.25,601.91 ZM 476.59 377.14 C478.13,379.64 474.97,378.77 469.78,375.27 C466.63,373.16 465.36,372.87 461.60,373.43 C457.61,374.03 456.84,373.81 454.27,371.30 C452.68,369.76 452.12,369.06 453.02,369.75 C453.92,370.44 457.36,371.00 460.67,371.00 C465.36,371.00 467.08,371.43 468.45,372.94 C469.42,374.01 471.51,375.17 473.09,375.52 C474.68,375.87 476.25,376.60 476.59,377.14 ZM 394.71 868.10 C396.78,868.45 397.90,867.71 400.87,864.01 L 404.07 860.03 L 397.52 864.14 C391.33,868.02 387.34,871.49 391.84,869.09 C392.98,868.47 394.27,868.03 394.71,868.10 ZM 518.08 696.63 C515.59,692.61 515.12,688.66 517.41,691.04 C518.69,692.36 521.32,700.00 520.50,700.00 C520.32,700.00 519.23,698.48 518.08,696.63 ZM 500.00 515.99 C500.00,517.33 499.34,518.00 498.00,518.00 C496.90,518.00 496.00,517.66 496.00,517.24 C496.00,516.82 496.90,515.92 498.00,515.23 C499.75,514.14 500.00,514.23 500.00,515.99 ZM 414.43 487.09 C414.51,486.68 412.65,486.26 410.14,485.95 C410.58,485.98 410.98,486.00 411.31,486.00 C413.68,486.00 414.88,486.39 414.48,487.04 C414.47,487.05 414.45,487.07 414.43,487.09 ZM 452.29 494.72 C453.61,494.90 455.64,494.71 457.64,494.17 C458.23,494.02 458.74,493.89 459.21,493.79 C459.06,493.83 458.90,493.89 458.73,493.94 C456.19,494.83 454.38,495.13 452.29,494.72 ZM 376.28 804.03 C380.13,803.89 384.44,804.56 388.18,806.17 C384.70,804.68 380.25,803.95 376.28,804.03 ZM 356.69 536.97 C356.69,536.99 356.69,537.00 356.68,537.00 C356.65,537.00 356.47,536.87 356.17,536.63 C356.40,536.80 356.58,536.92 356.69,536.97 Z" fill="rgb(6,133,123)"/>
<path d="M 254.80 777.63 C254.55,776.39 254.09,775.15 253.57,774.44 C252.24,772.63 252.10,772.62 251.47,774.25 C250.51,776.72 250.47,779.90 251.37,784.37 L 252.14 788.25 L 248.48 785.99 L 244.82 783.73 L 247.05 788.11 C247.56,789.12 248.36,790.53 249.27,792.07 C237.41,772.51 232.48,754.18 232.53,730.47 C232.57,715.89 232.64,715.33 235.15,711.97 C236.57,710.06 238.05,707.18 238.43,705.57 C238.82,703.95 240.25,701.30 241.63,699.66 C243.00,698.03 245.72,693.50 247.67,689.60 C251.41,682.10 255.48,677.00 257.72,677.00 C258.46,677.00 259.92,675.09 260.95,672.75 C261.98,670.41 264.89,666.57 267.41,664.21 C269.94,661.84 272.00,659.23 272.00,658.40 C272.00,657.57 273.12,655.24 274.50,653.21 C275.88,651.19 277.00,648.84 277.00,647.99 C277.00,645.02 279.94,642.08 282.78,642.22 C284.27,642.29 286.17,642.16 287.00,641.92 C289.17,641.31 301.13,629.02 300.51,628.02 C300.23,627.56 300.84,627.41 301.87,627.68 C303.27,628.04 304.02,627.39 304.82,625.07 C305.82,622.21 305.77,622.06 304.01,622.99 C302.79,623.65 301.91,623.66 301.52,623.03 C300.57,621.50 295.55,622.49 291.86,624.94 L 288.50 627.17 L 291.50 624.52 C309.90,608.31 336.93,591.70 398.79,558.59 C449.10,531.66 477.67,514.81 499.53,499.02 C497.13,500.77 494.68,502.50 492.20,504.22 C485.83,508.62 484.37,510.20 489.00,507.68 C491.48,506.33 494.06,505.44 494.75,505.70 C495.44,505.96 496.00,505.43 496.00,504.53 C496.00,503.01 500.93,500.28 505.12,499.48 C507.11,499.09 511.04,495.46 510.42,494.58 C510.19,494.26 510.30,494.23 510.67,494.50 C511.67,495.25 515.04,491.88 514.38,490.80 C513.43,489.27 517.28,486.99 518.75,488.21 C520.62,489.76 520.25,491.23 517.29,494.00 C515.83,495.38 514.96,495.94 515.37,495.25 C515.78,494.56 515.64,494.00 515.06,494.00 C514.03,494.00 513.57,495.47 513.95,497.50 C514.06,498.05 513.61,497.97 512.95,497.33 C510.97,495.38 509.03,496.99 508.37,501.11 C508.02,503.25 507.36,505.00 506.90,505.00 C506.13,505.00 502.93,510.29 502.98,511.49 C503.29,519.32 502.88,522.17 501.50,521.64 C500.43,521.23 500.00,521.73 500.00,523.41 C500.00,524.70 499.30,526.33 498.45,527.04 C497.14,528.13 496.81,527.99 496.33,526.16 C495.28,522.15 494.00,523.96 494.00,529.47 C494.00,534.65 493.82,535.04 490.75,536.59 C488.96,537.49 486.11,539.54 484.41,541.16 C482.70,542.77 480.00,544.45 478.41,544.89 C476.59,545.39 475.55,546.31 475.64,547.35 C475.72,548.26 475.10,549.00 474.28,549.00 C473.30,549.00 473.00,549.57 473.42,550.66 C474.10,552.43 470.54,557.00 468.48,557.00 C467.84,557.00 466.50,557.90 465.50,559.00 C464.50,560.10 463.20,561.02 462.60,561.04 C461.99,561.06 460.15,562.90 458.50,565.14 C456.85,567.37 454.48,570.57 453.24,572.26 C452.00,573.94 451.20,575.53 451.47,575.80 C452.04,576.37 447.48,579.08 440.37,582.39 C437.54,583.71 432.78,586.75 429.78,589.14 C426.78,591.54 423.46,594.07 422.41,594.76 C421.36,595.46 421.94,595.35 423.70,594.51 C425.46,593.68 427.37,593.00 427.93,593.00 C428.57,593.00 436.20,589.36 446.68,584.19 C420.88,597.08 393.80,611.02 385.41,615.75 C310.75,657.77 269.26,699.14 257.29,743.50 C254.97,752.11 254.59,755.44 254.59,767.50 C254.59,771.73 254.64,774.95 254.80,777.63 ZM 354.29 553.61 C350.32,550.71 346.40,548.00 345.96,548.00 C345.40,548.00 344.68,547.33 344.36,546.50 C344.05,545.67 343.31,545.00 342.72,545.00 C342.13,545.00 342.63,546.05 343.83,547.32 C345.04,548.60 345.68,550.02 345.26,550.48 C344.84,550.94 345.14,550.95 345.92,550.50 C346.99,549.88 347.18,550.10 346.68,551.39 C346.32,552.33 346.42,552.86 346.91,552.56 C347.39,552.26 348.04,552.67 348.35,553.47 C349.06,555.33 347.83,556.13 346.00,555.00 C345.01,554.39 344.12,554.91 342.97,556.82 C342.07,558.29 341.37,559.77 341.42,560.10 C341.46,560.42 340.88,561.44 340.13,562.35 C339.02,563.68 339.01,564.00 340.07,564.00 C340.86,564.00 340.61,564.56 339.44,565.42 C338.38,566.20 337.81,567.15 338.20,567.53 C338.58,567.91 337.48,569.41 335.76,570.85 C333.11,573.09 331.64,573.50 326.03,573.56 C321.03,573.62 318.39,574.21 315.21,576.00 C312.89,577.30 311.00,578.71 311.00,579.12 C311.00,579.53 310.08,580.16 308.95,580.52 C307.20,581.07 307.09,581.41 308.20,582.78 C309.30,584.13 309.27,584.25 308.00,583.54 C307.17,583.08 305.38,581.77 304.00,580.62 C302.62,579.48 303.96,581.12 306.97,584.27 C309.78,587.22 312.21,589.67 312.61,589.97 C312.57,589.99 312.54,590.00 312.53,590.00 C311.52,590.00 293.72,571.49 289.70,566.25 C284.77,559.86 275.00,544.26 275.00,542.80 C275.00,541.00 278.33,540.76 281.04,542.37 C283.75,543.97 283.96,543.94 286.34,541.74 C288.02,540.18 289.03,537.87 289.51,534.47 C289.90,531.74 290.87,528.46 291.68,527.18 C292.48,525.90 293.18,523.53 293.22,521.89 C293.27,520.26 293.69,518.69 294.15,518.41 C295.87,517.35 295.06,502.49 292.96,496.41 C290.75,490.00 289.72,482.07 290.86,480.22 C291.28,479.54 294.11,483.70 297.72,490.28 C305.65,504.75 310.45,511.56 321.50,523.98 C329.21,532.64 341.09,543.37 354.29,553.61 ZM 347.15 422.56 C342.22,428.76 336.66,436.99 337.24,437.57 C337.28,437.61 337.61,437.68 338.21,437.78 C336.86,437.57 336.09,437.42 336.02,437.36 C335.74,437.07 336.28,436.27 337.24,435.57 C338.19,434.87 338.73,434.06 338.44,433.77 C338.02,433.36 328.17,442.29 327.95,443.27 C327.92,443.40 327.65,445.52 327.34,448.00 C327.03,450.48 326.36,453.30 325.84,454.27 C325.33,455.24 325.17,456.46 325.49,456.98 C326.57,458.73 323.59,462.00 320.91,462.00 C318.11,462.00 316.07,463.90 314.21,468.25 C313.57,469.76 312.58,471.00 312.02,471.00 C311.46,471.00 311.00,471.65 311.00,472.44 C311.00,474.34 309.07,475.47 307.88,474.28 C307.36,473.76 306.77,471.65 306.57,469.61 C306.37,467.56 305.54,465.12 304.73,464.19 C303.92,463.26 303.01,461.83 302.71,461.00 C302.32,459.93 302.14,460.08 302.10,461.50 C302.02,464.21 306.14,475.65 309.84,483.44 C307.80,479.37 306.03,475.14 304.36,470.50 C301.78,463.28 301.50,461.27 301.53,450.00 C301.56,438.29 301.77,436.99 304.80,429.40 C309.05,418.74 312.89,413.10 322.14,403.93 C335.26,390.92 355.20,379.18 380.68,369.34 L 383.34 371.45 C386.93,374.31 386.71,375.99 382.75,376.04 C379.99,376.08 378.90,376.91 375.50,381.54 C373.30,384.55 370.10,387.85 368.39,388.88 C366.68,389.92 363.99,392.51 362.43,394.63 C360.86,396.76 357.98,400.40 356.04,402.71 C348.28,411.96 347.00,413.87 347.00,416.20 C347.00,417.53 346.29,419.49 345.43,420.56 C344.56,421.63 344.18,421.83 344.59,421.00 C344.99,420.17 344.94,419.85 344.46,420.28 C343.99,420.71 343.52,421.61 343.40,422.28 C343.29,422.95 342.88,424.29 342.49,425.25 C341.32,428.16 342.94,427.21 347.15,422.56 ZM 487.72 342.20 C485.61,343.70 482.87,344.48 479.07,344.67 C473.02,344.96 469.75,344.19 465.74,341.56 C463.70,340.23 462.42,340.07 459.73,340.81 C455.91,341.86 454.07,341.19 449.75,337.18 C445.37,333.11 446.83,327.24 452.32,326.84 C453.52,326.76 455.62,326.60 457.00,326.50 C458.38,326.39 461.10,324.71 463.05,322.75 C466.15,319.65 467.43,319.11 473.19,318.50 C479.87,317.78 485.52,318.44 487.70,320.20 C489.21,321.41 492.48,320.41 496.98,317.36 C501.21,314.49 504.11,314.36 506.44,316.93 C508.69,319.42 507.81,323.89 504.44,327.06 C502.46,328.92 502.10,330.00 502.58,332.59 C503.43,337.10 500.42,340.00 494.90,340.00 C492.29,340.00 489.69,340.79 487.72,342.20 ZM 476.59 377.14 C476.25,376.60 474.68,375.87 473.09,375.52 C471.51,375.17 469.42,374.01 468.45,372.94 C467.08,371.43 465.36,371.00 460.67,371.00 C457.36,371.00 453.92,370.44 453.02,369.75 C452.12,369.06 452.68,369.76 454.27,371.30 C456.84,373.81 457.61,374.03 461.60,373.43 C465.36,372.87 466.63,373.16 469.78,375.27 C471.14,376.19 472.36,376.92 473.39,377.46 C471.97,376.88 470.52,376.13 469.43,375.39 C466.24,373.23 464.97,372.93 461.28,373.48 C457.15,374.10 456.68,373.91 452.95,370.19 C448.03,365.26 447.62,361.23 451.73,358.00 C453.84,356.34 455.53,355.92 459.16,356.18 C463.25,356.46 464.27,356.11 466.99,353.50 C469.97,350.65 470.61,350.48 479.93,350.16 C488.32,349.87 490.32,350.12 493.82,351.91 C499.01,354.56 499.51,354.54 505.32,351.44 C506.12,351.02 506.86,350.66 507.57,350.36 C507.52,350.39 507.47,350.43 507.42,350.46 C505.43,351.77 505.21,352.31 506.24,353.43 C506.93,354.18 507.88,354.56 508.35,354.27 C510.55,352.94 505.04,360.04 500.41,364.50 C497.56,367.25 494.95,370.40 494.61,371.50 C493.96,373.63 488.36,377.34 487.03,376.52 C486.59,376.25 484.74,376.54 482.92,377.18 C480.02,378.19 479.85,378.43 481.55,379.10 C482.39,379.42 483.18,379.65 483.96,379.77 C483.34,379.70 482.70,379.60 482.00,379.45 C481.17,379.28 478.86,378.87 476.85,378.54 C476.81,378.53 476.77,378.53 476.73,378.52 C477.09,378.38 477.07,377.93 476.59,377.14 ZM 479.21 311.90 C475.48,314.53 467.39,315.31 463.14,313.46 C461.28,312.66 457.55,312.00 454.84,312.00 C450.79,312.00 449.47,311.53 447.45,309.35 C444.72,306.40 444.23,301.88 446.45,300.04 C447.25,299.38 449.44,298.97 451.32,299.13 C454.01,299.36 455.55,298.72 458.49,296.14 C462.22,292.87 462.27,292.86 470.37,293.41 C474.84,293.72 479.75,294.04 481.28,294.12 C482.96,294.22 485.01,293.40 486.44,292.06 C489.44,289.24 492.97,289.68 494.90,293.11 C496.24,295.51 496.18,295.96 494.18,298.50 C492.98,300.02 492.00,302.49 492.00,303.98 C492.00,307.51 489.16,310.00 485.13,310.00 C483.36,310.00 480.70,310.86 479.21,311.90 ZM 324.05 352.00 C322.53,352.00 319.30,352.27 316.89,352.60 C310.17,353.52 309.00,351.66 309.00,340.00 C309.00,328.61 309.91,327.08 316.20,327.93 C321.13,328.59 321.98,329.89 324.46,340.50 L 324.58 341.04 C326.37,348.67 326.91,350.99 326.08,351.69 C325.72,352.00 325.09,352.00 324.20,352.00 ZM 487.04 386.03 C486.33,386.06 486.30,386.70 486.96,387.93 C488.33,390.49 488.27,391.63 486.75,391.83 C479.08,392.87 476.98,393.40 473.75,395.13 C471.42,396.37 469.14,396.89 467.75,396.50 C465.99,396.01 465.83,396.10 467.00,396.92 C468.13,397.71 467.21,397.97 463.25,397.98 C459.32,398.00 457.50,397.50 456.00,396.00 C454.90,394.90 453.55,394.00 453.00,394.00 C452.45,394.00 452.00,393.55 452.00,393.00 C452.00,392.45 452.70,392.00 453.56,392.00 C454.42,392.00 454.84,391.56 454.51,391.01 C454.16,390.44 454.56,390.28 455.45,390.62 C456.30,390.95 457.00,390.72 457.00,390.11 C457.00,389.77 456.49,389.47 455.67,389.27 C455.81,389.28 455.96,389.29 456.11,389.31 C461.40,389.75 463.13,389.55 464.11,388.37 C468.29,383.33 477.72,382.62 487.04,386.03 ZM 472.27 287.00 C469.45,289.22 460.88,289.74 457.69,287.89 C455.99,286.90 456.02,286.72 458.19,284.84 C464.81,279.12 468.00,275.78 468.00,274.58 C468.00,273.42 473.15,271.49 475.25,271.87 C475.66,271.94 476.00,271.56 476.00,271.03 C476.00,270.50 476.75,270.35 477.66,270.70 C478.87,271.16 479.10,270.98 478.51,270.02 C477.96,269.13 478.08,268.93 478.85,269.40 C479.48,269.80 480.00,271.92 480.00,274.13 C480.00,277.62 480.25,278.06 481.92,277.53 C484.99,276.55 485.22,278.58 482.42,281.92 C480.79,283.85 478.89,285.00 477.32,285.00 C475.94,285.00 473.67,285.90 472.27,287.00 ZM 283.00 381.00 C276.32,383.14 274.81,381.86 275.20,374.41 L 275.50 368.50 L 280.32 368.19 C284.72,367.91 285.05,368.04 284.15,369.72 C283.52,370.90 283.51,372.17 284.13,373.27 C285.25,375.26 284.94,378.18 283.50,379.23 C282.91,379.67 283.11,380.02 284.00,380.08 C284.83,380.15 284.38,380.56 283.00,381.00 ZM 358.80 351.75 C358.51,356.40 358.42,356.51 354.96,356.80 C350.49,357.17 350.00,356.64 350.00,351.33 L 350.00 347.00 L 359.11 347.00 ZM 376.50 328.00 C378.02,328.65 377.41,328.88 373.95,328.93 C368.21,329.02 367.00,327.78 367.00,321.80 L 367.00 317.00 L 369.00 319.00 C370.10,320.10 371.66,321.00 372.47,321.00 C374.39,321.00 377.64,326.97 375.78,327.07 C375.07,327.11 375.40,327.53 376.50,328.00 ZM 411.25 601.91 C416.06,599.52 420.00,597.20 420.00,596.78 C420.00,595.50 414.49,595.90 410.77,597.45 C408.86,598.25 406.56,600.02 405.67,601.38 C404.78,602.74 403.06,604.16 401.85,604.55 C400.64,604.93 398.72,606.13 397.58,607.22 L 397.58 607.22 C396.61,608.13 396.10,608.62 396.17,608.74 C396.25,608.87 397.13,608.51 399.00,607.73 C400.92,606.93 406.44,604.31 411.25,601.91 ZM 294.00 307.00 C295.14,307.74 294.72,307.97 292.25,307.98 C289.30,308.00 289.00,307.72 289.00,305.00 C289.00,302.51 289.40,302.00 291.38,302.00 C292.93,302.00 293.95,302.71 294.29,304.00 C294.59,305.14 294.32,306.01 293.66,306.02 C293.01,306.02 293.16,306.46 294.00,307.00 ZM 500.00 515.99 C500.00,514.23 499.75,514.14 498.00,515.23 C496.90,515.92 496.00,516.82 496.00,517.24 C496.00,517.66 496.90,518.00 498.00,518.00 C499.34,518.00 500.00,517.33 500.00,515.99 ZM 522.07 544.55 C536.85,535.45 549.13,526.56 559.36,517.44 C549.25,526.80 538.51,534.79 522.07,544.55 ZM 444.30 414.90 C445.10,415.70 444.60,415.99 442.45,415.97 C439.86,415.94 439.73,415.81 441.35,414.87 C442.67,414.10 443.51,414.11 444.30,414.90 ZM 550.11 453.30 C557.19,444.85 563.40,435.79 568.34,426.87 C566.10,431.11 563.74,435.13 561.44,438.50 C558.12,443.39 554.33,448.34 550.11,453.30 ZM 591.31 477.03 C591.72,476.24 592.12,475.43 592.51,474.63 C600.25,458.72 603.95,445.22 604.66,428.98 C604.57,432.22 604.40,435.07 604.13,437.23 C602.46,450.77 598.08,464.23 591.31,477.03 ZM 604.52 413.09 C604.05,404.04 603.15,396.33 601.74,389.59 C602.37,392.22 602.88,394.76 603.21,397.00 C603.82,401.22 604.27,407.05 604.52,413.09 ZM 380.85 369.27 C390.34,365.61 400.59,362.22 411.55,359.12 C416.20,357.81 419.65,356.93 422.25,356.47 C415.66,357.76 402.67,361.54 391.09,365.65 ZM 532.24 472.04 C537.96,466.46 543.82,460.45 547.80,455.98 C543.09,461.33 537.89,466.70 532.24,472.04 ZM 369.36 413.82 C377.89,414.37 386.16,414.82 393.83,415.17 C385.58,414.85 377.56,414.44 371.17,413.96 ZM 346.92 528.63 C350.59,531.96 354.64,535.49 356.17,536.63 C356.47,536.87 356.65,537.00 356.68,537.00 C356.20,537.00 351.95,533.27 346.92,528.63 ZM 430.76 358.76 C431.74,360.34 431.90,361.37 431.36,363.33 C431.65,361.63 431.44,360.03 430.76,358.76 ZM 451.86 389.04 C449.66,389.20 448.48,389.87 447.12,391.57 C447.14,391.55 447.16,391.53 447.18,391.50 C448.67,389.61 449.27,389.02 451.86,389.04 ZM 352.31 416.60 L 355.50 412.89 L 355.74 412.90 ZM 270.75 819.58 C270.39,819.94 266.42,815.41 262.06,809.95 C266.36,815.24 270.45,819.89 270.75,819.58 ZM 424.28 371.99 C421.46,373.68 417.40,375.64 411.43,378.35 C416.37,376.11 421.16,373.72 424.28,371.99 ZM 518.26 353.63 C519.00,354.96 518.88,355.87 518.12,357.71 C518.72,356.26 518.71,354.86 518.26,353.63 ZM 501.25 392.79 C499.23,392.58 497.28,391.54 494.05,389.47 C493.73,389.27 493.41,389.07 493.11,388.89 C493.41,389.06 493.70,389.24 493.99,389.42 C497.36,391.50 499.30,392.55 501.25,392.79 ZM 327.60 509.22 C329.54,511.46 331.58,513.70 333.70,515.92 C332.32,514.52 331.17,513.32 330.38,512.43 C329.42,511.34 328.49,510.27 327.60,509.22 ZM 351.58 439.55 C355.33,440.01 359.59,440.52 364.08,441.03 C376.52,442.46 391.02,444.32 402.97,445.99 C390.92,444.31 376.24,442.43 363.52,440.97 C359.26,440.48 355.21,440.00 351.58,439.55 ZM 512.85 349.34 C513.74,349.45 514.53,349.74 515.27,350.22 C514.53,349.80 513.71,349.50 512.85,349.34 ZM 255.75 785.08 C255.38,783.41 255.14,781.90 255.05,780.61 C255.22,782.20 255.44,783.64 255.75,785.08 ZM 437.28 415.53 C437.87,415.42 438.24,415.30 438.39,415.16 C438.38,415.19 438.36,415.22 438.34,415.26 C438.28,415.36 437.91,415.45 437.28,415.53 ZM 428.31 356.50 C428.87,356.72 429.33,357.03 429.74,357.44 C429.34,357.06 428.86,356.74 428.31,356.50 ZM 363.00 560.52 C363.00,560.63 359.35,562.68 354.18,565.47 C359.33,562.69 362.97,560.65 363.00,560.52 Z" fill="rgb(15,171,142)"/>
<path d="M 314.35 515.65 C307.91,507.75 303.71,501.20 297.72,490.28 C294.11,483.70 291.28,479.54 290.86,480.22 C289.72,482.07 290.75,490.00 292.96,496.41 C295.06,502.49 295.87,517.35 294.15,518.41 C293.69,518.69 293.27,520.26 293.22,521.89 C293.18,523.53 292.48,525.90 291.68,527.18 C290.87,528.46 289.90,531.74 289.51,534.47 C289.03,537.87 288.02,540.18 286.34,541.74 C283.96,543.94 283.75,543.97 281.04,542.37 C278.33,540.76 275.00,541.00 275.00,542.80 C275.00,543.73 278.96,550.39 283.11,556.75 C278.25,549.63 273.55,542.11 271.24,537.50 C249.06,493.25 257.98,445.80 295.43,408.81 C303.41,400.93 320.04,388.01 323.27,387.19 C323.95,387.02 323.15,387.87 321.50,389.09 C319.85,390.30 314.44,395.40 309.48,400.40 C294.55,415.47 288.00,431.04 288.00,451.47 C288.00,464.62 290.64,475.45 297.05,488.54 C301.66,497.97 307.33,506.90 314.35,515.65 ZM 298.54 618.64 C296.04,620.63 293.71,622.58 291.50,624.52 L 288.50 627.17 L 291.86 624.94 C295.55,622.49 300.57,621.50 301.52,623.03 C301.91,623.66 302.79,623.65 304.01,622.99 C305.77,622.06 305.82,622.21 304.82,625.07 C304.02,627.39 303.27,628.04 301.87,627.68 C300.84,627.41 300.23,627.56 300.51,628.02 C301.13,629.02 289.17,641.31 287.00,641.92 C286.17,642.16 284.27,642.29 282.78,642.22 C279.94,642.08 277.00,645.02 277.00,647.99 C277.00,648.84 275.88,651.19 274.50,653.21 C273.12,655.24 272.00,657.57 272.00,658.40 C272.00,659.23 269.94,661.84 267.41,664.21 C264.89,666.57 261.98,670.41 260.95,672.75 C259.92,675.09 258.46,677.00 257.72,677.00 C255.48,677.00 251.41,682.10 247.67,689.60 C245.72,693.50 243.00,698.03 241.63,699.66 C240.25,701.30 238.82,703.95 238.43,705.57 C238.05,707.18 236.57,710.06 235.15,711.97 C234.10,713.38 233.47,714.30 233.10,715.98 C233.50,711.07 234.10,706.74 234.91,703.66 C240.15,683.65 253.06,661.50 269.63,644.07 C279.17,634.03 296.00,619.00 297.69,619.00 C297.84,619.00 298.14,618.87 298.54,618.64 ZM 388.80 328.80 C388.04,329.56 384.23,330.00 378.45,330.00 C366.33,330.00 365.65,329.33 366.15,317.71 C366.63,306.34 366.99,306.00 378.42,306.00 C384.23,306.00 388.04,306.44 388.80,307.20 C390.43,308.83 390.43,327.17 388.80,328.80 ZM 482.44 277.00 C485.06,277.00 485.05,278.79 482.42,281.92 C485.22,278.58 484.99,276.55 481.92,277.53 C480.25,278.06 480.00,277.62 480.00,274.13 C480.00,271.92 479.48,269.80 478.85,269.40 C478.08,268.93 477.96,269.13 478.51,270.02 C479.10,270.98 478.87,271.16 477.66,270.70 C476.75,270.35 476.00,270.50 476.00,271.03 C476.00,271.56 475.66,271.94 475.25,271.87 C473.15,271.49 468.00,273.42 468.00,274.58 C468.00,275.78 464.81,279.12 458.19,284.84 C456.02,286.72 455.99,286.90 457.69,287.89 C458.11,288.13 458.62,288.33 459.19,288.49 C457.98,288.31 456.75,288.07 455.50,287.76 C449.02,286.16 447.12,284.88 445.95,281.36 C444.60,277.26 445.43,274.31 448.20,273.44 C449.35,273.07 451.24,271.70 452.40,270.39 C453.55,269.07 455.90,267.73 457.61,267.40 C460.13,266.92 461.37,267.39 464.25,269.92 C467.31,272.60 468.16,272.89 470.42,272.03 C471.87,271.48 473.30,270.38 473.60,269.59 C474.39,267.53 476.83,266.84 479.07,268.04 C480.48,268.79 481.00,270.14 481.00,273.04 C481.00,275.82 481.43,277.00 482.44,277.00 ZM 357.80 307.80 C357.14,308.46 354.08,309.00 350.99,309.00 C345.28,309.00 341.15,307.19 342.36,305.22 C342.73,304.63 342.58,303.86 342.02,303.51 C340.69,302.69 340.70,295.42 342.04,292.93 C342.93,291.27 344.18,291.00 351.04,291.00 L 359.00 291.00 L 359.00 298.80 C359.00,303.53 358.53,307.07 357.80,307.80 ZM 324.05 352.00 L 324.20 352.00 C325.09,352.00 325.72,352.00 326.08,351.69 C326.91,350.99 326.37,348.67 324.58,341.04 L 324.46 340.50 C321.98,329.89 321.13,328.59 316.20,327.93 C314.02,327.64 312.49,327.63 311.41,328.22 C313.22,327.07 316.38,327.00 321.89,327.00 L 322.21 327.00 C328.71,327.00 331.91,327.00 333.48,328.60 C335.00,330.14 335.00,333.18 335.00,339.16 L 335.00 339.46 C335.00,347.58 334.66,350.20 333.43,351.43 C332.21,352.64 329.64,353.00 322.08,353.00 C319.08,353.00 316.76,352.98 314.98,352.79 C315.56,352.76 316.19,352.70 316.89,352.60 C319.30,352.27 322.53,352.00 324.05,352.00 ZM 289.00 298.89 L 293.75 299.20 L 298.50 299.50 L 298.50 308.50 L 293.75 308.80 L 289.00 309.11 L 289.00 298.89 ZM 283.00 381.00 C284.38,380.56 284.83,380.15 284.00,380.08 C283.11,380.02 282.91,379.67 283.50,379.23 C284.94,378.18 285.25,375.26 284.13,373.27 C283.51,372.17 283.52,370.90 284.15,369.72 C285.05,368.04 284.72,367.91 280.32,368.19 L 275.50 368.50 L 275.20 374.41 C275.01,378.07 275.27,380.24 276.39,381.25 C276.32,381.22 276.26,381.18 276.20,381.14 C275.29,380.57 274.99,378.36 275.20,373.91 L 275.50 367.50 L 280.72 367.20 C288.44,366.75 290.00,367.95 290.00,374.34 C290.00,377.23 289.46,380.14 288.80,380.80 C287.84,381.76 282.92,382.17 279.42,381.87 C280.41,381.75 281.59,381.45 283.00,381.00 ZM 376.50 328.00 C375.40,327.53 375.07,327.11 375.78,327.07 C377.64,326.97 374.39,321.00 372.47,321.00 C371.66,321.00 370.10,320.10 369.00,319.00 L 367.00 317.00 L 367.00 321.80 C367.00,327.78 368.21,329.02 373.95,328.93 C377.41,328.88 378.02,328.65 376.50,328.00 ZM 294.00 307.00 C293.16,306.46 293.01,306.02 293.66,306.02 C294.32,306.01 294.59,305.14 294.29,304.00 C293.95,302.71 292.93,302.00 291.38,302.00 C289.40,302.00 289.00,302.51 289.00,305.00 C289.00,307.72 289.30,308.00 292.25,307.98 C294.72,307.97 295.14,307.74 294.00,307.00 ZM 448.62 769.27 C425.66,767.91 402.56,766.86 403.10,767.42 C403.61,767.94 406.40,768.77 410.80,769.78 C404.88,768.55 400.23,767.51 398.50,767.00 C396.17,766.31 396.96,766.18 402.00,766.42 C411.74,766.89 431.03,768.08 448.62,769.27 ZM 464.85 813.06 C459.21,814.85 451.79,816.56 440.50,819.00 L 426.50 822.01 L 438.50 821.46 C439.76,821.40 441.02,821.34 442.26,821.27 C437.99,821.60 432.96,822.01 427.50,822.50 C422.51,822.94 420.93,822.82 422.00,822.07 C422.83,821.50 425.21,821.02 427.29,821.02 C431.53,821.00 454.37,816.06 464.85,813.06 ZM 437.71 687.69 C428.80,687.18 420.77,686.62 418.50,686.34 C409.32,685.22 414.48,686.95 432.08,690.90 C436.56,691.90 441.15,692.87 445.83,693.79 C431.22,691.09 418.06,688.27 410.50,686.07 L 407.50 685.20 L 410.50 685.13 C412.15,685.08 415.30,685.46 417.50,685.95 C419.39,686.38 427.99,687.11 437.71,687.69 ZM 311.88 376.10 C310.07,377.24 309.25,377.22 308.50,376.00 C307.67,374.66 308.78,373.00 310.50,373.00 C312.54,373.00 313.47,375.09 311.88,376.10 ZM 444.30 414.90 C443.87,414.47 443.43,414.27 442.92,414.30 C444.90,413.92 447.52,414.15 449.50,415.00 C450.92,415.61 449.77,415.88 445.50,415.91 C444.90,415.92 444.35,415.92 443.87,415.91 C444.78,415.79 444.88,415.48 444.30,414.90 ZM 339.50 591.33 C351.72,583.99 364.12,577.15 398.79,558.59 C369.60,574.21 348.16,586.16 331.72,596.13 C334.51,594.38 337.15,592.74 339.50,591.33 ZM 556.62 740.26 C557.27,738.01 557.67,735.85 557.82,733.81 C558.05,730.62 558.69,728.00 559.25,728.00 C559.94,728.00 560.10,730.57 559.88,734.03 C559.81,729.89 558.50,730.24 557.72,736.02 C557.57,737.15 557.19,738.60 556.62,740.26 ZM 449.00 776.96 C444.28,776.23 437.00,774.91 429.40,773.47 C441.48,775.63 456.21,777.98 470.32,779.91 C461.23,778.71 452.84,777.56 449.00,776.96 ZM 532.03 776.29 C538.93,769.70 544.71,762.79 549.04,756.09 C547.89,758.03 546.70,759.87 545.53,761.51 C542.23,766.13 537.63,771.15 532.03,776.29 ZM 471.81 815.45 C483.80,809.45 493.65,804.10 502.07,798.94 C498.80,801.03 495.44,803.07 492.00,805.05 C488.58,807.03 480.58,811.11 471.81,815.45 ZM 506.19 773.00 L 504.59 773.00 C500.53,773.00 492.78,772.56 487.36,772.03 C486.72,771.97 486.03,771.90 485.31,771.84 C491.41,772.23 496.88,772.56 500.17,772.71 ZM 232.54 732.54 C232.64,741.65 233.49,749.98 235.23,757.91 C234.91,756.61 234.61,755.29 234.32,753.95 C233.20,748.74 232.61,740.79 232.54,732.54 ZM 558.41 744.81 C558.05,746.52 557.64,748.07 557.20,749.30 C556.02,752.58 554.11,756.28 551.67,760.14 C554.81,754.99 557.07,749.87 558.41,744.81 ZM 292.12 569.15 C295.38,572.88 300.55,578.39 304.88,582.80 C301.04,579.02 296.79,574.66 294.60,572.15 C293.84,571.29 293.01,570.28 292.12,569.15 ZM 439.33 830.50 C440.57,830.26 446.22,827.81 455.37,823.47 C446.50,827.71 439.55,830.88 439.32,830.66 C439.29,830.62 439.29,830.57 439.33,830.50 ZM 537.53 777.85 C536.60,778.80 535.65,779.74 534.69,780.66 C534.55,780.80 534.41,780.93 534.28,781.06 C533.09,782.19 531.87,783.31 530.63,784.42 C525.07,789.39 518.93,794.21 511.60,799.27 C521.84,792.14 530.50,784.98 537.53,777.85 ZM 503.65 784.34 C503.68,784.35 503.69,784.36 503.70,784.37 C503.99,784.66 501.84,787.02 498.74,790.03 C501.31,787.42 503.28,785.17 503.65,784.34 ZM 451.99 820.61 C452.66,820.55 453.18,820.49 453.50,820.44 C454.86,820.22 455.60,820.19 455.49,820.50 C454.92,820.48 453.72,820.52 451.99,820.61 ZM 310.02 350.23 C309.07,348.38 309.00,345.30 309.00,340.17 C309.00,345.14 309.23,348.31 310.02,350.23 ZM 450.34 823.83 C449.17,824.48 447.79,825.25 446.16,826.14 C444.74,826.92 443.54,827.59 442.55,828.16 C444.55,826.94 447.30,825.40 450.34,823.83 ZM 332.89 535.50 C328.69,531.59 324.96,527.84 321.88,524.40 C325.27,528.10 328.94,531.79 332.89,535.50 ZM 484.33 690.54 C492.21,691.10 499.29,691.47 503.11,691.55 C499.29,691.47 492.21,691.10 484.33,690.54 C478.05,690.10 469.69,689.55 461.61,689.06 C469.79,689.56 478.14,690.10 484.33,690.54 ZM 482.97 781.55 C486.32,781.96 489.49,782.36 492.30,782.73 C489.48,782.38 486.30,781.98 482.97,781.55 ZM 472.27 287.00 C471.31,287.76 469.87,288.30 468.11,288.60 C469.84,288.26 471.36,287.72 472.27,287.00 ZM 441.98 414.54 C441.78,414.63 441.57,414.73 441.35,414.87 C441.08,415.02 440.86,415.15 440.70,415.27 C440.75,415.19 440.85,415.10 441.00,415.00 C441.28,414.82 441.61,414.67 441.98,414.54 ZM 480.93 805.06 C479.33,806.19 477.82,807.19 476.30,808.08 C477.78,807.19 479.32,806.19 480.93,805.06 ZM 486.99 800.51 C486.19,801.16 485.43,801.76 484.73,802.28 C484.50,802.45 484.28,802.62 484.05,802.79 C485.01,802.07 485.99,801.31 486.99,800.51 Z" fill="rgb(53,206,166)"/>
</g>
</svg>